<svg width="160" height="83" viewBox="0 0 160 83" fill="none" xmlns="http://www.w3.org/2000/svg">
<path d="M31.0611 32.2662C32.9046 34.272 33.5655 37.3154 33.1829 41.7766C32.7655 46.5145 31.6524 49.4887 29.6003 51.3562C27.3742 53.362 23.8263 54.2958 18.435 54.2958C13.0437 54.2958 9.49591 53.362 7.26982 51.3562C5.21765 49.4887 4.1046 46.5491 3.68721 41.7766C3.26982 37.3154 3.96547 34.272 5.80895 32.2662C8.00026 29.88 12.0003 28.7041 18.435 28.7041C24.9046 28.7041 28.9046 29.88 31.0611 32.2662ZM18.435 28.0125C5.56547 28.0125 2.19156 32.6812 2.99156 41.8458C3.82634 51.0104 7.16547 54.9874 18.435 54.9874C29.7046 54.9874 33.0437 51.0104 33.8785 41.8458C34.7133 32.6812 31.3394 28.0125 18.435 28.0125Z" fill="#0B457F"/>
<path d="M18.4348 29.3958C6.85215 29.3958 3.7565 33.5458 4.52171 41.7766C5.25215 50.0074 8.31302 53.5695 18.4348 53.5695C28.5913 53.5695 31.6174 50.0074 32.3478 41.7766C33.113 33.5458 30.0174 29.3958 18.4348 29.3958ZM24.2782 31.2978C22.0174 36.9003 19.513 42.1224 18.713 43.7824C18.6087 44.0245 18.2608 44.0245 18.1565 43.7824C17.3565 42.0878 14.8522 36.9003 12.5913 31.2978C12.5565 31.2287 12.5913 31.1595 12.6956 31.1249C14.2956 30.8137 16.2087 30.6408 18.4348 30.6408C20.6609 30.6408 22.5739 30.8137 24.1739 31.1249C24.2782 31.1595 24.313 31.2287 24.2782 31.2978ZM5.73911 41.6728C5.39128 37.8341 5.9478 35.2749 7.47824 33.6149C8.31302 32.7158 9.49563 32.0241 11.0261 31.5399C11.0956 31.5053 11.2 31.5745 11.2 31.6437V39.1828C11.2 40.4278 11.513 41.6728 12.1043 42.7795L17.2174 52.1516C17.2522 52.2208 17.1826 52.3245 17.113 52.3245C13.113 52.1862 10.4348 51.3908 8.73041 49.8345C7.06085 48.2783 6.12172 45.7883 5.73911 41.6728ZM31.1304 41.6728C30.7478 45.7537 29.8435 48.2783 28.1043 49.8345C26.4 51.3908 23.7217 52.1862 19.7217 52.3245C19.6174 52.3245 19.5478 52.2208 19.6174 52.1516L24.7304 42.7795C25.3217 41.6728 25.6348 40.4278 25.6348 39.1828V31.6783C25.6348 31.6091 25.7043 31.5399 25.8087 31.5745C27.3391 32.0587 28.5217 32.7503 29.3565 33.6495C30.9217 35.3095 31.4782 37.8687 31.1304 41.6728Z" fill="#0B457F"/>
<path d="M49.0787 47.5866C44.7657 47.5866 42.2266 46.1341 42.2266 41.7075C42.2266 37.6958 44.8005 36.0012 49.2179 36.0012H54.7135V39.01H49.4613C47.4092 39.01 46.7483 39.5979 46.7483 41.7075C46.7483 44.0246 47.4092 44.5779 49.5657 44.5779H54.7135V47.5866H49.0787Z" fill="#0B457F"/>
<path d="M72.0346 36.0012V47.5866H67.6867V43.2291H62.8172V47.5866H58.4346V36.0012H62.8172V40.1166H67.6867V36.0012H72.0346Z" fill="#0B457F"/>
<path d="M74.4697 47.5867L79.2697 36.0359H83.2349C84.2784 36.0359 84.661 36.3817 84.9393 37.0388L89.5306 47.5867H84.8697L81.9132 40.4971C81.7045 39.9784 81.3915 39.9784 81.2176 40.4971L78.2958 47.5867H74.4697Z" fill="#0B457F"/>
<path d="M101.427 46.9986L95.8961 41.9495C95.6874 41.742 95.5135 41.8111 95.5135 42.1224V47.6211H91.8613V36.0703H94.157C94.9918 36.0703 95.5483 36.2432 95.9657 36.5891L101.705 41.8457C101.913 42.0532 102.087 41.9149 102.087 41.6728V36.1049H105.74V47.0332C105.74 47.3791 105.531 47.5866 105.183 47.5866H103.27C102.54 47.5866 101.879 47.4136 101.427 46.9986Z" fill="#0B457F"/>
<path d="M122.748 47.5867H116.105C111.513 47.5867 109.113 46.0996 109.113 41.7076C109.113 37.7651 111.513 36.0359 116.209 36.0359H123.305V39.0101H116.418C114.226 39.0101 113.635 39.5634 113.635 41.7076C113.635 44.0938 114.226 44.6817 116.522 44.6817H119.096C119.27 44.6817 119.409 44.578 119.409 44.3705V43.3676C119.409 43.1946 119.305 43.0563 119.096 43.0563H117.009V40.5663H122.748C123.096 40.5663 123.305 40.7738 123.305 41.1196V47.0334C123.339 47.3792 123.131 47.5867 122.748 47.5867Z" fill="#0B457F"/>
<path d="M125.844 47.5867L130.644 36.0359H134.609C135.652 36.0359 136.035 36.3817 136.313 37.0388L140.905 47.5867H136.244L133.287 40.4971C133.079 39.9784 132.765 39.9784 132.592 40.4971L129.67 47.5867H125.844Z" fill="#0B457F"/>
<path d="M152.801 46.9986L147.27 41.9495C147.061 41.742 146.888 41.8111 146.888 42.1224V47.6211H143.235V36.0703H145.531C146.366 36.0703 146.922 36.2432 147.34 36.5891L153.079 41.8457C153.288 42.0532 153.461 41.9149 153.461 41.6728V36.1049H157.114V47.0332C157.114 47.3791 156.905 47.5866 156.557 47.5866H154.644C153.948 47.5866 153.288 47.4136 152.801 46.9986Z" fill="#0B457F"/>
</svg>
