<svg width="160" height="83" viewBox="0 0 160 83" fill="none" xmlns="http://www.w3.org/2000/svg">
<path d="M136.487 31.1941L118.608 51.8058H127.304L145.182 31.1941H136.487Z" fill="#ED3729"/>
<path d="M148.696 31.1941L130.817 51.8058H139.513L157.217 31.4016V31.1941H148.696Z" fill="#ED3729"/>
<path d="M3.33875 44.4051C3.0257 44.4051 2.78223 44.163 2.78223 43.8171V36.7276C2.78223 36.4163 3.0257 36.1396 3.33875 36.1396H18.4692C20.4866 36.1396 22.3996 36.6238 23.8257 37.4192C25.217 38.1801 25.9822 39.2176 25.9822 40.2551C25.9822 41.3271 25.217 42.3301 23.8257 43.0909C22.3996 43.8863 20.4518 44.3705 18.4344 44.3705H3.33875V44.4051ZM8.55614 37.7651C8.20831 37.7651 7.96483 38.0417 7.96483 38.3876V42.2263C7.96483 42.5721 8.2431 42.8488 8.55614 42.8488H16.3127C18.6431 42.8488 20.4866 41.7076 20.4866 40.3242C20.4866 38.9063 18.6431 37.7651 16.3127 37.7651H8.55614Z" fill="#231F20"/>
<path d="M58.3993 44.4051C58.0862 44.4051 57.8428 44.163 57.8428 43.8171V36.7276C57.8428 36.4163 58.0862 36.1396 58.3993 36.1396L73.5297 36.1742C75.5471 36.1742 77.4602 36.6238 78.8863 37.4192C80.2776 38.1801 81.0428 39.2176 81.0428 40.2551C81.0428 41.3271 80.2776 42.3301 78.8863 43.0909C77.4602 43.8863 75.5471 44.3359 73.5297 44.3359L58.3993 44.4051ZM63.6167 37.7651C63.2689 37.7651 63.0254 38.0417 63.0254 38.3876V42.1917C63.0254 42.5376 63.3036 42.8142 63.6167 42.8142H71.3732C73.7036 42.8142 75.5471 41.7076 75.5471 40.2896C75.5471 38.8717 73.7036 37.7651 71.3732 37.7651H63.6167Z" fill="#231F20"/>
<path d="M41.9127 44.6816C40.6953 44.6816 39.791 44.6471 38.9562 44.6125H38.8867C36.278 44.5433 33.878 44.0591 32.1388 43.2637C30.3997 42.4683 29.4258 41.4308 29.4258 40.3587C29.4258 38.1108 33.5997 36.2433 38.8867 36.0704C39.8953 36.0358 40.9388 36.0012 41.9127 36.0012C42.8867 36.0012 43.9301 36.0358 44.9388 36.0704C50.2606 36.2087 54.3997 38.1108 54.3997 40.3587C54.3997 41.4654 53.4258 42.5029 51.6867 43.2637C49.9127 44.0591 47.5127 44.5433 44.9388 44.6125H44.8693C44.0345 44.6471 43.1301 44.6816 41.9127 44.6816ZM41.9127 37.5575C41.3562 37.5575 40.7997 37.5921 40.2432 37.5921C37.078 37.6958 34.7823 38.8371 34.7823 40.3241C34.7823 41.8112 37.078 42.9525 40.2432 43.0562C40.7301 43.0562 41.2171 43.0908 41.878 43.0908C42.5388 43.0908 43.0258 43.0908 43.5127 43.0562H43.5475C46.7127 42.9525 49.0084 41.8112 49.0084 40.3241C49.0084 38.8371 46.7127 37.6958 43.5475 37.5921C43.0258 37.5921 42.4345 37.5575 41.9127 37.5575Z" fill="#231F20"/>
<path d="M93.0776 44.4396H92.8341C87.1993 44.405 84.208 42.9871 84.208 40.3242C84.208 38.1454 87.9993 36.3471 92.8689 36.2087C93.1819 36.2087 93.495 36.2087 93.9124 36.2087C94.1906 36.2087 94.5037 36.2087 94.7819 36.2087H94.8863C95.1297 36.2087 95.408 36.2087 95.6515 36.2087H107.895C107.999 36.2087 108.208 36.2433 108.208 36.52V37.4883C108.208 37.765 107.965 37.765 107.895 37.765H95.7558C95.3037 37.765 94.8167 37.765 94.3297 37.7996C93.2167 37.8342 89.5645 38.18 89.5645 40.3242C89.5645 41.8458 91.5124 42.745 94.3297 42.8487C94.7471 42.8487 95.1645 42.8833 95.7558 42.8833H102.365C102.712 42.8833 102.991 42.8142 102.991 42.4337V41.5C102.991 41.1542 102.712 41.0158 102.365 41.0158H95.6863C95.5819 41.0158 95.408 40.9467 95.408 40.7392V39.9092C95.408 39.7708 95.5124 39.5979 95.7211 39.5979H107.617C107.93 39.5979 108.173 39.84 108.173 40.1858V43.8862C108.173 44.1975 107.93 44.4742 107.617 44.4742H95.6167C95.4776 44.4742 95.1993 44.4742 94.8863 44.4742H94.6776C94.1211 44.4396 93.495 44.4396 93.0776 44.4396Z" fill="#231F20"/>
<path d="M112.626 44.4049C112.313 44.4049 112.069 44.1628 112.069 43.8516V36.7274C112.069 36.4162 112.313 36.1741 112.626 36.1741H133.148C133.391 36.1741 133.461 36.4507 133.461 36.4853V37.3845C133.461 37.6612 133.182 37.6957 133.148 37.6957H118.122C117.704 37.6957 117.322 37.9378 117.322 38.3528V38.9062C117.322 39.3212 117.669 39.5287 118.122 39.5287H132.382C132.661 39.5287 132.695 39.8053 132.695 39.8399V40.6007C132.695 40.912 132.417 40.912 132.382 40.912H118.087C117.669 40.912 117.287 41.1541 117.287 41.5691V42.1224C117.287 42.5374 117.635 42.7449 118.087 42.7449H133.391C133.704 42.7449 133.704 43.0216 133.704 43.0562V43.9899C133.704 44.0245 133.669 44.3012 133.391 44.3012L112.626 44.4049Z" fill="#231F20"/>
</svg>
