<svg width="160" height="83" viewBox="0 0 160 83" fill="none" xmlns="http://www.w3.org/2000/svg">
<path d="M95.3383 2.76676C96.8339 5.56801 98.0165 8.5076 99.0252 11.5163C100.625 16.358 101.703 21.338 102.469 26.3872C103.338 32.0243 103.86 37.6959 104.173 43.3676C104.799 54.1922 104.834 64.9822 104.834 75.8068C104.834 77.2593 104.834 78.7118 104.834 80.1989C101.46 80.1989 98.1209 80.1989 94.6426 80.1989C94.6426 74.3543 94.7122 68.4751 94.6426 62.6305C94.5731 56.7859 94.3991 50.9759 94.26 45.0968C90.1904 45.0968 86.26 45.0968 82.26 45.0968C82.26 56.7859 82.26 68.4751 82.26 80.1643C79.0252 80.1643 75.7904 80.1643 72.5557 80.1643C72.5557 80.0259 72.5557 79.853 72.5557 79.7147C72.5557 54.1922 72.5557 28.6697 72.5557 3.14718C72.5557 3.00884 72.5557 2.87051 72.5904 2.73218C80.1383 2.76676 87.7557 2.76676 95.3383 2.76676ZM82.26 12.1043C82.26 20.0584 82.26 27.9434 82.26 35.8284C86.0165 35.8284 89.7035 35.8284 93.4252 35.8284C93.4252 35.7247 93.4252 35.6901 93.4252 35.6209C93.0426 31.7822 92.5209 27.9434 91.7904 24.1047C91.0252 20.1622 90.0513 16.2543 88.66 12.4847C88.5209 12.1388 88.3818 12.0697 88.0339 12.0697C86.5035 12.0697 84.9731 12.0697 83.4426 12.0697C83.0948 12.1043 82.6774 12.1043 82.26 12.1043Z" fill="black"/>
<path d="M51.443 2.76676C51.443 2.97426 51.4082 3.18176 51.4082 3.38926C51.4082 6.08676 51.4082 8.81885 51.4082 11.5163C51.4082 11.6893 51.4082 11.8622 51.4082 12.0697C47.3734 12.0697 43.4082 12.0697 39.4082 12.0697C39.4082 20.0238 39.4082 27.8743 39.4082 35.8284C42.4691 35.8284 45.4952 35.8284 48.5908 35.8284C48.5908 38.9409 48.5908 41.9843 48.5908 45.0622C45.53 45.0622 42.4691 45.0622 39.4082 45.0622C39.4082 56.7859 39.4082 68.4751 39.4082 80.1989C35.756 80.1989 32.1734 80.1989 28.5908 80.1989C28.5908 54.3651 28.5908 28.5659 28.5908 2.73218C36.2082 2.76676 43.8256 2.76676 51.443 2.76676Z" fill="black"/>
<path d="M131.443 2.76685C131.443 5.87935 131.443 8.95726 131.443 12.1043C128.626 12.1043 125.808 12.1043 122.921 12.1043C122.921 34.8256 122.921 57.5123 122.921 80.1989C119.269 80.1989 115.686 80.1989 112.104 80.1989C112.104 57.5123 112.104 34.8602 112.104 12.1389C109.217 12.1389 106.365 12.1389 103.408 12.1389C103.408 8.99185 103.408 5.87935 103.408 2.76685C112.73 2.76685 122.086 2.76685 131.443 2.76685Z" fill="black"/>
<path d="M66.7127 2.76685C66.7127 2.97435 66.7127 3.14726 66.7127 3.35476C66.7127 28.7735 66.7127 54.1577 66.7127 79.5764C66.7127 79.7839 66.7127 79.9568 66.7127 80.1989C62.991 80.1989 59.304 80.1989 55.5475 80.1989C55.5475 79.9914 55.5475 79.7839 55.5475 79.5764C55.5475 54.1923 55.5475 28.7735 55.5475 3.38935C55.5475 3.18185 55.5127 2.97435 55.5127 2.76685C59.2344 2.76685 62.9562 2.76685 66.7127 2.76685Z" fill="black"/>
</svg>
