<svg width="160" height="83" viewBox="0 0 160 83" fill="none" xmlns="http://www.w3.org/2000/svg">
<path d="M80.0001 12.7266C37.1479 12.7266 2.78271 25.4878 2.78271 41.4999C2.78271 57.4082 37.4262 70.2732 80.0001 70.2732C122.574 70.2732 157.217 57.3736 157.217 41.4999C157.217 25.6261 122.574 12.7266 80.0001 12.7266Z" fill="#184376"/>
<path d="M125.357 33.2346C125.461 33.0617 125.357 32.9233 125.113 32.9233C123.965 32.9233 122.435 32.9233 121.218 32.9233C120.939 32.9233 120.765 32.9579 120.661 33.2346C120.209 34.0992 114.748 42.2263 113.739 43.7825C113.565 44.0246 113.357 43.99 113.322 43.7133C113.218 42.7796 112.418 41.7075 111.131 41.1888C110.157 40.8083 109.183 40.7392 108.209 40.8429C106.4 41.085 104.8 42.0188 103.409 43.0908C101.287 44.6817 99.4785 46.7567 97.1133 48.3129C95.8263 49.1429 94.0524 49.8692 92.8698 48.7971C91.7915 47.7942 91.9307 45.6154 93.5655 43.9208C93.7394 43.7479 93.9481 43.8863 93.9133 44.0592C93.7741 44.82 93.9481 45.5808 94.5394 46.1342C95.2698 46.7567 96.2785 46.8258 97.1481 46.4108C98.1915 45.8921 98.7828 44.9238 98.9568 43.8171C99.235 42.0879 97.8785 40.5663 96.2089 40.4625C94.8524 40.3588 93.5654 40.8429 92.2785 41.8804C91.6524 42.3992 91.2698 42.7796 90.7133 43.575C90.5741 43.7825 90.3654 43.7825 90.3654 43.5058C90.435 41.2925 89.4959 40.0475 87.6872 40.0129C86.2611 39.9783 84.7307 40.7392 83.5481 41.6729C82.2611 42.7104 81.1133 44.0938 79.8959 45.3733C79.7568 45.5463 79.6176 45.5117 79.5828 45.2004C79.5481 43.7479 79.1655 42.33 78.5046 41.3271C78.2611 40.9813 77.7394 40.8083 77.322 41.0504C77.1133 41.1542 76.4524 41.4654 75.9307 41.8804C75.6872 42.0879 75.5829 42.3646 75.6872 42.745C76.3481 44.9238 76.2089 47.4138 75.3046 49.5233C74.4698 51.46 72.9046 53.1892 71.0263 53.7771C69.8089 54.1575 68.522 53.9846 67.722 52.8779C66.6437 51.3908 67.0611 48.7625 68.6959 46.6183C70.122 44.7163 72.2089 43.5058 74.2611 42.7104C74.5046 42.6067 74.5394 42.4683 74.4698 42.2608C74.3655 41.915 74.1915 41.4654 74.122 41.2579C73.9481 40.7392 73.3915 40.67 72.7655 40.7392C71.2698 40.9121 69.9133 41.4308 68.5568 42.1225C65.0437 43.99 63.3046 47.5867 62.5394 49.5233C62.1568 50.4571 61.8437 51.045 61.4263 51.5292C60.8698 52.2208 60.1742 52.8433 58.922 53.95C58.8176 54.0538 58.7133 54.2613 58.8176 54.4688C58.9568 54.7454 59.6176 55.6446 59.7915 55.7483C60.0002 55.8521 60.2437 55.7138 60.3481 55.6446C61.2176 55.0567 62.2959 54.0883 62.8176 53.4658C62.9915 53.2583 63.2002 53.3275 63.2698 53.6733C63.7568 55.4025 65.0089 56.7858 66.7829 57.3738C69.9828 58.4458 73.322 56.8896 75.8611 54.1921C77.4611 52.4629 78.0524 51.3563 78.6437 50.5954C79.6872 49.3158 81.7394 46.4454 84.1742 44.6125C85.0785 43.9208 86.122 43.4367 86.6437 43.7479C87.0611 44.0246 87.2002 44.6471 86.5394 45.8921C84.035 50.4225 80.3828 55.7138 79.722 56.9933C79.6176 57.2008 79.722 57.4083 79.9307 57.4083C81.2176 57.4083 82.5394 57.4083 83.722 57.4083C83.9307 57.4083 84.0002 57.3046 84.1046 57.1663C86.0176 54.1921 87.8263 51.3563 89.7394 48.4513C89.8437 48.2783 89.9481 48.4167 89.9481 48.4858C89.9828 49.1775 90.1568 50.0767 90.5741 50.6992C91.3046 51.8404 92.3481 52.3246 93.4611 52.3246C94.3655 52.3246 94.8176 52.1863 95.8263 51.8404C96.6263 51.5292 97.2524 51.1488 97.7742 50.8029C98.0524 50.5954 98.122 50.9413 98.122 50.9758C97.6698 53.3275 98.2263 56.1288 100.592 57.3046C103.409 58.6879 106.505 56.7513 108.313 54.9875C108.487 54.8146 108.661 54.8492 108.696 55.195C108.731 55.8521 109.044 56.6475 109.6 57.2008C111.096 58.6879 114.122 58.1 117.148 55.7829C119.096 54.2958 121.113 52.1863 122.957 49.9383C123.026 49.8692 123.061 49.6963 122.957 49.5579C122.678 49.2813 122.261 48.9354 121.983 48.6933C121.844 48.5896 121.67 48.6242 121.565 48.6933C119.687 50.4571 117.983 52.4975 115.548 54.1921C114.713 54.78 113.392 55.2296 112.8 54.4342C112.557 54.1229 112.592 53.7079 112.835 53.12C113.461 51.3563 124.765 34.2375 125.357 33.2346ZM110.4 47.5867C110.435 47.725 110.609 47.8288 110.748 47.8979C110.818 47.9325 110.852 47.9671 110.783 48.1054C110.296 49.1429 109.878 49.7308 109.252 50.5954C108.696 51.4254 108.07 52.0479 107.305 52.6704C106.157 53.6042 104.592 54.6417 103.27 53.95C102.678 53.6388 102.435 52.8433 102.435 52.1863C102.47 50.3533 103.27 48.4513 104.8 46.5838C106.644 44.3013 108.696 43.1254 110.052 43.7825C111.444 44.4396 110.992 46.0304 110.365 47.31C110.4 47.4483 110.4 47.5175 110.4 47.5867Z" fill="white"/>
<path d="M43.3394 57.339C39.1307 57.3736 35.409 54.7799 34.9916 50.284C34.7481 47.794 35.4786 45.5807 36.8699 43.7478C38.122 42.1224 40.2438 40.7736 42.0525 40.4278C42.6438 40.324 43.409 40.3932 43.7568 40.7736C44.2786 41.3615 44.1046 42.0186 43.6177 42.2607C42.2612 42.9524 40.5916 44.1628 39.7916 45.7882C39.1307 47.1024 38.9916 48.7278 40.0003 50.2494C41.7046 52.774 46.4003 52.8432 50.8177 48.7969C51.896 47.794 52.8699 46.8603 53.8786 45.719C55.8264 43.5057 56.4525 42.7103 59.0264 39.1828C59.0612 39.1482 59.0612 39.079 59.0612 39.079C59.0264 39.0444 58.9916 39.0099 58.922 39.0099C57.2177 39.0444 55.722 39.5632 54.2612 40.6353C53.8438 40.9465 53.2525 40.9119 52.9742 40.4969C52.6959 40.0474 52.9046 39.4594 53.3568 39.1136C55.6873 37.4882 58.2612 37.2115 60.8699 36.7619C60.8699 36.7619 61.0438 36.7619 61.1829 36.589C62.2612 35.2403 63.0612 33.9953 64.209 32.6119C65.3568 31.194 66.8525 29.9144 67.9655 28.9461C69.5655 27.5974 70.5742 27.1478 71.5829 26.5599C71.8612 26.4215 71.5481 26.2486 71.4786 26.2486C65.7046 25.1765 59.722 23.7932 53.9829 25.9028C50.0177 27.3899 48.2786 30.5024 49.1133 32.5774C49.7046 34.0644 51.6525 34.3065 53.4959 33.4074C55.0264 32.6811 56.4177 31.4707 57.4264 29.9144C57.9829 29.0499 59.1655 29.6724 58.5394 31.1594C56.8699 35.0674 53.6699 38.1799 49.7742 38.3182C46.4699 38.4219 44.3133 36.0011 44.3133 32.9924C44.3133 27.0786 50.9568 23.2053 57.8786 22.6174C66.2612 21.9257 74.1916 24.139 82.5046 25.1419C88.8699 25.9028 94.9916 25.9374 101.392 24.4503C102.157 24.2774 102.679 24.7615 102.644 25.5224C102.574 26.629 101.739 27.6665 99.6177 28.8078C97.2177 30.1219 94.7133 30.5024 92.1046 30.5369C85.7742 30.5715 79.8612 28.1507 73.7742 26.8019C73.7742 27.0786 73.8438 27.3899 73.6351 27.5628C70.2612 30.0528 67.2003 32.5774 65.1481 36.1049C65.0786 36.174 65.1133 36.2778 65.2177 36.2432C66.9916 36.1394 68.5916 36.1049 70.2612 35.9665C70.5394 35.9319 70.5742 35.8628 70.5394 35.6553C70.4003 34.4449 70.7481 33.0615 71.8264 32.0932C72.9394 31.1249 74.296 30.9865 75.2351 31.7128C76.2786 32.5082 76.1742 33.9607 75.6177 35.0674C75.0264 36.174 74.0873 36.7619 73.1481 37.0386C73.1481 37.0386 72.9394 37.0732 72.9742 37.2461C73.009 37.5228 74.2612 38.2144 74.3655 38.3874C74.4699 38.5603 74.4003 38.8369 74.2264 39.0444C74.0873 39.1828 73.8786 39.3211 73.6351 39.3211C73.4264 39.3211 73.2873 39.2519 73.009 39.079C72.4525 38.7678 71.7568 38.2836 71.2699 37.6957C71.0959 37.4882 71.0264 37.4882 70.6438 37.5228C68.8351 37.6265 66.0525 37.9032 64.1394 38.1453C63.6873 38.2144 63.6177 38.2836 63.5133 38.4565C60.4873 43.4019 57.2525 48.7624 53.7046 52.359C49.8438 56.3015 46.6786 57.3044 43.3394 57.339ZM72.1394 35.3094C72.1742 35.5515 72.2786 35.6207 72.4177 35.5861C73.009 35.4824 73.6351 34.9982 73.9829 34.4449C74.3307 33.9607 74.4699 33.2344 74.1568 32.9578C73.8438 32.7157 73.3568 32.7849 73.009 33.0961C72.2786 33.7186 72.0699 34.6178 72.1394 35.3094Z" fill="white"/>
<path d="M80.0002 67.7832C39.1306 67.7832 6.01758 56.0249 6.01758 41.4999C6.01758 26.9749 39.1306 15.2166 80.0002 15.2166C120.87 15.2166 153.983 26.9749 153.983 41.4999C153.983 56.0249 120.87 67.7832 80.0002 67.7832ZM80.0002 17.4299C40.5567 17.4299 8.59149 28.2545 8.59149 41.4999C8.59149 54.7453 40.5567 65.6045 79.9654 65.6045C119.409 65.6045 151.339 54.7799 151.339 41.4999C151.374 28.2545 119.444 17.4299 80.0002 17.4299Z" fill="white"/>
</svg>
