<svg width="160" height="83" viewBox="0 0 160 83" fill="none" xmlns="http://www.w3.org/2000/svg">
<path d="M121.495 23.6204H113.182H108.035H61.078H60.6258L62.9563 27.9087C62.9563 27.9087 63.3737 28.6695 64.2085 29.292C64.4519 29.4649 64.6954 29.6379 65.0085 29.7416C65.2519 29.8454 65.4258 29.9145 65.5998 29.9491C65.7737 30.0183 65.9476 30.0183 66.0867 30.0529C66.5041 30.122 67.7563 30.122 67.7563 30.122C67.7563 30.122 90.5389 30.122 90.6432 30.122C90.7476 30.122 96.4867 30.1566 100.243 33.0962C101.391 33.9953 102.539 35.4133 102.887 36.8658C103.026 37.4537 103.061 38.007 103.026 38.5949C102.852 42.8833 97.9128 45.5462 97.4954 45.8229C97.1476 46.0303 94.5737 47.6212 90.5041 48.2783C85.7737 49.1083 81.4258 49.1774 80.3476 49.1774C76.4867 49.1774 73.078 48.797 69.0085 47.8979C64.0693 46.8258 59.0258 44.647 55.965 42.5374C52.9389 40.4624 50.7824 38.4566 48.9737 35.4824C46.9215 32.1279 46.9911 28.8079 46.9911 28.5312C46.9911 27.7704 47.0606 25.6262 47.9998 23.4129C49.4606 19.8854 52.1041 16.9804 55.9302 14.3866C60.4519 11.3087 65.5302 9.92535 67.0954 9.47577C69.0432 8.92243 74.1911 7.7466 79.9302 7.7466C79.965 7.7466 83.5476 7.78118 84.9737 7.91952C86.7476 8.05785 87.965 8.23077 89.4954 8.47285C96.0693 9.54493 100.521 11.6199 103.269 13.1416C106.261 14.8016 108.661 16.7383 110.504 18.9516C111.095 19.7124 111.791 20.3349 112.695 20.6462L121.495 23.6204ZM80.5911 2.7666C57.565 2.7666 38.8867 14.2483 38.8867 28.462C38.8867 42.6758 57.565 54.1574 80.5911 54.1574C103.617 54.1574 122.295 42.6758 122.295 28.462C122.295 14.2483 103.617 2.7666 80.5911 2.7666Z" fill="#EB0A1E"/>
<path d="M39.652 70.2041V69.3395C39.652 66.5037 41.6346 64.1866 44.4868 64.1866H62.365V59.9329H42.539C36.9042 59.9329 32.3477 64.4979 32.3477 70.0658C32.3477 75.6337 36.9042 80.1987 42.539 80.1987H62.6781V68.1983H47.5129V71.9679H55.6868V75.9104H45.1129C41.9477 75.9795 39.652 73.3858 39.652 70.2041Z" fill="#EB0A1E"/>
<path d="M106.33 70.2041V69.3395C106.33 66.5037 108.313 64.1866 111.165 64.1866H127.617V59.9329H109.252C103.617 59.9329 99.0605 64.4633 99.0605 70.0658C99.0605 75.6683 103.617 80.1987 109.252 80.1987H127.687V75.9449H111.861C108.626 75.9795 106.33 73.3858 106.33 70.2041Z" fill="#EB0A1E"/>
<path d="M91.8603 80.2333H99.2342L86.7473 59.9329H77.9821L65.4951 80.2333H72.9038L75.4082 75.8412H87.7908L85.4951 71.8641H77.669L82.3647 63.6333L91.8603 80.2333Z" fill="#EB0A1E"/>
</svg>
