<svg width="160" height="83" viewBox="0 0 160 83" fill="none" xmlns="http://www.w3.org/2000/svg">
<path d="M26.0518 26.9751C12.2431 26.9751 2.78223 33.0272 2.78223 41.5347C2.78223 50.0422 12.904 56.0251 26.0518 56.0251C39.1996 56.0251 49.3214 50.0076 49.3214 41.5347C49.3214 33.0618 39.8605 26.9751 26.0518 26.9751ZM26.0518 54.0884C11.9996 54.0884 4.27788 48.6243 4.27788 41.5001C4.27788 33.1655 14.017 27.5976 26.0518 27.5976C38.0866 27.5976 47.8257 33.1655 47.8257 41.5001C47.8257 48.6243 40.104 54.0884 26.0518 54.0884Z" fill="black"/>
<path d="M26.052 28.7042C14.7129 28.7042 5.53027 33.2346 5.53027 41.3963C5.53027 41.5346 5.53027 41.6729 5.53027 41.8113V42.0188C5.53027 42.0188 5.53027 42.1225 5.53027 42.1571C5.53027 42.2608 5.56506 42.3646 5.56506 42.4683C5.73897 43.6788 6.36506 45.7538 8.41723 47.7942C9.91288 49.1083 12.6259 50.7683 16.7651 51.1833C19.2694 51.4254 21.3216 51.1488 22.5042 50.6646C22.9911 50.4571 23.3738 50.215 23.6868 49.9729C24.1042 49.6617 24.4172 49.3158 24.6259 49.0046C25.4607 47.8633 25.4955 44.8546 25.4607 42.2608C25.4607 41.3963 25.4607 38.2492 25.4607 37.5229V34.6871L17.8433 38.4567L17.739 43.8171C17.739 43.8171 17.7738 47.1717 13.4607 46.7221C13.4607 46.7221 9.49549 46.6529 8.13897 42.3646C7.96506 41.7767 7.86071 41.1888 7.86071 40.5317C7.86071 34.5833 15.5129 30.1567 26.052 30.1567C36.5911 30.1567 44.2433 34.5833 44.2433 40.5317C44.2433 41.1542 44.139 41.7421 43.9651 42.3646C42.5738 46.6529 38.6433 46.7221 38.6433 46.7221C34.3303 47.2063 34.3651 43.8171 34.3651 43.8171L34.2259 38.4221L26.6085 34.6525V37.4883C26.6085 38.2492 26.6085 41.3617 26.6085 42.2263C26.5738 44.82 26.6085 47.8288 27.4433 48.97C27.6868 49.2813 27.9998 49.6271 28.3824 49.9383C28.6955 50.1804 29.0781 50.4225 29.5651 50.63C30.7477 51.1142 32.7998 51.3908 35.3042 51.1488C39.4781 50.7338 42.1564 49.0392 43.652 47.725C45.7042 45.6846 46.3303 43.6096 46.5042 42.3992C46.5042 42.2954 46.539 42.1917 46.539 42.0879C46.539 42.0188 46.539 41.9842 46.539 41.9496V41.7421C46.539 41.6038 46.539 41.4654 46.539 41.3271C46.539 33.2 37.3564 28.635 26.0172 28.635L26.052 28.7042Z" fill="black"/>
<path d="M156.73 32.3009H150.399C150.156 32.3009 149.912 32.4393 149.808 32.6122L142.364 45.5118C142.295 45.6155 142.156 45.6155 142.121 45.5118L134.677 32.6122C134.573 32.4047 134.33 32.3009 134.086 32.3009H127.756C127.443 32.3009 127.199 32.543 127.199 32.8197V50.2843C127.199 50.5264 127.408 50.6993 127.651 50.6993H131.964C132.243 50.6993 132.417 50.5264 132.417 50.2843V39.1139C132.417 38.9755 132.625 38.9064 132.73 39.0447L139.269 50.388C139.373 50.5955 139.617 50.6993 139.86 50.6993H144.556C144.799 50.6993 145.043 50.5609 145.147 50.388L151.686 39.0447C151.756 38.9064 151.999 38.9409 151.999 39.1139V50.2843C151.999 50.5264 152.208 50.6993 152.451 50.6993H156.764C157.043 50.6993 157.217 50.5264 157.217 50.2843V32.7851C157.217 32.5084 156.973 32.2664 156.66 32.2664L156.73 32.3009Z" fill="black"/>
<path d="M119.409 32.6814L114.157 43.8519C114.087 43.9556 113.948 43.9556 113.878 43.8519L109.565 32.716C109.461 32.4739 109.217 32.301 108.939 32.301H104.522C104.244 32.301 103.965 32.4739 103.861 32.716L99.5479 43.8519C99.5131 43.9556 99.3392 43.9556 99.2696 43.8519L94.0175 32.6814C93.9131 32.4394 93.6696 32.301 93.3914 32.301H88.8349C88.5914 32.301 88.4522 32.5431 88.5218 32.716L96.7653 50.3189C96.8696 50.561 97.1131 50.6994 97.3914 50.6994H101.844C102.122 50.6994 102.4 50.5264 102.504 50.2844L106.574 39.8402C106.609 39.7364 106.783 39.7364 106.852 39.8402L110.922 50.2844C111.026 50.5264 111.27 50.6994 111.583 50.6994H116.035C116.313 50.6994 116.557 50.561 116.661 50.3189L124.904 32.716C125.009 32.5085 124.835 32.301 124.591 32.301H120.07C119.791 32.301 119.548 32.4394 119.444 32.6814H119.409Z" fill="black"/>
<path d="M61.4953 41.5002C61.4953 36.4856 63.3388 36.4856 70.5736 36.4856H85.8779C86.1562 36.4856 86.3301 36.3127 86.3301 36.0706V32.716C86.3301 32.4739 86.1214 32.301 85.8779 32.301H70.5736C61.3214 32.301 56.2432 32.301 56.2432 41.5002C56.2432 50.6994 61.3214 50.6994 70.5736 50.6994H84.4866C85.4953 50.6994 86.3301 49.9385 86.3301 49.0048V40.1169C86.3301 39.7364 85.9475 39.3906 85.5301 39.3906H71.0258C70.7475 39.3906 70.5736 39.5635 70.5736 39.8056V43.1602C70.5736 43.4023 70.7823 43.5752 71.0258 43.5752H80.6953C80.904 43.5752 81.0432 43.7135 81.0432 43.8864V46.1344C81.0432 46.3073 80.8692 46.4456 80.6953 46.4456H70.5736C63.304 46.4802 61.4953 46.4802 61.4953 41.5002Z" fill="black"/>
</svg>
