<svg width="160" height="83" viewBox="0 0 160 83" fill="none" xmlns="http://www.w3.org/2000/svg">
<path fill-rule="evenodd" clip-rule="evenodd" d="M35.235 60.4861V78.1582H31.3045V70.8611H22.6437V78.1582H18.6089V60.4861H22.6437V67.4719H31.3045V60.4861H35.235Z" fill="#0065AD"/>
<path fill-rule="evenodd" clip-rule="evenodd" d="M137.461 78.1582H141.391V60.4861H137.461V78.1582Z" fill="#0065AD"/>
<path fill-rule="evenodd" clip-rule="evenodd" d="M70.0175 73.3165C70.0175 74.4578 69.8088 74.769 68.7653 74.769C67.6175 74.769 61.6349 74.769 61.6349 74.769V60.4861H57.7393V78.1582H70.6436C70.6436 78.1582 73.948 77.9507 73.948 74.2503C73.948 70.4461 73.948 60.4861 73.948 60.4861H70.0175C70.0175 60.4861 70.0175 72.5211 70.0175 73.3165Z" fill="#0065AD"/>
<path fill-rule="evenodd" clip-rule="evenodd" d="M89.8785 78.1582H93.9133C93.9133 78.1582 93.9133 68.1982 93.9133 64.394C93.9133 60.6936 90.5046 60.4861 90.5046 60.4861H77.5654V78.1582H81.6002V63.8753C81.6002 63.8753 87.4785 63.8753 88.6263 63.8753C89.6698 63.8753 89.8785 64.1865 89.8785 65.3278C89.8785 66.1578 89.8785 78.1582 89.8785 78.1582Z" fill="#0065AD"/>
<path fill-rule="evenodd" clip-rule="evenodd" d="M56.2088 60.4861H51.2348L46.5044 67.9907L41.7392 60.4861H36.8696L44.6261 71.8986V78.1582H48.5566V71.7948L56.2088 60.4861Z" fill="#0065AD"/>
<path fill-rule="evenodd" clip-rule="evenodd" d="M97.3916 78.1582C97.3916 78.1582 106.679 78.1582 110.087 78.1582C113.496 78.1582 113.809 74.6653 113.809 74.6653V63.979C113.809 63.979 113.496 60.4861 110.087 60.4861C106.679 60.4861 97.3916 60.4861 97.3916 60.4861V78.1582ZM109.809 73.3165C109.809 73.3165 109.809 74.769 108.557 74.769C107.618 74.769 101.322 74.769 101.322 74.769V63.8753C101.322 63.8753 107.618 63.8753 108.557 63.8753C109.809 63.8753 109.809 65.3278 109.809 65.3278V73.3165Z" fill="#0065AD"/>
<path fill-rule="evenodd" clip-rule="evenodd" d="M134.053 60.4862V78.1583H130.018V73.04H121.148V78.1583H117.218V65.0166C117.218 60.2787 121.566 60.4862 121.566 60.4862H134.053ZM130.053 69.7545V63.91H122.505C122.505 63.91 121.148 63.91 121.148 65.57C121.148 67.0225 121.148 69.7891 121.148 69.7891H130.053V69.7545Z" fill="#0065AD"/>
<path fill-rule="evenodd" clip-rule="evenodd" d="M125.6 27.7357C125.6 40.2549 105.148 50.5261 80.07 50.5261C54.8874 50.5261 34.5396 40.2549 34.5396 27.7357C34.5396 15.1128 54.8874 4.84155 80.07 4.84155C105.148 4.84155 125.6 15.1128 125.6 27.7357ZM77.8787 24.5541C81.8091 23.8278 85.6352 22.5136 88.6265 21.3724C98.3309 17.9832 102.887 14.4903 103.792 13.6603C105.044 12.5191 104.105 12.1041 102.957 11.7236C96.3482 9.78697 86.3309 8.33447 79.9309 8.64572C75.27 8.74947 72.6961 13.7641 71.6526 15.9428C66.8178 26.1103 75.5135 25.0728 77.8787 24.5541ZM48.1395 38.9407C48.3482 38.5257 56.0004 20.7499 64.9743 11.1011C66.1222 10.0636 64.87 9.85614 63.4091 10.1674C48.5222 13.0378 38.2265 19.8161 38.2265 27.632C38.2265 31.9549 41.3222 35.9666 46.5048 39.1482C47.2004 39.5632 47.9309 39.252 48.1395 38.9407ZM82.1222 30.8136C78.1917 31.5399 74.3656 32.8541 71.3743 33.9953C61.67 37.3845 57.1135 40.9811 56.2091 41.8111C54.9569 42.8486 55.8961 43.3674 57.0439 43.6441C63.6526 45.5807 73.67 47.0332 80.07 46.8257C84.7309 46.6182 87.3048 41.6036 88.4526 39.4249C93.183 29.292 84.4874 30.3986 82.1222 30.8136ZM121.774 27.7357C121.774 23.4128 118.783 19.5049 113.496 16.3232C112.766 15.8045 112.14 16.1157 111.826 16.5307C111.618 16.842 103.966 34.6178 94.9917 44.2666C93.9482 45.4078 95.0961 45.6153 96.5569 45.3041C111.444 42.3299 121.774 35.5516 121.774 27.7357Z" fill="#0065AD"/>
</svg>
