<svg width="160" height="83" viewBox="0 0 160 83" fill="none" xmlns="http://www.w3.org/2000/svg">
<path fill-rule="evenodd" clip-rule="evenodd" d="M44.765 42.6066C44.765 55.5408 38.7824 60.4516 26.8172 60.4516C14.6781 60.4516 9.39111 53.8116 9.39111 43.6096V37.1425H22.5389V42.3991C22.5389 45.9612 22.5389 49.385 26.4694 49.385C30.2259 49.385 30.052 44.7854 30.052 42.745V12.6575H44.765V42.6066Z" fill="black"/>
<path fill-rule="evenodd" clip-rule="evenodd" d="M57.9479 38.5257C58.4696 34.9636 60.5218 32.9232 63.9305 32.9232C66.9914 32.9232 69.2174 35.4824 69.2174 38.5257H57.9479ZM80.6957 45.3386C80.6957 32.0932 75.2348 24.5886 62.9218 24.5886C53.0087 24.5886 46.5044 32.5774 46.5044 42.4336C46.5044 53.8115 54.0174 60.2786 63.9305 60.2786C71.0957 60.2786 77.6001 56.8895 80.0001 49.5578H68.9044C67.8957 51.0795 65.8435 51.944 63.9305 51.944C60.174 51.944 58.1218 49.212 57.774 45.304H80.6957V45.3386Z" fill="black"/>
<path fill-rule="evenodd" clip-rule="evenodd" d="M93.0085 38.5257C93.5303 34.9636 95.5825 32.9232 98.9911 32.9232C102.052 32.9232 104.278 35.4824 104.278 38.5257H93.0085ZM115.722 45.3386C115.722 32.0932 110.261 24.5886 97.9477 24.5886C88.0346 24.5886 81.5303 32.5774 81.5303 42.4336C81.5303 53.8115 89.0433 60.2786 98.9564 60.2786C105.982 60.2786 112.626 56.8895 115.026 49.5578H103.93C102.922 51.0795 100.869 51.944 98.9564 51.944C95.1998 51.944 93.1477 49.212 92.7998 45.304H115.722V45.3386Z" fill="black"/>
<path fill-rule="evenodd" clip-rule="evenodd" d="M128.382 42.4336C128.382 38.3528 129.252 34.099 133.495 34.099C137.774 34.099 138.782 38.3528 138.782 42.4336C138.782 46.3415 137.774 50.7682 133.495 50.7682C129.252 50.7682 128.382 46.3415 128.382 42.4336ZM116.939 70.3078H128.73V55.679H128.904C130.609 58.584 133.878 60.2786 137.461 60.2786C147.895 60.2786 150.609 50.5953 150.609 42.6065C150.609 34.099 146.504 24.5886 137.6 24.5886C131.791 24.5886 129.913 26.9749 128.382 29.1882V25.4532H116.939V70.3078Z" fill="black"/>
<path fill-rule="evenodd" clip-rule="evenodd" d="M145.322 64.3596C145.322 62.8379 146.33 61.8004 147.722 61.8004C149.078 61.8004 150.122 62.8033 150.122 64.3596C150.122 65.7083 149.113 66.7458 147.722 66.7458C146.33 66.7458 145.322 65.7083 145.322 64.3596ZM144.626 64.3596C144.626 65.8813 145.983 67.2646 147.687 67.2646C149.217 67.2646 150.609 65.9158 150.609 64.3596C150.609 62.665 149.252 61.4546 147.687 61.4546C145.983 61.4892 144.626 62.665 144.626 64.3596ZM146.504 66.0542H147.026V64.5325H147.722L148.591 66.0542H149.287L148.278 64.5325C148.8 64.5325 149.148 64.1867 149.148 63.5296C149.148 63.0108 148.8 62.665 147.965 62.665H146.609V66.0542H146.504ZM147.026 63.0108H147.896C148.243 63.0108 148.591 63.1838 148.591 63.5296C148.591 64.0483 148.069 64.2213 147.722 64.2213H147.026V63.0108Z" fill="black"/>
</svg>
