<svg width="160" height="83" viewBox="0 0 160 83" fill="none" xmlns="http://www.w3.org/2000/svg">
<path d="M54.5043 80.2333V72.9362C54.5043 71.5182 54.226 71.2416 52.6956 71.2416H50.0869V80.2333H45.9826V71.2416H41.6V80.2333H37.4956V67.472L52.8 67.4028C57.426 67.4028 58.6434 68.5095 58.6434 72.867V80.2333H54.5043Z" fill="black"/>
<path d="M117.113 67.1953L108.105 67.2299V70.792L117.113 70.7574C118.365 70.7574 118.47 70.792 118.47 71.622H111.965C109.705 71.622 107.061 72.3828 107.061 75.9449C107.061 79.507 109.739 80.2332 112 80.2332H122.539L122.505 71.8986C122.505 68.0253 121.531 67.1607 117.113 67.1953ZM118.505 76.6711H112C111.2 76.6711 111.096 76.2561 111.096 75.8757C111.096 75.4953 111.2 75.0803 112 75.0803H118.505V76.6711Z" fill="black"/>
<path d="M95.0608 71.0687H99.026C102.539 71.0687 102.852 71.5183 102.852 73.7316C102.852 75.945 102.539 76.3945 99.026 76.4291H95.0608V71.0687ZM70.4347 76.7058H63.9303C63.1303 76.7058 63.026 76.3254 63.026 75.9104C63.026 75.53 63.1303 75.115 63.9303 75.115H70.4347V76.7058ZM99.4086 67.2645L88.8695 67.2991L74.4695 77.2591V72.0025C74.4695 68.1983 73.4956 67.3337 69.0782 67.3683L60.0695 67.4029V70.8958L69.0782 70.8612C70.3303 70.8612 70.4347 70.8958 70.4347 71.7258H63.9303C61.6695 71.7258 58.9912 72.4866 58.9912 75.9795C58.9912 79.4725 61.6695 80.2333 63.9303 80.2333H76.626L91.026 70.2733V80.2333H99.4086C105.252 80.2333 106.852 78.85 106.852 73.7316C106.852 68.6133 105.252 67.23 99.4086 67.2645ZM87.1999 67.2991L75.6869 67.3337V71.1379H81.6695L87.1999 67.2991ZM78.3303 80.2333H89.8434V76.4291H83.826L78.3303 80.2333Z" fill="black"/>
<path d="M54.5741 80.1296V72.9362C54.5741 71.4492 54.2611 71.1379 52.6959 71.1379H49.9828V80.1296H46.0524V71.1379H41.4611V80.095H37.5654V67.5067L52.8002 67.4375C57.3567 67.4375 58.5393 68.5096 58.5393 72.7979V80.0604L54.5741 80.1296Z" fill="#262626"/>
<path d="M112 80.1296C108.835 80.1296 107.166 78.6771 107.166 75.9105C107.166 73.1784 108.835 71.6913 112 71.6913H118.609V71.6567C118.609 70.6538 118.47 70.6192 117.148 70.6192L108.244 70.6538V67.2992L117.148 67.2646C121.496 67.2646 122.435 68.0601 122.435 71.8642L122.47 80.1296H112ZM111.966 74.9767C111.27 74.9767 110.957 75.2534 110.957 75.8759C110.957 76.4984 111.27 76.7751 111.966 76.7751H118.574V74.9767H111.966Z" fill="#262626"/>
<path d="M102.922 73.7316C102.922 71.4837 102.574 70.9649 98.9914 70.9649H94.9566V76.4982H98.9914C102.574 76.4982 102.922 75.9795 102.922 73.7316ZM62.9218 75.9449C62.9218 76.5328 63.2348 76.8095 63.9305 76.8095H70.5392V75.0457H63.9305C63.2348 75.0457 62.9218 75.357 62.9218 75.9449ZM99.4087 80.1295H91.1305V70.0657L76.5914 80.1295H63.9305C60.7653 80.1295 59.0957 78.7116 59.0957 75.9795C59.0957 73.282 60.7653 71.8295 63.9305 71.8295H70.5392V71.7949C70.5392 70.792 70.4001 70.7574 69.0783 70.7574L60.174 70.792V67.472L69.0783 67.4374C73.4261 67.4374 74.3653 68.2328 74.3653 72.0024V77.432L88.8696 67.3682L99.374 67.3337C105.183 67.2991 106.713 68.6478 106.713 73.7316C106.783 78.7807 105.217 80.1295 99.4087 80.1295ZM75.7914 71.0341V67.4374L86.887 67.4028L81.6348 71.0341H75.7914ZM89.7392 76.5328V80.1641H78.6088L83.8261 76.5328H89.7392Z" fill="#262626"/>
<path d="M117.113 67.4721L108.487 67.5066L109.182 68.1983L117.113 68.1637C120.73 68.1637 121.53 68.8208 121.53 71.8987L121.565 79.265L122.261 79.9566L122.226 71.8987C122.226 68.1983 121.356 67.4375 117.113 67.4721Z" fill="url(#paint0_linear_962_17713)"/>
<path d="M111.965 73.9736C110.713 73.9736 109.948 74.6999 109.948 75.9103C109.948 77.0861 110.713 77.8124 111.965 77.8124H119.583V73.9736H111.965ZM111.965 76.9478C111.165 76.9478 110.783 76.602 110.783 75.8757C110.783 75.1495 111.165 74.8036 111.965 74.8036H118.748V76.9478H111.965Z" fill="url(#paint1_linear_962_17713)"/>
<path d="M122.226 71.8988C122.226 68.1984 121.357 67.4722 117.113 67.4722L108.383 67.5067V70.4809L117.113 70.4463C118.574 70.4463 118.748 70.5847 118.748 71.6913V71.8988H111.965C108.87 71.8988 107.339 73.2476 107.339 75.9105C107.339 78.5734 108.905 79.9222 112 79.9222H122.261L122.226 71.8988ZM112 79.1268C109.392 79.1268 108.174 78.1238 108.174 75.9451C108.174 73.7663 109.357 72.7634 112 72.7634H119.618V71.7259C119.618 69.7892 118.574 69.6509 117.148 69.6509L109.252 69.6855V68.3713L117.148 68.3368C120.696 68.3368 121.426 68.9247 121.426 71.9334V79.1613L112 79.1268Z" fill="url(#paint2_linear_962_17713)"/>
<path d="M52.8 67.6797L37.7739 67.7143V79.9222H41.3218V70.9651H46.2609V79.9568H49.8087V70.9651H52.6957C54.3652 70.9651 54.7826 71.3455 54.7826 72.9364V79.9568H58.3652V72.8672C58.3304 68.6826 57.2522 67.6797 52.8 67.6797ZM55.5826 79.1268V72.9364C55.5826 70.8959 54.7826 70.1351 52.6609 70.1351H48.9391V79.1268H47.0261V70.1351L40.4174 70.1697V79.1268H38.5391V68.5443L52.7652 68.5097C56.5565 68.5097 57.4957 69.3397 57.4957 72.8672V79.1268H55.5826Z" fill="url(#paint3_linear_962_17713)"/>
<path d="M52.8 67.6797L37.7739 67.7143L38.4696 68.4059L52.8348 68.3714C56.6957 68.3714 57.7044 69.2705 57.7044 72.8672V79.2651H55.5131L54.8174 79.9568H58.4V72.8672C58.3304 68.6826 57.2522 67.6797 52.8 67.6797Z" fill="url(#paint4_linear_962_17713)"/>
<path d="M52.6959 70.2734H49.1133L49.8089 70.9651H52.6959C54.3655 70.9651 54.7828 71.3455 54.7828 72.9364V79.9568L55.4785 79.2651V72.9364C55.4437 70.9651 54.7481 70.2734 52.6959 70.2734Z" fill="url(#paint5_linear_962_17713)"/>
<path d="M49.113 70.2734V79.2651H46.9217L46.2261 79.9568H49.8087V70.9651L49.113 70.2734Z" fill="url(#paint6_linear_962_17713)"/>
<path d="M46.2261 70.9651V79.9568L46.9217 79.2651V70.2734L46.2261 70.9651Z" fill="url(#paint7_linear_962_17713)"/>
<path d="M40.5913 70.308L41.287 70.9997L46.2261 70.9651L46.9217 70.2734L40.5913 70.308Z" fill="#1A1A1A"/>
<path d="M40.5914 70.3079V79.2649H38.4349L37.7393 79.9566H41.2871V70.9995L40.5914 70.3079Z" fill="url(#paint8_linear_962_17713)"/>
<path d="M121.565 79.265H112C109.287 79.265 108.035 78.2275 108.035 75.945C108.035 73.6971 109.287 72.625 112 72.625H119.478L118.783 71.9333H112C108.904 71.9333 107.374 73.2821 107.374 75.945C107.374 78.6079 108.939 79.9567 112.035 79.9567H122.296L121.565 79.265Z" fill="url(#paint9_linear_962_17713)"/>
<path d="M117.113 69.7546L109.078 69.7892L108.383 70.4809L117.113 70.4463C118.574 70.4463 118.748 70.5846 118.748 71.6913V71.8988L119.444 72.5905V71.6913C119.444 69.893 118.539 69.7546 117.113 69.7546Z" fill="url(#paint10_linear_962_17713)"/>
<path d="M118.783 74.8036V76.9478L119.478 77.6395L119.444 74.0774L118.783 74.8036Z" fill="url(#paint11_linear_962_17713)"/>
<path d="M111.965 76.9479C111.165 76.9479 110.783 76.6021 110.783 75.8758C110.783 75.1496 111.165 74.8037 111.965 74.8037H118.748L119.443 74.1121H111.965C110.783 74.1121 110.087 74.7691 110.087 75.8758C110.087 76.9825 110.783 77.6396 111.965 77.6396H119.443L118.748 76.9479H111.965Z" fill="url(#paint12_linear_962_17713)"/>
<path d="M83.8262 76.7404L83.8957 76.7058L83.8262 76.7404Z" fill="white"/>
<path d="M99.4089 68.2329L91.061 68.2675L99.4089 68.2329Z" fill="#262626"/>
<path d="M99.4089 68.2329L91.061 68.2675L99.4089 68.2329Z" fill="url(#paint13_linear_962_17713)"/>
<path d="M92.0002 68.4058L91.3394 69.7545V79.9566L92.0002 79.2649V68.4058Z" fill="#262626"/>
<path d="M92.0002 68.4058L91.3394 69.7545V79.9566L92.0002 79.2649V68.4058Z" fill="url(#paint14_linear_962_17713)"/>
<path d="M61.0433 68.4404L60.3477 67.7488V70.6192L61.0433 69.9275V68.4404Z" fill="#262626"/>
<path d="M61.0433 68.4404L60.3477 67.7488V70.6192L61.0433 69.9275V68.4404Z" fill="url(#paint15_linear_962_17713)"/>
<path d="M73.4956 79.092L74.1913 77.7779V72.0024H73.4956V79.092Z" fill="#262626"/>
<path d="M73.4956 79.092L74.1913 77.7779V72.0024H73.4956V79.092Z" fill="url(#paint16_linear_962_17713)"/>
<path d="M69.0782 68.3367V67.645H60.4521L61.1478 68.3367H69.0782Z" fill="#262626"/>
<path d="M69.0782 68.3367V67.645H60.4521L61.1478 68.3367H69.0782Z" fill="url(#paint17_linear_962_17713)"/>
<path d="M73.4955 72.0025H74.1912C74.1912 68.3366 73.3216 67.6104 69.0781 67.645V68.3366C72.7303 68.302 73.4955 68.9591 73.4955 72.0025Z" fill="#262626"/>
<path d="M73.4955 72.0025H74.1912C74.1912 68.3366 73.3216 67.6104 69.0781 67.645V68.3366C72.7303 68.302 73.4955 68.9591 73.4955 72.0025Z" fill="url(#paint18_linear_962_17713)"/>
<path d="M74.1913 72.0025C74.1913 68.3366 73.3217 67.6104 69.0782 67.645L60.4521 67.6795L61.1478 68.3712L69.0782 68.3366C72.6956 68.3366 73.4956 68.9937 73.4956 72.0025V79.092L74.1913 77.7779V72.0025Z" fill="url(#paint19_linear_962_17713)"/>
<path d="M76.3478 79.2649H63.9304C61.2174 79.2649 59.9652 78.2274 59.9652 75.9795C59.9652 73.7316 61.2174 72.6941 63.9304 72.6941H71.4087L70.713 72.0024H63.9304C60.8348 72.0024 59.2695 73.3512 59.2695 75.9795C59.2695 78.6079 60.8348 79.9566 63.9304 79.9566H76.5565L76.3478 79.2649Z" fill="url(#paint20_linear_962_17713)"/>
<path d="M71.4085 71.7949C71.4085 70.0312 70.4694 69.8928 69.0781 69.8928L61.0433 69.9274L60.3477 70.6191L69.0781 70.5845C70.539 70.5845 70.7129 70.7228 70.7129 71.7949V72.0024L71.4085 72.6941V71.7949Z" fill="#262626"/>
<path d="M71.4085 71.7949C71.4085 70.0312 70.4694 69.8928 69.0781 69.8928L61.0433 69.9274L60.3477 70.6191L69.0781 70.5845C70.539 70.5845 70.7129 70.7228 70.7129 71.7949V72.0024L71.4085 72.6941V71.7949Z" fill="url(#paint21_linear_962_17713)"/>
<path d="M71.4085 71.7949C71.4085 70.0312 70.4694 69.8928 69.0781 69.8928L61.0433 69.9274L60.3477 70.6191L69.0781 70.5845C70.539 70.5845 70.7129 70.7228 70.7129 71.7949V72.0024L71.4085 72.6941V71.7949Z" fill="url(#paint22_linear_962_17713)"/>
<path d="M70.7129 76.9824L71.4085 77.6741V74.1812L70.7129 74.8728V76.9824Z" fill="#262626"/>
<path d="M70.7129 76.9824L71.4085 77.6741V74.1812L70.7129 74.8728V76.9824Z" fill="url(#paint23_linear_962_17713)"/>
<path d="M70.7129 76.9824L71.4085 77.6741V74.1812L70.7129 74.8728V76.9824Z" fill="url(#paint24_linear_962_17713)"/>
<path d="M62.0522 75.9449C62.0522 77.0516 62.7479 77.7087 63.9305 77.7087H71.4088L70.7131 77.017H63.9305C63.1305 77.017 62.7479 76.6712 62.7479 75.9449C62.7479 75.2532 63.1653 74.8728 63.9305 74.8728H70.7131L71.4088 74.1812H63.9305C62.7479 74.1812 62.0522 74.8382 62.0522 75.9449Z" fill="#262626"/>
<path d="M62.0522 75.9449C62.0522 77.0516 62.7479 77.7087 63.9305 77.7087H71.4088L70.7131 77.017H63.9305C63.1305 77.017 62.7479 76.6712 62.7479 75.9449C62.7479 75.2532 63.1653 74.8728 63.9305 74.8728H70.7131L71.4088 74.1812H63.9305C62.7479 74.1812 62.0522 74.8382 62.0522 75.9449Z" fill="url(#paint25_linear_962_17713)"/>
<path d="M62.0522 75.9449C62.0522 77.0516 62.7479 77.7087 63.9305 77.7087H71.4088L70.7131 77.017H63.9305C63.1305 77.017 62.7479 76.6712 62.7479 75.9449C62.7479 75.2532 63.1653 74.8728 63.9305 74.8728H70.7131L71.4088 74.1812H63.9305C62.7479 74.1812 62.0522 74.8382 62.0522 75.9449Z" fill="url(#paint26_linear_962_17713)"/>
<path d="M98.9913 70.1004H94.0869L94.7826 70.792H98.9913C102.47 70.792 103.096 71.2416 103.096 73.7316C103.096 76.2216 102.47 76.7058 98.9913 76.7058H94.7826L94.0869 77.3974H98.9913C102.574 77.3974 103.791 76.8787 103.791 73.7316C103.791 70.6191 102.609 70.0658 98.9913 70.1004Z" fill="#262626"/>
<path d="M98.9913 70.1004H94.0869L94.7826 70.792H98.9913C102.47 70.792 103.096 71.2416 103.096 73.7316C103.096 76.2216 102.47 76.7058 98.9913 76.7058H94.7826L94.0869 77.3974H98.9913C102.574 77.3974 103.791 76.8787 103.791 73.7316C103.791 70.6191 102.609 70.0658 98.9913 70.1004Z" fill="url(#paint27_linear_962_17713)"/>
<path d="M98.9913 70.1004H94.0869L94.7826 70.792H98.9913C102.47 70.792 103.096 71.2416 103.096 73.7316C103.096 76.2216 102.47 76.7058 98.9913 76.7058H94.7826L94.0869 77.3974H98.9913C102.574 77.3974 103.791 76.8787 103.791 73.7316C103.791 70.6191 102.609 70.0658 98.9913 70.1004Z" fill="url(#paint28_linear_962_17713)"/>
<path d="M94.7826 70.792L94.0869 70.1003V77.3974L94.7826 76.7058V70.792Z" fill="#262626"/>
<path d="M94.7826 70.792L94.0869 70.1003V77.3974L94.7826 76.7058V70.792Z" fill="url(#paint29_linear_962_17713)"/>
<path d="M94.7826 70.792L94.0869 70.1003V77.3974L94.7826 76.7058V70.792Z" fill="url(#paint30_linear_962_17713)"/>
<path d="M84.0693 68.2676L86.2954 67.5759L76.0693 67.6105L76.765 68.3022L84.0693 68.2676Z" fill="#262626"/>
<path d="M84.0693 68.2676L86.2954 67.5759L76.0693 67.6105L76.765 68.3022L84.0693 68.2676Z" fill="url(#paint31_linear_962_17713)"/>
<path d="M76.661 68.4058L75.9653 67.7141V70.8612L76.661 70.1349V68.4058Z" fill="#262626"/>
<path d="M76.661 68.4058L75.9653 67.7141V70.8612L76.661 70.1349V68.4058Z" fill="url(#paint32_linear_962_17713)"/>
<path d="M86.2958 67.5759L84.0697 68.2676L81.3914 70.1351H76.661L75.9653 70.8613L81.6001 70.8268L86.2958 67.5759Z" fill="#1A1A1A"/>
<path d="M81.4263 79.2651L84.0698 77.4321L83.8263 76.7405L79.2002 79.9567L81.4263 79.2651Z" fill="#262626"/>
<path d="M81.4263 79.2651L84.0698 77.4321L83.8263 76.7405L79.2002 79.9567L81.4263 79.2651Z" fill="url(#paint33_linear_962_17713)"/>
<path d="M81.4263 79.2651L84.0698 77.4321L83.8263 76.7405L79.2002 79.9567L81.4263 79.2651Z" fill="url(#paint34_linear_962_17713)"/>
<path d="M83.9651 76.7058L84.1738 77.3975H88.8694L89.5651 76.7058H83.8955H83.9651Z" fill="#262626"/>
<path d="M83.9651 76.7058L84.1738 77.3975H88.8694L89.5651 76.7058H83.8955H83.9651Z" fill="url(#paint35_linear_962_17713)"/>
<path d="M83.9651 76.7058L84.1738 77.3975H88.8694L89.5651 76.7058H83.8955H83.9651Z" fill="url(#paint36_linear_962_17713)"/>
<path d="M88.8698 79.265H81.4263L79.2002 79.9566H89.5654V76.7058L88.8698 77.3975V79.265Z" fill="#262626"/>
<path d="M88.8698 79.265H81.4263L79.2002 79.9566H89.5654V76.7058L88.8698 77.3975V79.265Z" fill="url(#paint37_linear_962_17713)"/>
<path d="M88.8698 79.265H81.4263L79.2002 79.9566H89.5654V76.7058L88.8698 77.3975V79.265Z" fill="url(#paint38_linear_962_17713)"/>
<path d="M89.113 68.302L88.9043 67.6104L74.1913 77.7778L73.4956 79.092L89.113 68.302Z" fill="url(#paint39_linear_962_17713)"/>
<path d="M89.113 68.302L88.9043 67.6104L74.1913 77.7778L73.4956 79.092L89.113 68.302Z" fill="url(#paint40_linear_962_17713)"/>
<path d="M76.3477 79.2649L76.5564 79.9566L91.339 69.7545L91.9998 68.4058L76.3477 79.2649Z" fill="url(#paint41_linear_962_17713)"/>
<path d="M99.4087 67.5412L89.0435 67.5758L89.2522 68.2675L99.4087 68.2329C104.73 68.1983 105.878 69.2012 105.878 73.7316C105.878 78.262 104.73 79.265 99.4087 79.265H92L91.3043 79.9566H99.4087C105.113 79.9566 106.574 78.677 106.574 73.7316C106.574 68.7862 105.113 67.5066 99.4087 67.5412Z" fill="url(#paint42_linear_962_17713)"/>
<path d="M76.661 70.1349H81.3914L84.0697 68.2674L76.7653 68.302L76.0697 67.6104H75.9653V67.7141L76.661 68.4058V70.1349Z" fill="white"/>
<path d="M84.1741 77.3975L83.9654 76.7058H83.8958L83.8263 76.7404L84.035 77.4321L81.4263 79.2304H88.835V77.3629L84.1741 77.3975Z" fill="white"/>
<path d="M52.8001 68.3712L38.5393 68.4058L37.8436 67.7141H37.7393V67.8179L38.4349 68.5095V79.2649H40.5914V70.3079H46.9219V79.2995H49.1132V70.3079H52.6958C54.748 70.3079 55.4784 70.9995 55.4784 72.9708V79.2995H57.6697V72.9016C57.6349 69.2704 56.661 68.3712 52.8001 68.3712Z" fill="white"/>
<path d="M117.113 68.1637L109.183 68.1983L108.487 67.5066H108.383V67.6103L109.078 68.302V69.7891L117.113 69.7545C118.504 69.7545 119.443 69.8928 119.443 71.6912V72.5903H111.965C109.252 72.5903 108 73.6624 108 75.9103C108 78.1583 109.252 79.2303 111.965 79.2303H121.53L121.496 71.8641C121.53 68.8208 120.73 68.1637 117.113 68.1637ZM119.478 77.6395H112C110.817 77.6395 110.122 76.9824 110.122 75.8758C110.122 74.7691 110.817 74.112 112 74.112H119.478V77.6395Z" fill="white"/>
<path d="M99.4089 68.2328L89.2524 68.2674L89.0437 67.5757H88.9741L88.9046 67.6103L89.1133 68.3019L73.4959 79.0919V72.0024C73.4959 68.959 72.6959 68.3019 69.0785 68.3365L61.1133 68.3711L60.4176 67.6794H60.3133V67.7832L61.0089 68.4749V69.9274L69.0437 69.8928C70.435 69.8928 71.3741 70.0311 71.3741 71.7949V72.694H63.8959C61.1828 72.694 59.9307 73.7315 59.9307 75.9794C59.9307 78.2274 61.1828 79.2649 63.8959 79.2649H76.3133L92.0002 68.4057V79.2649H99.4089C104.731 79.2649 105.878 78.2965 105.878 73.7315C105.878 69.2011 104.731 68.1982 99.4089 68.2328ZM63.9307 77.7086C62.7481 77.7086 62.0524 77.0515 62.0524 75.9449C62.0524 74.8382 62.7481 74.1811 63.9307 74.1811H71.4089V77.7086H63.9307ZM98.9915 77.3974H94.0872V70.1003H98.9915C102.574 70.1003 103.792 70.619 103.792 73.7315C103.792 76.8786 102.574 77.3974 98.9915 77.3974Z" fill="white"/>
<path d="M105.739 73.7317C105.739 69.2704 104.626 68.3367 99.4087 68.3713L92.1392 68.4059V79.1267H99.4087C104.661 79.1267 105.739 78.1929 105.739 73.7317ZM93.9479 77.5359V69.9621H98.9913C102.644 69.9621 103.93 70.5154 103.93 73.7317C103.93 76.9479 102.644 77.5359 98.9913 77.5359H93.9479Z" fill="url(#paint43_linear_962_17713)"/>
<path d="M71.5475 71.795V72.8325H63.9301C61.3214 72.8325 60.104 73.8354 60.104 75.9796C60.104 78.1237 61.2866 79.1266 63.9301 79.1266H73.3562V72.0025C73.3562 69.0629 72.6257 68.4404 69.0779 68.475L61.1823 68.5096V69.7891L69.0779 69.7546C70.5388 69.7546 71.5475 69.8929 71.5475 71.795ZM71.5475 77.8125H63.9301C62.6779 77.8125 61.9127 77.0862 61.9127 75.9104C61.9127 74.7346 62.6779 74.0083 63.9301 74.0083H71.5475V77.8125Z" fill="url(#paint44_linear_962_17713)"/>
<path d="M83.6172 68.4058L76.7998 68.4403V69.9966H81.3215L83.6172 68.4058Z" fill="url(#paint45_linear_962_17713)"/>
<path d="M88.7301 79.1265V77.5356H84.1736L81.8779 79.1265H88.7301Z" fill="url(#paint46_linear_962_17713)"/>
<path d="M52.7998 68.5095L38.5737 68.5441V79.1266H40.452V70.1695L47.0607 70.1349V79.1266H48.9737V70.1349H52.6955C54.8172 70.1349 55.6172 70.8958 55.6172 72.9362V79.1266H57.5303V72.867C57.4955 69.3741 56.5911 68.5095 52.7998 68.5095Z" fill="url(#paint47_linear_962_17713)"/>
<path d="M117.113 68.302L109.217 68.3366V69.6508L117.113 69.6162C118.539 69.6162 119.583 69.7545 119.583 71.6912V72.7287H111.965C109.357 72.7287 108.139 73.7316 108.139 75.9103C108.139 78.0891 109.357 79.092 111.965 79.092H121.391V71.8641C121.391 68.8899 120.696 68.302 117.113 68.302ZM112 77.8124C110.748 77.8124 109.983 77.0862 109.983 75.9103C109.983 74.7345 110.748 74.0083 112 73.9737H119.617V77.8124H112Z" fill="url(#paint48_linear_962_17713)"/>
<path d="M91.7911 68.4058H89.2171L73.7041 79.1266H76.278L91.7911 68.4058Z" fill="url(#paint49_linear_962_17713)"/>
<path d="M117.043 67.4721L108.487 67.5067L109.182 68.1983L117.043 68.1638C120.765 68.1638 121.565 68.8208 121.565 71.8988V79.265L122.261 79.9567V71.8988C122.261 68.1638 121.391 67.4375 117.043 67.4721Z" fill="url(#paint50_linear_962_17713)"/>
<path d="M76.3478 79.2649H63.9304C61.2174 79.2649 59.9652 78.2274 59.9652 75.9795C59.9652 73.7316 61.2174 72.6941 63.9304 72.6941H71.4087L70.713 72.0024H63.9304C60.8348 72.0024 59.2695 73.3512 59.2695 75.9795C59.2695 78.6079 60.8348 79.9566 63.9304 79.9566H76.5565L76.3478 79.2649Z" fill="url(#paint51_linear_962_17713)"/>
<path opacity="0.5" d="M52.7998 67.6794V68.3711C56.6607 68.3711 57.6694 69.2703 57.6694 72.8669H58.365C58.3302 68.6824 57.252 67.6794 52.7998 67.6794Z" fill="url(#paint52_linear_962_17713)"/>
<path opacity="0.5" d="M117.113 67.4721V68.1637C120.73 68.1637 121.53 68.8208 121.53 71.8987H122.226C122.226 68.1983 121.356 67.4375 117.113 67.4721Z" fill="url(#paint53_linear_962_17713)"/>
<path opacity="0.5" d="M111.965 71.8987C108.869 71.8987 107.339 73.2474 107.339 75.9104H108.035C108.035 73.6624 109.287 72.5903 112 72.5903L111.965 71.8987Z" fill="url(#paint54_linear_962_17713)"/>
<path opacity="0.5" d="M73.4955 72.0025H74.1912C74.1912 68.3366 73.3216 67.6104 69.0781 67.645V68.3366C72.7303 68.302 73.4955 68.9591 73.4955 72.0025Z" fill="url(#paint55_linear_962_17713)"/>
<path opacity="0.5" d="M63.9304 72.7288V72.0371C60.8348 72.0371 59.2695 73.3859 59.2695 76.0142H59.9652C59.9652 73.7663 61.2174 72.7288 63.9304 72.7288Z" fill="url(#paint56_linear_962_17713)"/>
<path opacity="0.5" d="M105.878 73.7316H106.574C106.574 68.7862 105.113 67.5066 99.4087 67.5412V68.2329C104.73 68.1983 105.878 69.2012 105.878 73.7316Z" fill="url(#paint57_linear_962_17713)"/>
<path d="M80.035 59.7599C68.3133 59.7599 58.7133 57.097 52.9393 52.2899C47.3393 47.6212 44.4524 40.7045 44.1046 31.1595C43.7915 22.3408 47.4437 13.937 53.6002 9.26827C59.4785 4.8416 67.8263 2.7666 79.8611 2.7666C92.2785 2.7666 100.661 4.8416 106.296 9.30285C112.278 14.0408 116 22.652 115.722 31.2287C115.444 40.7737 112.592 47.4483 106.783 52.2208C100.905 57.097 91.3741 59.7599 80.035 59.7599ZM80.0002 6.84743C76.7306 6.84743 73.5654 7.1241 71.1306 7.60827C67.0263 8.43827 64.8698 9.30285 61.948 11.2741C54.3654 16.3579 52.7654 24.7616 52.7654 30.9174C52.7654 40.3241 55.9306 47.137 62.1567 51.2524C66.0176 53.777 71.548 54.9183 80.035 54.9183C87.9306 54.9183 92.8002 53.9153 97.3219 51.287C101.809 48.7278 107.131 43.0908 107.131 30.8829C107.131 21.8912 104.07 15.3204 98.0176 11.3087C95.1654 9.44118 93.3567 8.5766 88.8002 7.64285C86.4002 7.1241 83.2698 6.84743 80.0002 6.84743Z" fill="white"/>
<path d="M80.1393 44.1282C79.5828 44.1282 79.4437 43.7823 78.9219 42.6411C78.6785 42.1223 78.3654 41.3615 77.8437 40.324C75.7219 36.1394 72.035 32.7503 67.6872 31.0211C66.4698 30.5369 64.7654 30.0182 63.1306 29.5686H63.0959C59.7567 28.5657 55.9654 27.459 53.0785 25.7644L52.9741 23.9661V19.4357L56.035 17.3953C56.2089 17.5336 57.7046 18.4673 59.7915 19.4011C60.7306 19.8161 61.7741 20.2657 62.8524 20.7498L62.9219 20.7844C66.5393 22.3753 70.6437 24.1736 72.3132 25.3494C75.0959 27.3207 77.6698 30.2603 79.4089 33.3382C79.6524 33.7878 79.8611 33.9261 79.9654 33.9261C80.0698 33.9261 80.2785 33.7878 80.5567 33.3036C82.2959 29.9144 85.3915 26.8019 87.6872 25.2111C89.9132 23.6894 93.6698 22.2023 96.9741 20.8882H97.0089C98.5393 20.2657 99.9654 19.7123 101.078 19.1936C102.783 18.3982 103.931 17.6373 104.035 17.5682L106.922 19.3319V23.9661L106.818 25.6607C104.87 26.8019 103.687 27.459 98.9219 28.6694L98.6785 28.7386C90.0176 30.9173 84.4872 34.8253 82.2263 40.324C81.948 40.9811 81.7393 41.569 81.5654 42.0186L81.5306 42.1223C81.0785 43.4711 80.835 44.1282 80.1393 44.1282Z" fill="white"/>
<path fill-rule="evenodd" clip-rule="evenodd" d="M71.8262 54.5379C64.3132 53.5004 52.7306 49.5579 52.7306 30.6062C52.7306 19.7817 57.6001 6.81291 80.0349 6.81291C100.278 6.81291 107.2 17.6375 107.2 30.5717C107.2 48.4167 96.8001 53.0854 88.2436 54.4688C84.0697 55.1258 76.7306 55.195 71.8262 54.5379ZM112.104 30.71C112.104 16.2542 105.252 4.28833 80.1045 4.28833C53.6697 4.28833 48.1045 18.7787 48.1045 30.71C48.1045 50.6992 61.6001 55.5754 71.4088 56.7167C76.3828 57.3046 83.5827 57.27 88.1741 56.7167C97.9132 55.6446 112.104 50.8029 112.104 30.71Z" fill="url(#paint58_linear_962_17713)"/>
<path fill-rule="evenodd" clip-rule="evenodd" d="M71.8262 54.5379C64.3132 53.5004 52.7306 49.5579 52.7306 30.6062C52.7306 19.7817 57.6001 6.81291 80.0349 6.81291C100.278 6.81291 107.2 17.6375 107.2 30.5717C107.2 48.4167 96.8001 53.0854 88.2436 54.4688C84.0697 55.1258 76.7306 55.195 71.8262 54.5379ZM112.104 30.71C112.104 16.2542 105.252 4.28833 80.1045 4.28833C53.6697 4.28833 48.1045 18.7787 48.1045 30.71C48.1045 50.6992 61.6001 55.5754 71.4088 56.7167C76.3828 57.3046 83.5827 57.27 88.1741 56.7167C97.9132 55.6446 112.104 50.8029 112.104 30.71Z" fill="url(#paint59_linear_962_17713)"/>
<path fill-rule="evenodd" clip-rule="evenodd" d="M80.139 4.73779V6.53613C59.6869 6.57071 52.6956 17.3261 52.6956 30.9865C52.6956 43.4365 58.0869 49.7307 64.2086 52.5665C71.0608 55.7482 79.0608 55.1949 75.3043 56.6128C74.3999 56.9586 73.6347 57.5465 70.3304 57.1315C60.5912 55.9903 48.1738 51.2178 48.1738 31.1249C48.2086 16.7036 55.026 4.73779 80.139 4.73779Z" fill="url(#paint60_linear_962_17713)"/>
<path fill-rule="evenodd" clip-rule="evenodd" d="M115.548 31.2978C115.548 38.9753 112.939 46.964 106.713 52.0824C100.174 57.4428 90.0525 59.7253 79.8959 59.7253C69.0438 59.7253 59.6525 57.6848 52.5568 51.7711C46.922 47.0678 44.209 38.664 44.209 31.2286C44.209 23.1361 46.8177 14.5249 53.6699 9.33736C59.9307 4.56486 71.0959 2.83569 79.8612 2.83569C89.9133 2.83569 99.6872 4.46111 106.192 9.64861C112.557 14.6632 115.548 23.3436 115.548 31.2978ZM111.966 31.0211C111.966 17.6028 104.105 4.59944 79.9655 4.59944C53.5307 4.59944 47.9655 19.0899 47.9655 31.0211C47.9655 51.3907 61.9829 56.0594 71.8264 57.0969C77.1481 57.6503 82.4699 57.7194 88.3133 57.0624C94.122 56.4744 111.966 52.6011 111.966 31.0211Z" fill="url(#paint61_linear_962_17713)"/>
<path opacity="0.74" fill-rule="evenodd" clip-rule="evenodd" d="M48.6955 24.4158C49.9129 20.9229 51.4434 15.1821 55.9651 11.1704C61.0434 6.6746 69.9825 5.08376 72.626 4.8071C71.6173 4.21918 71.0608 4.08085 69.5651 3.59668C62.226 4.66876 55.9999 6.6746 51.5477 11.3433C47.0955 15.9775 45.2173 21.8221 44.626 25.6954C46.1564 25.1421 46.7825 25.0038 48.6955 24.4158Z" fill="url(#paint62_linear_962_17713)"/>
<path fill-rule="evenodd" clip-rule="evenodd" d="M79.7218 5.80981C88.2436 5.80981 96.3827 7.26231 101.461 13.764C93.6696 4.14981 67.3044 3.94231 58.6436 13.764C63.7218 7.98856 71.2001 5.80981 79.7218 5.80981Z" fill="url(#paint63_linear_962_17713)"/>
<path fill-rule="evenodd" clip-rule="evenodd" d="M80.0348 55.8175C70.7131 55.8175 65.2522 54.6417 60.5565 50.3879C59.9652 49.8692 60 49.9038 60.6609 50.3533C62.0174 51.3217 63.6522 52.3592 65.4609 53.0508C69.7391 54.6417 75.0957 55.0913 80.0348 55.0913C84.9739 55.0913 89.287 54.5725 93.0783 53.3967C95.8261 52.5321 97.9826 51.0104 99.8957 49.5925C100.591 49.0738 100.661 49.1083 100.035 49.6617C94.9217 54.0538 88.9391 55.8175 80.0348 55.8175Z" fill="url(#paint64_linear_962_17713)"/>
<path fill-rule="evenodd" clip-rule="evenodd" d="M112.974 43.5749C113.426 42.6066 113.391 42.6758 113.565 42.0533C113.635 41.7766 113.496 42.2262 113.322 42.572C113.078 43.0216 113.148 42.987 112.765 43.5058C112.383 44.0245 112.278 44.0937 111.583 44.5087C111.026 44.8545 110.33 45.062 109.252 45.6845C108.974 45.8229 108.835 45.9612 108.278 46.6874C107.861 47.2062 107.409 47.8287 107.2 48.1054C106.504 48.9008 104.626 50.4224 103.583 51.3216C102.678 52.117 102.991 52.1516 104.243 51.7366C105.391 51.3562 107.061 50.6645 108.07 50.2495C108.696 50.0074 109.217 49.5579 109.426 49.3158C110.678 47.7941 112.104 45.477 112.974 43.5749Z" fill="url(#paint65_linear_962_17713)"/>
<path opacity="0.9" fill-rule="evenodd" clip-rule="evenodd" d="M48.1044 31.0212C48.1044 24.5541 50.4 16.1503 55.9305 11.2395C61.0087 6.74368 69.7044 5.08368 72.3479 4.77243C71.3392 4.18451 70.7826 4.04618 69.287 3.56201C61.9479 4.63409 55.687 6.77826 51.2348 11.4124C46.4696 16.3578 44.2783 24.5195 44.1392 29.9491C45.4609 30.3295 46.4348 30.6062 48.1044 31.0212Z" fill="url(#paint66_linear_962_17713)"/>
<path d="M80.0001 6.84749C83.2697 6.84749 86.4001 7.12415 88.8001 7.60832C93.3567 8.54207 95.2001 9.37207 98.0175 11.2742C104.07 15.2858 107.131 21.8912 107.131 30.8483C107.131 43.0562 101.809 48.6933 97.3219 51.2525C92.7654 53.8462 87.9306 54.8837 80.0349 54.8837C71.5132 54.8837 66.0175 53.7425 62.1567 51.2179C55.9306 47.1371 52.7654 40.2896 52.7654 30.9175C52.7654 24.7617 54.3654 16.3579 61.948 11.2742C64.9045 9.3029 67.0262 8.43832 71.1306 7.60832C73.5654 7.12415 76.7306 6.84749 80.0001 6.84749ZM80.0001 6.77832C76.8349 6.77832 73.6349 7.0204 71.1306 7.53915C67.061 8.36915 64.8697 9.23374 61.9132 11.205C54.748 16.0121 52.6958 23.8971 52.6958 30.9175C52.6958 40.5662 55.9654 47.2408 62.1219 51.2871C66.5741 54.2266 72.9741 54.9529 80.0349 54.9529C87.3045 54.9529 92.4871 54.1229 97.3567 51.3216C102.991 48.0708 107.2 41.7075 107.2 30.8483C107.2 22.5483 104.522 15.4933 98.0523 11.205C95.1306 9.26832 93.2871 8.4729 88.8001 7.53915C86.3306 7.05499 83.1654 6.77832 80.0001 6.77832Z" fill="#231F20"/>
<path d="M80.0002 6.77823C83.1655 6.77823 86.3307 7.02031 88.8002 7.53906C93.2872 8.47281 95.1307 9.26823 98.0524 11.2049C104.522 15.4932 107.2 22.5482 107.2 30.8482C107.2 41.7074 102.992 48.0707 97.3568 51.3216C92.4872 54.1228 87.3046 54.9528 80.035 54.9528C72.9741 54.9528 66.5741 54.2266 62.122 51.287C55.9655 47.2407 52.6959 40.5316 52.6959 30.9174C52.6959 23.897 54.7133 16.012 61.9133 11.2049C64.8698 9.23364 67.0611 8.36906 71.1307 7.53906C73.635 7.05489 76.835 6.77823 80.0002 6.77823ZM80.0002 6.63989C76.6959 6.63989 73.5307 6.91656 71.0959 7.40073C66.9568 8.23073 64.8002 9.09531 61.8089 11.1011C54.1568 16.2195 52.522 24.727 52.522 30.9174C52.522 40.3932 55.722 47.3099 62.0176 51.4253C65.9133 53.9845 71.4785 55.1257 80.035 55.1257C88.0002 55.1257 92.8698 54.0882 97.4611 51.4599C101.983 48.8661 107.374 43.1599 107.374 30.8482C107.374 21.7874 104.278 15.1474 98.1568 11.0666C95.3046 9.16448 93.4611 8.33448 88.835 7.36614C86.435 6.88198 83.3046 6.63989 80.0002 6.63989Z" fill="#6D6E70"/>
<path d="M79.8613 2.83577C90.2961 2.83577 99.8613 4.28827 106.261 9.37202C112.661 14.4558 115.896 23.3783 115.653 31.2287C115.374 40.082 112.974 47.0333 106.748 52.1862C100.209 57.5466 90.157 59.7253 80.0353 59.7253C69.8439 59.7253 59.4787 57.7195 52.9744 52.2899C47.0266 47.3099 44.4874 40.0129 44.1744 31.2287C43.8613 22.5829 47.3396 14.1791 53.67 9.37202C60.6613 4.04619 70.6092 2.83577 79.8613 2.83577ZM79.8613 2.7666C67.8266 2.7666 59.4787 4.8416 53.6352 9.26827C47.4439 13.9716 43.8266 22.3408 44.1048 31.1941C44.4526 40.7391 47.3396 47.6558 52.9396 52.3245C58.7135 57.1316 68.3135 59.7945 80.0353 59.7945C91.3744 59.7945 100.905 57.1316 106.818 52.2554C112.627 47.4829 115.479 40.8083 115.757 31.2633C116 22.6866 112.314 14.1099 106.331 9.33743C100.696 4.8416 92.2787 2.7666 79.8613 2.7666Z" fill="#231F20"/>
<path d="M79.8608 3.00861C92.2086 3.00861 100.556 5.08361 106.156 9.51028C112.104 14.2136 115.756 22.7557 115.478 31.2286C115.2 40.7044 112.383 47.3099 106.609 52.0478C100.73 56.8894 91.3043 59.5523 79.9999 59.5523C68.3478 59.5523 58.7825 56.924 53.0434 52.1515C47.513 47.5174 44.626 40.6699 44.313 31.194C43.9999 22.4444 47.6173 14.1444 53.7391 9.47569C59.5825 5.04903 67.8608 3.00861 79.8608 3.00861ZM79.8608 2.83569C70.6086 2.83569 60.6608 4.01153 53.6695 9.33736C47.3391 14.1444 43.8956 22.5136 44.1739 31.194C44.4869 40.0128 47.026 47.3099 52.9739 52.2553C59.4782 57.6849 69.8434 59.6907 80.0347 59.6907C90.1565 59.6907 100.243 57.5465 106.748 52.1515C112.974 47.0332 115.409 40.0819 115.652 31.194C115.896 23.3436 112.661 14.4211 106.261 9.33736C99.8608 4.28819 90.3304 2.83569 79.8608 2.83569Z" fill="#59595C"/>
<path opacity="0.2" fill-rule="evenodd" clip-rule="evenodd" d="M98.3652 7.91943C99.8609 8.12693 105.322 9.30277 107.13 10.4094C108.87 11.4815 108.591 11.5161 108.591 11.5161L105.322 12.7611C105.357 12.7265 103.061 10.1674 98.3652 7.91943Z" fill="url(#paint67_linear_962_17713)"/>
<path opacity="0.2" fill-rule="evenodd" clip-rule="evenodd" d="M61.2525 7.81587C58.0177 8.57671 53.6699 9.68338 51.9655 10.79C51.1655 11.3088 48.9395 14.2138 48.9395 14.2138L52.1047 11.62C53.6351 11.205 53.7047 11.1359 54.8873 10.8592C56.209 10.548 56.9395 10.4442 58.3655 9.47587C59.7916 8.50754 64.4873 7.05504 61.2525 7.81587Z" fill="url(#paint68_linear_962_17713)" fill-opacity="0.42"/>
<path d="M80.1043 57.7542C76.9391 57.7542 73.6348 57.5121 69.8087 57.0279C61.6 55.9558 47.8608 51.1488 47.8608 30.9867C47.8608 19.1246 53.6 10.2367 63.6174 6.64C67.9652 5.08375 73.4956 4.28833 80.1043 4.28833C91.9652 4.28833 100.417 7.15875 105.983 13.0725C110.157 17.5337 112.174 23.3783 112.174 30.9175C112.174 50.0075 99.5478 55.6792 88.9739 57.0971C85.8087 57.5467 82.9913 57.7542 80.1043 57.7542ZM80.0695 4.7725C73.5304 4.7725 68.0348 5.56791 63.7565 7.08958C53.9478 10.6171 48.313 19.2975 48.313 30.9521C48.313 49.7308 60.0348 55.2296 69.8435 56.5092C77.1478 57.4775 82.3304 57.5121 88.8695 56.6475C99.2695 55.2642 111.652 49.6617 111.652 30.9175C111.652 23.4821 109.67 17.7412 105.565 13.3837C100.139 7.60833 91.7913 4.7725 80.0695 4.7725Z" fill="white"/>
<path opacity="0.5" d="M80.1047 57.8232C76.9047 57.8232 73.6351 57.5811 69.7742 57.0969C63.7568 56.3015 58.8525 54.1919 55.2003 50.8373C50.2612 46.3069 47.7568 39.6323 47.7568 30.9865C47.7568 19.0898 53.5307 10.1673 63.5829 6.57066C67.9308 5.01441 73.496 4.21899 80.1047 4.21899C92.0003 4.21899 100.452 7.08941 106.018 13.0377C110.226 17.499 112.244 23.3782 112.244 30.9519C112.244 50.0765 99.5829 55.8173 88.9742 57.2352C85.809 57.6157 82.9916 57.8232 80.1047 57.8232ZM80.0699 4.35733C73.496 4.35733 67.9307 5.15274 63.6177 6.70899C53.6351 10.2711 47.9307 19.1244 47.9307 30.9519C47.9307 39.5632 50.4003 46.2032 55.3394 50.699C58.9916 54.0536 63.8612 56.1286 69.8438 56.924C73.6699 57.4427 76.9394 57.6502 80.1394 57.6502C83.0264 57.6502 85.8438 57.4427 88.9742 57.0277C99.5481 55.6098 112.105 49.9382 112.105 30.9173C112.105 23.3782 110.087 17.5682 105.913 13.1069C100.348 7.22774 91.896 4.35733 80.0699 4.35733Z" fill="#BCBDBF"/>
<path fill-rule="evenodd" clip-rule="evenodd" d="M46.7133 42.6411C46.922 43.0907 47.1307 43.7823 47.9655 44.1282C48.6264 44.4048 49.1481 44.6469 49.7742 44.889C50.8177 45.304 51.6177 46.6873 52.2786 47.5519C52.9394 48.4165 55.0612 50.3877 56.1394 51.2523C57.7394 52.5319 60.6264 54.2611 62.8873 55.1602C63.0612 55.2294 69.1481 57.754 68.4525 58.3419C68.2438 58.5148 62.6438 56.924 62.4003 56.8548C57.6003 55.4023 52.522 52.4973 49.1481 47.6902C48.696 47.0332 46.9916 43.9898 46.6438 42.7794C46.4003 41.984 46.4351 42.0532 46.7133 42.6411Z" fill="url(#paint69_linear_962_17713)"/>
<path opacity="0.9" fill-rule="evenodd" clip-rule="evenodd" d="M111.27 24.4849C110.052 20.992 108.522 15.2512 104 11.2395C98.922 6.74369 89.9828 5.15285 87.3394 4.87619C88.3481 4.28827 88.9046 4.14994 90.4002 3.66577C97.7394 4.73785 104 6.88202 108.452 11.5162C112.174 15.4241 113.844 19.9891 114.678 23.6895C113.426 24.0699 112.974 24.0699 111.27 24.4849Z" fill="url(#paint70_linear_962_17713)"/>
<path d="M90.1912 26.6292C90.1565 26.6292 90.1217 26.6638 90.1217 26.6638C88.4173 27.4938 80.2434 36.4163 80.0347 36.6238C79.826 36.8313 71.0956 29.7763 70.9217 29.4996C70.7478 29.2229 55.8956 23.8971 55.8956 23.8971L52.313 23.5859C52.313 23.5859 52.5565 24.5196 53.4956 25.7992C57.2173 28.1509 64.626 29.7417 68.4521 31.2634C73.0782 33.1309 76.313 37.3154 78.0173 40.3242C79.1652 42.33 79.3739 44.0938 80.1739 44.0938C80.9739 44.0938 81.3912 42.2263 81.9478 41.0159C84.5565 35.0329 87.7565 31.4709 98.9912 28.635C105.913 26.9059 106.922 25.4534 106.922 25.4534L108.417 21.9604C108.313 21.9604 92.2782 25.6954 90.1912 26.6292Z" fill="url(#paint71_linear_962_17713)"/>
<path fill-rule="evenodd" clip-rule="evenodd" d="M51.6872 22.4792C52.2785 24.0354 53.2872 25.7646 53.2872 25.7646C53.2872 25.7646 55.0264 26.6638 57.2177 27.39C62.1916 29.0154 68.4872 29.9492 70.2959 30.8138C76.8351 33.9263 78.3307 36.8313 79.8611 39.3904C79.2003 37.6958 78.609 36.1396 76.2438 33.2346C72.8698 29.05 70.6785 28.0817 65.809 26.2833C64.1394 25.6608 61.809 24.7617 58.9916 23.7242C56.1742 22.6867 52.6264 20.8192 50.4351 19.3667C50.4351 19.3321 51.2003 21.2342 51.6872 22.4792Z" fill="url(#paint72_linear_962_17713)"/>
<path fill-rule="evenodd" clip-rule="evenodd" d="M84.2086 28.4275C85.5303 26.9404 86.5738 25.9375 89.0434 24.485C93.6347 21.7529 100.8 20.3004 105.565 16.6346C108.73 14.2137 109.635 12.9688 109.635 12.9688C109.635 12.9688 109.982 14.0063 110.017 15.355C110.052 16.1158 110.122 16.8421 110.017 17.6721C109.913 18.4675 109.739 19.1246 109.739 19.1592C107.513 20.6463 104.417 22.3754 101.565 23.4129C98.7129 24.485 96.0347 25.3842 94.3303 26.0067C86.9912 28.7387 83.826 32.8542 81.426 37.1079C80.3129 39.0792 80.0347 39.3558 80.0347 39.3212C80.0347 39.2521 80.0347 34.6525 80.0347 33.9608C80.1042 33.9608 80.139 33.9608 80.4868 33.4075C81.1129 32.4046 82.539 30.295 84.2086 28.4275Z" fill="url(#paint73_linear_962_17713)"/>
<path fill-rule="evenodd" clip-rule="evenodd" d="M109.496 19.3666C107.304 20.8191 103.513 22.5829 100.696 23.6204C97.8784 24.6579 96.2088 25.1074 94.5393 25.7299C89.8436 27.4591 86.8175 29.2574 83.3741 33.5458C81.0088 36.4508 80.661 38.007 80.1045 39.2866C80.1045 40.0474 80.1393 43.9208 80.1393 43.9208C80.1393 43.9208 80.3828 43.9553 80.5914 43.6787C80.661 43.5403 80.5914 42.2953 80.5914 41.3962C80.5914 40.6353 80.6262 40.4278 81.0436 39.7016C81.3567 39.1137 81.7045 38.4912 81.948 38.1108C83.9306 35.0674 87.6523 32.7503 91.3045 31.0212C94.5045 29.4995 99.3045 28.4966 102.504 27.4245C104.696 26.6983 106.748 25.6954 106.748 25.6954C106.748 25.6954 107.583 24.4849 108.174 22.9287C108.661 21.6145 109.531 19.332 109.496 19.3666Z" fill="url(#paint74_linear_962_17713)"/>
<path fill-rule="evenodd" clip-rule="evenodd" d="M79.3043 33.5457C79.6173 34.099 79.8956 34.0644 80.0347 34.0644C80.0347 34.8944 80.0695 39.2865 80.0695 39.3902C80.0695 39.4248 79.9652 39.1136 78.8521 37.1077C74.4347 29.2573 70.1913 27.7357 66.1913 26.2486C64.4869 25.6261 61.3565 24.4157 58.5043 23.3436C55.6521 22.2715 52.4521 20.4732 50.226 19.0207C50.0869 18.9515 50.2608 18.4673 50.1565 17.6719C50.0521 16.8073 50.0869 15.8736 50.1217 15.1127C50.1565 13.764 50.4347 12.7957 50.4347 12.7957C50.4347 12.7957 51.9304 14.9052 55.3043 17.0494C57.3565 18.3636 59.8956 19.6777 62.3652 20.7152C65.3565 21.9602 68.4173 23.2744 70.9217 24.7615C73.3913 26.214 74.6782 27.459 76 28.9461C77.6695 30.8136 78.6782 32.439 79.3043 33.5457Z" fill="url(#paint75_linear_962_17713)"/>
<path fill-rule="evenodd" clip-rule="evenodd" d="M73.2871 26.387C75.3045 28.4965 76.2089 29.4995 77.6002 32.1624C78.5741 33.9953 78.748 34.1336 79.9654 38.8024L79.6871 34.2374C79.6871 34.2374 78.0175 31.6436 76.9741 30.3295C75.9306 29.0153 74.4697 27.3899 73.2871 26.387Z" fill="#444746"/>
<path d="M80.1394 44.1283C79.5828 44.1283 79.4089 43.7825 78.922 42.6412C78.6785 42.0879 78.3307 41.327 77.8437 40.3241C75.722 36.1395 72.035 32.7504 67.6872 31.0212C66.4698 30.537 64.8698 30.0529 63.1307 29.5687C59.7568 28.5658 55.9655 27.4591 53.1133 25.7645L53.1828 25.6262C56.035 27.3208 59.8263 28.4275 63.1655 29.4304C64.8698 29.9491 66.5046 30.4333 67.722 30.9175C72.1046 32.6812 75.8263 36.0704 77.9481 40.2895C78.4698 41.2925 78.7828 42.0533 79.0263 42.6066C79.5481 43.7825 79.6524 43.99 80.1046 43.99C80.6959 43.99 80.9046 43.402 81.3915 42.0879C81.5655 41.6037 81.7742 40.9812 82.0872 40.2895C83.5481 36.7275 86.3655 33.7879 90.5394 31.5745C93.8785 29.8108 97.1133 28.9808 98.6437 28.6004L98.8872 28.5312C103.652 27.3208 104.8 26.6291 106.748 25.5225L106.818 25.6608C104.87 26.802 103.687 27.4591 98.922 28.7041L98.6785 28.7733C90.0176 30.952 84.4872 34.86 82.2263 40.3587C81.9481 41.0504 81.7394 41.6729 81.5655 42.157C81.0785 43.4712 80.835 44.1283 80.1394 44.1283Z" fill="#231F20"/>
<path d="M80.1391 43.99C79.6174 43.99 79.4782 43.6442 78.9565 42.5375C78.713 41.9842 78.3652 41.1888 77.8435 40.1513C75.7217 35.9667 72.0348 32.5775 67.6869 30.8484C66.5043 30.3642 64.9043 29.9146 63.2 29.4304C59.8261 28.4621 55.9652 27.3554 53.0435 25.5571L53.0782 25.4879C56 27.2863 59.8261 28.3929 63.2 29.3613C64.9043 29.8454 66.5043 30.295 67.6869 30.7792C72.0348 32.5084 75.7565 35.9321 77.8782 40.1167C78.4 41.1542 78.7478 41.915 78.9913 42.5029C79.4782 43.6096 79.6174 43.9209 80.1043 43.9209C80.7304 43.9209 80.9391 43.2984 81.3913 42.0188C81.5652 41.5 81.8087 40.8775 82.0869 40.1167C83.5478 36.5546 86.3652 33.6496 90.5043 31.4363C93.8435 29.6725 97.0435 28.8425 98.6087 28.4621L98.8522 28.3929C103.652 27.1825 104.939 26.4909 106.887 25.3496L106.922 25.4188C105.043 26.4909 103.652 27.2171 98.8869 28.4621L98.6435 28.5313C89.9478 30.7446 84.4174 34.6525 82.1565 40.1513C81.8435 40.8775 81.6348 41.5346 81.4608 42.0188C81.0435 43.3675 80.8 43.99 80.1391 43.99Z" fill="#6E6E71"/>
<path d="M80.035 39.4595C79.9306 39.4595 79.8611 39.3903 79.8263 39.3212C79.8263 39.2866 78.8176 37.0041 76.835 34.2028C75.548 32.4045 74.2263 31.1941 73.0785 30.1566L73.0089 30.0874C71.8958 29.0845 70.5741 28.0816 66.6437 26.5945C66.0176 26.3524 65.148 26.0412 64.2089 25.6953C62.1219 24.9345 59.548 24.0008 58.2611 23.4474C57.4958 23.1016 56.9045 22.8595 56.4176 22.652C54.3654 21.7874 54.0176 21.6145 50.4002 19.3666C50.2958 19.2974 50.2611 19.1591 50.3306 19.0208C50.4002 18.917 50.5393 18.8824 50.6785 18.9516C54.2611 21.1995 54.6089 21.3378 56.6263 22.2024C57.1132 22.4099 57.7045 22.652 58.4698 22.9978C59.7567 23.5512 62.3306 24.4849 64.4176 25.2458C65.3567 25.5916 66.2263 25.9028 66.8524 26.1449C70.8871 27.6666 72.2437 28.7041 73.3915 29.7416C74.5741 30.8137 75.9306 32.0241 77.2176 33.857C78.6785 35.932 79.6176 37.7303 80.035 38.5603C80.4176 37.7303 81.2871 35.932 82.9219 33.7187C84.3132 31.8166 85.948 30.122 87.6176 28.8424C89.5306 27.3899 91.7567 26.4562 93.9132 25.6608C95.2698 25.142 96.3132 24.7962 97.3567 24.4158C99.2698 23.7587 100.905 23.2053 103.409 22.0641C107.513 20.1966 109.357 18.917 109.391 18.8824C109.496 18.8133 109.635 18.8478 109.739 18.9516C109.809 19.0553 109.774 19.2283 109.67 19.2974C109.6 19.3666 107.757 20.6116 103.618 22.5137C101.078 23.6549 99.4437 24.2428 97.5306 24.8999C96.4871 25.2458 95.4089 25.6262 94.0871 26.1449C92.0002 26.9403 89.7741 27.8395 87.9306 29.2574C86.2611 30.537 84.6611 32.197 83.3045 34.0645C81.148 37.0387 80.2785 39.2866 80.2785 39.3212C80.2437 39.3903 80.1393 39.4249 80.035 39.4595Z" fill="white"/>
<path d="M79.9652 34.2375C79.7565 34.2375 79.513 33.9954 79.2695 33.5458C77.5652 30.4679 74.9912 27.5975 72.2086 25.6263C70.5391 24.4504 66.4347 22.6175 62.7825 21.0267C61.7043 20.5425 60.6608 20.0929 59.7217 19.6779C57.4956 18.675 55.7565 17.5338 55.7217 17.4992L55.826 17.3608C55.8608 17.3608 57.5999 18.5367 59.7912 19.505C60.7304 19.92 61.7391 20.3696 62.8521 20.8538C66.5043 22.4446 70.6434 24.2775 72.313 25.4533C75.0956 27.4246 77.6695 30.3642 79.4086 33.4421C79.6521 33.8917 79.8608 34.03 79.9652 34.03C80.0695 34.03 80.2782 33.8917 80.5217 33.4075C82.2608 30.0183 85.3565 26.9058 87.6521 25.315C89.8782 23.7933 93.6347 22.3063 96.9391 20.9575C98.4695 20.335 99.9304 19.7817 101.009 19.2629C102.783 18.4329 104.209 17.4646 104.243 17.4646L104.348 17.6029C104.348 17.6029 102.887 18.6058 101.078 19.4013C99.9652 19.92 98.5391 20.4733 96.9738 21.0958C93.6695 22.41 89.913 23.8971 87.7217 25.4188C85.426 26.975 82.3652 30.0875 80.626 33.4421C80.4521 33.9608 80.2086 34.2375 79.9652 34.2375Z" fill="#6E6E71"/>
<path d="M79.9654 34.0645C79.7567 34.0645 79.5133 33.8224 79.2698 33.3728C77.5654 30.2949 74.9915 27.4245 72.2089 25.4533C70.5394 24.2774 66.435 22.4445 62.7828 20.8537C61.7046 20.3695 60.6611 19.9199 59.722 19.5049C57.4959 18.502 55.9654 17.4991 55.9307 17.4645L56.035 17.3262C56.035 17.3262 57.6002 18.3637 59.7915 19.332C60.7307 19.747 61.7394 20.1966 62.8524 20.6808C66.5046 22.2716 70.6437 24.1045 72.3133 25.2803C75.0959 27.2516 77.6698 30.1912 79.4089 33.2691C79.6524 33.7187 79.8611 33.857 79.9654 33.857C80.0698 33.857 80.2785 33.7187 80.522 33.2345C82.2611 29.8453 85.3567 26.7328 87.6524 25.142C89.8785 23.6203 93.635 22.1333 96.9394 20.8191C98.4698 20.1966 99.9307 19.6433 101.009 19.1245C102.783 18.2945 103.931 17.4991 103.965 17.4991L104.07 17.6374C104.07 17.6374 102.887 18.4674 101.078 19.2628C99.9654 19.7816 98.5393 20.3349 96.9741 20.9574C93.6698 22.2716 89.9133 23.7587 87.722 25.2803C85.4263 26.8366 82.3654 29.9491 80.6263 33.3037C80.4524 33.8224 80.2089 34.0645 79.9654 34.0645Z" fill="#231F20"/>
<path d="M80.0697 38.5257L79.9653 34.272H80.1392L80.0697 38.5257Z" fill="white"/>
<path d="M54.922 12.7264C57.2872 10.271 60.2438 8.33434 63.7568 7.08934C68.0351 5.56767 73.5307 4.77225 80.0698 4.77225C91.4438 4.77225 99.6525 7.43517 105.113 12.9339C105.113 12.9339 105.183 13.0031 105.252 13.0377C105.357 12.9685 105.6 12.761 105.635 12.761C105.566 12.6918 105.496 12.6227 105.496 12.6227C99.9307 7.02017 91.6177 4.28809 80.0698 4.28809C73.4611 4.28809 67.9307 5.0835 63.5829 6.63975C59.9655 7.91934 56.9046 9.92517 54.4698 12.4843L54.4351 12.5189C54.4698 12.5535 54.5394 12.5881 54.609 12.6227C54.6785 12.6918 54.7829 12.761 54.8524 12.7956C54.8872 12.7956 54.922 12.7264 54.922 12.7264Z" fill="white"/>
<path d="M105.218 13.1415L105.183 13.1069C105.148 13.0723 105.113 13.0377 105.078 13.0032L105.044 12.9686C99.6175 7.50441 91.4436 4.84149 80.0697 4.84149C73.5306 4.84149 68.0697 5.60233 63.7567 7.15858C60.3132 8.40358 57.3567 10.2711 54.9567 12.7611C54.9219 12.8302 54.8871 12.8648 54.8175 12.8648H54.7827C54.7132 12.8648 54.6784 12.7957 54.6088 12.7611C54.574 12.7265 54.574 12.7265 54.5393 12.6919C54.5045 12.6919 54.5045 12.6573 54.4697 12.6573C54.4001 12.6227 54.3654 12.6227 54.3654 12.5882L54.3306 12.5536V12.519C54.3306 12.4844 54.3653 12.4498 54.4001 12.4498C56.8697 9.85608 59.9306 7.88483 63.548 6.57066C67.8958 5.01441 73.461 4.21899 80.0697 4.21899C91.6523 4.21899 99.9653 6.95108 105.531 12.5536C105.531 12.5536 105.531 12.5536 105.565 12.5882C105.6 12.6227 105.635 12.6573 105.704 12.7265L105.809 12.8302H105.635C105.635 12.8302 105.531 12.8994 105.496 12.9686C105.426 13.0377 105.357 13.0723 105.287 13.1069L105.218 13.1415ZM80.0697 4.70316C91.4784 4.70316 99.6871 7.36608 105.148 12.8648H105.183C105.183 12.8648 105.218 12.8994 105.252 12.934C105.287 12.8994 105.357 12.8648 105.391 12.8302C105.426 12.7957 105.496 12.7611 105.496 12.7265L105.461 12.6919L105.426 12.6573C99.8958 7.08941 91.5827 4.35733 80.0697 4.35733C73.4958 4.35733 67.9306 5.15274 63.6175 6.70899C60.0697 7.98858 57.0088 9.92524 54.574 12.519C54.6088 12.519 54.6436 12.5536 54.6436 12.5536C54.6784 12.5882 54.7132 12.5882 54.7132 12.6227C54.748 12.6573 54.7827 12.6919 54.8175 12.6919C54.8175 12.6919 54.8175 12.6919 54.8175 12.6573L54.8523 12.6227C57.2523 10.1327 60.2436 8.23066 63.6871 6.98566C68.0349 5.46399 73.5306 4.70316 80.0697 4.70316Z" fill="#BCBDBF"/>
<path d="M109.322 18.9517C108.939 19.2284 107.061 20.4042 103.409 22.0642C100.904 23.2055 99.2697 23.7588 97.3566 24.4159C96.3131 24.7617 95.2349 25.1421 93.9131 25.6609C91.7914 26.4563 89.5305 27.39 87.6175 28.8425C85.9131 30.1567 84.2783 31.8513 82.9218 33.7188C81.287 35.9321 80.4175 37.7305 80.0349 38.5605C79.6175 37.7305 78.7131 35.9321 77.2175 33.8571C75.8957 32.0242 74.574 30.8138 73.3914 29.7417L73.3218 29.6725C72.174 28.635 70.8175 27.5975 66.7827 26.0759C66.1566 25.8338 65.287 25.5225 64.3479 25.1767C62.261 24.4159 59.687 23.5167 58.4001 22.9288C57.6349 22.583 57.0436 22.3409 56.5566 22.1334C54.574 21.2688 54.1914 21.1305 50.7479 18.9517C50.4001 18.7442 50.2262 18.848 50.087 19.1592C48.5914 22.583 47.8262 26.56 47.8262 30.9175C47.8262 39.5634 50.3305 46.2034 55.2349 50.7338C58.887 54.0884 63.7914 56.198 69.774 56.9588C73.6349 57.4775 76.9044 57.685 80.0697 57.685C82.9566 57.685 85.774 57.4775 88.9044 57.0625C99.5131 55.6446 112.139 49.9384 112.139 30.883C112.139 26.3871 111.409 22.4792 109.948 19.1246C109.809 18.8134 109.531 18.8134 109.322 18.9517ZM88.8697 56.6475C85.774 57.0625 82.9566 57.27 80.1044 57.27C76.9392 57.27 73.7044 57.028 69.8783 56.5438C60.0349 55.2642 48.3479 49.7655 48.3479 30.9867C48.3479 26.6984 49.1131 22.825 50.574 19.4359C54.0175 21.6146 54.4349 21.7875 56.4175 22.6175C56.9044 22.825 57.4957 23.0671 58.261 23.413C59.5479 24.0009 62.1566 24.9346 64.2436 25.6609C65.1827 26.0067 66.0523 26.318 66.6783 26.56C70.6088 28.0471 71.9305 29.05 73.0436 30.053L73.1131 30.1221C74.261 31.1596 75.5827 32.37 76.8697 34.1684C78.8523 36.9696 79.861 39.2867 79.861 39.2867C79.8957 39.3905 80.0001 39.425 80.0697 39.425C80.174 39.425 80.2436 39.3559 80.2784 39.2521C80.2784 39.2175 81.1479 36.9696 83.3044 33.9955C84.661 32.128 86.261 30.468 87.9305 29.1884C89.774 27.7705 92.0001 26.8713 94.087 26.0759C95.4088 25.5571 96.487 25.2113 97.5305 24.8309C99.4436 24.1738 101.078 23.5859 103.617 22.4446C107.2 20.8192 109.044 19.6434 109.531 19.3321C110.957 22.6175 111.687 26.4563 111.687 30.883C111.687 49.6617 99.2697 55.2642 88.8697 56.6475Z" fill="white"/>
<path d="M80.1045 57.339C76.9393 57.339 73.6697 57.0969 69.8436 56.6128C60.0002 55.3332 48.2437 49.7999 48.2437 30.9865C48.2437 26.7328 48.9741 22.8249 50.4697 19.4011L50.5045 19.2974L50.5741 19.3319C54.0176 21.5107 54.4002 21.649 56.4176 22.5136C56.9045 22.7211 57.4958 22.9632 58.261 23.309C59.548 23.8969 62.1567 24.7961 64.2089 25.5569C65.148 25.9028 66.0176 26.214 66.6437 26.4561C70.6089 27.9432 71.9306 28.9461 73.0436 29.949L73.1132 30.0182C74.2958 31.0557 75.6176 32.2661 76.9045 34.0644C78.9219 36.9003 79.8958 39.1828 79.8958 39.2174C79.9306 39.2865 79.9654 39.3211 80.035 39.3211C80.1045 39.3211 80.1741 39.2865 80.1741 39.2174C80.1741 39.1828 81.0436 36.9349 83.235 33.9607C84.5915 32.0932 86.1915 30.4332 87.861 29.1536C89.7045 27.7357 91.9306 26.8365 94.0523 26.0065C95.3741 25.4878 96.4523 25.1419 97.4958 24.7615C99.4089 24.1044 101.044 23.5165 103.583 22.3753C107.165 20.7499 109.009 19.574 109.496 19.2628L109.565 19.1936L109.6 19.2974C111.061 22.6174 111.757 26.3869 111.757 30.8828C111.757 49.6615 99.3045 55.2986 88.9045 56.6819C85.7741 57.1661 82.9915 57.339 80.1045 57.339ZM50.5741 19.5394C49.148 22.9286 48.4176 26.7674 48.4176 30.9865C48.4176 49.6961 60.1045 55.1603 69.8784 56.4744C73.7045 56.9932 76.9393 57.2007 80.1045 57.2007C82.9915 57.2007 85.7741 56.9932 88.8697 56.5782C99.2349 55.1949 111.583 49.6269 111.583 30.9519C111.583 26.5253 110.887 22.7903 109.496 19.5049C108.905 19.8853 107.061 21.0265 103.652 22.5828C101.113 23.724 99.4784 24.3119 97.5654 24.969C96.5219 25.3149 95.4436 25.6953 94.1219 26.214C92.035 27.0094 89.8089 27.9086 88.0002 29.3265C86.3306 30.6061 84.7654 32.2661 83.4089 34.099C81.2523 37.0732 80.3828 39.2865 80.3828 39.3211C80.348 39.4594 80.2089 39.5286 80.0697 39.5286C79.9306 39.5286 79.8263 39.4594 79.7567 39.3211C79.7567 39.2865 78.7828 37.0386 76.7654 34.2028C75.4784 32.4044 74.1915 31.2286 73.0089 30.1565L72.9393 30.0874C71.8263 29.0844 70.5393 28.0815 66.6089 26.629C65.9828 26.3869 65.1132 26.0757 64.1741 25.7299C62.0871 24.969 59.5132 24.0353 58.1915 23.4819C57.4263 23.1361 56.835 22.894 56.348 22.6865C54.3654 21.8565 53.948 21.6836 50.5741 19.5394Z" fill="url(#paint76_linear_962_17713)" fill-opacity="0.8"/>
<path d="M106.957 25.3841C106.922 25.3841 106.922 25.3841 106.957 25.3841C106.922 25.3841 106.922 25.3495 106.922 25.315C106.922 25.315 107.826 23.655 108.244 22.7212C108.626 21.822 109.461 19.4704 109.496 19.4704C109.496 19.4358 109.531 19.4358 109.531 19.4358C109.565 19.4358 109.565 19.4704 109.565 19.4704C109.565 19.505 108.731 21.822 108.313 22.7212C107.931 23.6204 107.026 25.2804 106.991 25.315C106.957 25.3841 106.957 25.3841 106.957 25.3841Z" fill="#424143"/>
<path fill-rule="evenodd" clip-rule="evenodd" d="M50.3307 13.0033C50.4003 12.7267 50.4699 12.7613 50.4351 13.0033C50.2612 13.7642 50.2264 15.1821 50.2612 16.6346C50.2959 17.6721 50.5046 18.8133 50.5046 18.8133C50.3655 18.8133 50.1916 18.8479 50.122 19.0208C49.9481 17.3263 49.809 15.355 50.3307 13.0033Z" fill="url(#paint77_linear_962_17713)"/>
<path fill-rule="evenodd" clip-rule="evenodd" d="M109.739 13.2799C109.67 13.0032 109.635 13.0032 109.67 13.2453C109.844 14.0062 109.913 15.3895 109.913 16.842C109.913 17.8795 109.739 18.917 109.739 18.917C109.739 18.917 109.948 19.0553 110.018 19.2974C110.296 16.7037 110.087 14.767 109.739 13.2799Z" fill="#D1D2D3"/>
<path fill-rule="evenodd" clip-rule="evenodd" d="M107.131 15.3895L104.278 17.6029L103.235 15.9775C103.931 15.0437 105.009 13.3491 105.148 13.1762C105.287 13.0033 105.6 12.7612 105.878 12.6575C106.157 12.5537 107.339 12.0004 108.313 11.6545L109.565 13.0379L107.131 15.3895Z" fill="url(#paint78_linear_962_17713)"/>
<path fill-rule="evenodd" clip-rule="evenodd" d="M52.9738 15.1474L55.826 17.3607L56.8695 15.7353C56.1738 14.8015 55.0956 13.1069 54.9565 12.934C54.8173 12.7611 54.5043 12.519 54.226 12.4153C53.9478 12.3115 52.7651 11.7582 51.7912 11.4124L50.5391 12.7957L52.9738 15.1474Z" fill="url(#paint79_linear_962_17713)"/>
<path fill-rule="evenodd" clip-rule="evenodd" d="M56.9043 15.7699C56.9043 15.7699 56.4869 16.3578 56.3129 16.669C56.1043 16.9457 55.7564 17.5336 55.7564 17.5336C55.7564 17.5336 54.0869 16.3924 52.6956 15.1819C51.4434 14.0753 50.8869 13.3836 50.3999 12.8303C50.6434 12.5536 51.6521 11.5161 51.6521 11.5161C51.6521 11.5161 51.5825 11.6199 51.7912 11.8619C52.4869 12.6574 55.1999 14.9744 56.3477 15.7007C56.6956 15.8736 56.9043 15.7699 56.9043 15.7699Z" fill="url(#paint80_linear_962_17713)"/>
<path d="M108.313 11.62C107.826 11.7929 106.226 12.3808 105.879 12.5192C105.705 12.5883 105.461 12.5537 105.322 12.4154C99.7568 6.95125 91.5134 4.28833 80.1047 4.28833C73.496 4.28833 67.9655 5.08375 63.6177 6.64C60.1394 7.885 57.2177 9.7525 54.8177 12.1733C54.7134 12.2771 54.5394 12.3462 54.4003 12.3117C54.1916 12.2425 52.3134 11.62 51.7916 11.4125L51.7568 11.4471C52.209 11.62 53.9829 12.45 54.2264 12.5192C54.4699 12.5883 54.8177 12.8304 54.9221 13.0033C54.9916 13.1071 56.9394 15.7354 56.9394 15.7354L56.9742 15.7008C56.9742 15.7008 55.5829 13.6604 55.1655 13.0725C55.0264 12.865 55.0264 12.6575 55.1655 12.5192C57.496 10.1675 60.3829 8.33458 63.7916 7.12416C68.0699 5.6025 73.5655 4.80708 80.1047 4.80708C91.3394 4.80708 99.4786 7.40083 104.939 12.7612C105.113 12.9342 105.113 13.1071 105.009 13.2454C104.8 13.5567 103.652 15.3896 103.235 15.9775L103.27 16.0121C103.722 15.3896 105.183 13.28 105.218 13.2108C105.322 13.0379 105.67 12.8304 105.913 12.7267C106.018 12.6575 107.861 11.8621 108.313 11.62Z" fill="white"/>
<path fill-rule="evenodd" clip-rule="evenodd" d="M103.235 15.9774L104.348 17.672C104.348 17.672 106.017 16.5654 107.374 15.3549C108.626 14.2483 108.591 14.1791 109.67 13.0033L108.383 11.5508C108.383 11.5508 108.452 11.7929 108.174 12.1041C107.478 12.8649 104.904 15.1129 103.757 15.8391C103.409 16.0812 103.235 15.9774 103.235 15.9774Z" fill="url(#paint81_linear_962_17713)"/>
<path d="M53.1131 25.4533C53.1131 25.4533 53.0783 25.4533 53.0783 25.4187C53.0783 25.3841 52.174 23.7587 51.7566 22.825C51.374 21.9258 50.5392 19.5741 50.5044 19.5741C50.5044 19.5396 50.5044 19.5396 50.5392 19.5396C50.574 19.5396 50.574 19.5396 50.6087 19.5741C50.6087 19.6087 51.4435 21.9258 51.8609 22.825C52.2435 23.7241 53.1479 25.3841 53.1479 25.4187C53.1827 25.4187 53.1479 25.4533 53.1131 25.4533Z" fill="#424143"/>
<defs>
<linearGradient id="paint0_linear_962_17713" x1="115.371" y1="79.9519" x2="115.371" y2="67.4672" gradientUnits="userSpaceOnUse">
<stop offset="0.1"/>
<stop offset="0.9" stop-color="#666666"/>
</linearGradient>
<linearGradient id="paint1_linear_962_17713" x1="114.782" y1="79.9582" x2="114.782" y2="67.4671" gradientUnits="userSpaceOnUse">
<stop offset="0.15" stop-color="#1A1A1A"/>
<stop offset="0.45" stop-color="#666666"/>
<stop offset="0.75" stop-color="#B3B3B3"/>
<stop offset="1" stop-color="#666666"/>
</linearGradient>
<linearGradient id="paint2_linear_962_17713" x1="114.794" y1="79.9528" x2="114.794" y2="67.4673" gradientUnits="userSpaceOnUse">
<stop offset="0.15" stop-color="#1A1A1A"/>
<stop offset="0.45" stop-color="#666666"/>
<stop offset="0.75" stop-color="#B3B3B3"/>
<stop offset="1" stop-color="#666666"/>
</linearGradient>
<linearGradient id="paint3_linear_962_17713" x1="48.041" y1="79.9584" x2="48.041" y2="67.4673" gradientUnits="userSpaceOnUse">
<stop offset="0.15" stop-color="#1A1A1A"/>
<stop offset="0.45" stop-color="#666666"/>
<stop offset="0.75" stop-color="#B3B3B3"/>
<stop offset="1" stop-color="#666666"/>
</linearGradient>
<linearGradient id="paint4_linear_962_17713" x1="48.041" y1="79.9572" x2="48.041" y2="67.6856" gradientUnits="userSpaceOnUse">
<stop offset="0.1"/>
<stop offset="0.9" stop-color="#666666"/>
</linearGradient>
<linearGradient id="paint5_linear_962_17713" x1="52.2811" y1="79.9572" x2="52.2811" y2="70.274" gradientUnits="userSpaceOnUse">
<stop offset="0.1" stop-color="#1A1A1A"/>
<stop offset="0.5" stop-color="#4D4D4D"/>
<stop offset="0.9" stop-color="#1A1A1A"/>
</linearGradient>
<linearGradient id="paint6_linear_962_17713" x1="48.0131" y1="79.9578" x2="48.0131" y2="70.2837" gradientUnits="userSpaceOnUse">
<stop offset="0.1"/>
<stop offset="0.5" stop-color="#666666"/>
<stop offset="0.9" stop-color="#999999"/>
</linearGradient>
<linearGradient id="paint7_linear_962_17713" x1="46.5786" y1="79.9578" x2="46.5786" y2="70.2896" gradientUnits="userSpaceOnUse">
<stop offset="0.1" stop-color="#1A1A1A"/>
<stop offset="0.5" stop-color="#4D4D4D"/>
<stop offset="0.9" stop-color="#999999"/>
</linearGradient>
<linearGradient id="paint8_linear_962_17713" x1="39.513" y1="79.9583" x2="39.513" y2="70.3065" gradientUnits="userSpaceOnUse">
<stop offset="0.1"/>
<stop offset="0.5" stop-color="#666666"/>
<stop offset="0.9"/>
</linearGradient>
<linearGradient id="paint9_linear_962_17713" x1="114.794" y1="79.9527" x2="114.794" y2="71.8967" gradientUnits="userSpaceOnUse">
<stop offset="0.1"/>
<stop offset="0.9" stop-color="#8C8C8C"/>
</linearGradient>
<linearGradient id="paint10_linear_962_17713" x1="113.926" y1="72.5979" x2="113.926" y2="69.7603" gradientUnits="userSpaceOnUse">
<stop offset="0.1047" stop-color="#262626"/>
<stop offset="0.9" stop-color="#1A1A1A"/>
</linearGradient>
<linearGradient id="paint11_linear_962_17713" x1="119.117" y1="77.6561" x2="119.117" y2="74.0917" gradientUnits="userSpaceOnUse">
<stop offset="0.1" stop-color="#4D4D4D"/>
<stop offset="0.9"/>
</linearGradient>
<linearGradient id="paint12_linear_962_17713" x1="114.782" y1="77.6613" x2="114.782" y2="74.0918" gradientUnits="userSpaceOnUse">
<stop offset="0.1" stop-color="#D9D9D9"/>
<stop offset="0.1768" stop-color="#A6A6A6"/>
<stop offset="0.2688" stop-color="#6F6F6F"/>
<stop offset="0.3484" stop-color="#484848"/>
<stop offset="0.4114" stop-color="#2F2F2F"/>
<stop offset="0.45" stop-color="#262626"/>
<stop offset="0.9"/>
</linearGradient>
<linearGradient id="paint13_linear_962_17713" x1="95.2341" y1="177.817" x2="95.2341" y2="-41.3085" gradientUnits="userSpaceOnUse">
<stop offset="0.15" stop-color="#1A1A1A"/>
<stop offset="0.45" stop-color="#666666"/>
<stop offset="0.75" stop-color="#B3B3B3"/>
<stop offset="1" stop-color="#666666"/>
</linearGradient>
<linearGradient id="paint14_linear_962_17713" x1="91.6691" y1="79.9543" x2="91.6691" y2="67.2787" gradientUnits="userSpaceOnUse">
<stop offset="0.15" stop-color="#1A1A1A"/>
<stop offset="0.45" stop-color="#666666"/>
<stop offset="0.75" stop-color="#B3B3B3"/>
<stop offset="1" stop-color="#666666"/>
</linearGradient>
<linearGradient id="paint15_linear_962_17713" x1="60.7035" y1="79.9567" x2="60.7035" y2="67.3881" gradientUnits="userSpaceOnUse">
<stop offset="0.15" stop-color="#1A1A1A"/>
<stop offset="0.45" stop-color="#666666"/>
<stop offset="0.75" stop-color="#B3B3B3"/>
<stop offset="1" stop-color="#666666"/>
</linearGradient>
<linearGradient id="paint16_linear_962_17713" x1="73.858" y1="79.9558" x2="73.858" y2="67.3396" gradientUnits="userSpaceOnUse">
<stop offset="0.15" stop-color="#1A1A1A"/>
<stop offset="0.45" stop-color="#666666"/>
<stop offset="0.75" stop-color="#B3B3B3"/>
<stop offset="1" stop-color="#666666"/>
</linearGradient>
<linearGradient id="paint17_linear_962_17713" x1="64.7753" y1="80.4074" x2="64.7753" y2="67.3476" gradientUnits="userSpaceOnUse">
<stop offset="0.15" stop-color="#1A1A1A"/>
<stop offset="0.45" stop-color="#666666"/>
<stop offset="0.75" stop-color="#B3B3B3"/>
<stop offset="1" stop-color="#666666"/>
</linearGradient>
<linearGradient id="paint18_linear_962_17713" x1="71.6493" y1="79.9286" x2="71.6493" y2="67.358" gradientUnits="userSpaceOnUse">
<stop offset="0.15" stop-color="#1A1A1A"/>
<stop offset="0.45" stop-color="#666666"/>
<stop offset="0.75" stop-color="#B3B3B3"/>
<stop offset="1" stop-color="#666666"/>
</linearGradient>
<linearGradient id="paint19_linear_962_17713" x1="67.331" y1="79.1006" x2="67.331" y2="67.6301" gradientUnits="userSpaceOnUse">
<stop offset="0.1"/>
<stop offset="0.9" stop-color="#666666"/>
</linearGradient>
<linearGradient id="paint20_linear_962_17713" x1="67.9181" y1="79.9563" x2="67.9181" y2="72.0041" gradientUnits="userSpaceOnUse">
<stop offset="0.1"/>
<stop offset="0.9" stop-color="#666666"/>
</linearGradient>
<linearGradient id="paint21_linear_962_17713" x1="65.8902" y1="79.9391" x2="65.8902" y2="67.3617" gradientUnits="userSpaceOnUse">
<stop offset="0.15" stop-color="#1A1A1A"/>
<stop offset="0.45" stop-color="#666666"/>
<stop offset="0.75" stop-color="#B3B3B3"/>
<stop offset="1" stop-color="#666666"/>
</linearGradient>
<linearGradient id="paint22_linear_962_17713" x1="65.8902" y1="72.6963" x2="65.8902" y2="69.8945" gradientUnits="userSpaceOnUse">
<stop offset="0.1047" stop-color="#262626"/>
<stop offset="0.9" stop-color="#1A1A1A"/>
</linearGradient>
<linearGradient id="paint23_linear_962_17713" x1="71.0749" y1="79.9557" x2="71.0749" y2="67.3494" gradientUnits="userSpaceOnUse">
<stop offset="0.15" stop-color="#1A1A1A"/>
<stop offset="0.45" stop-color="#666666"/>
<stop offset="0.75" stop-color="#B3B3B3"/>
<stop offset="1" stop-color="#666666"/>
</linearGradient>
<linearGradient id="paint24_linear_962_17713" x1="71.0749" y1="77.6898" x2="71.0749" y2="74.1713" gradientUnits="userSpaceOnUse">
<stop offset="0.1" stop-color="#4D4D4D"/>
<stop offset="0.9"/>
</linearGradient>
<linearGradient id="paint25_linear_962_17713" x1="66.7361" y1="79.964" x2="66.7361" y2="67.3396" gradientUnits="userSpaceOnUse">
<stop offset="0.15" stop-color="#1A1A1A"/>
<stop offset="0.45" stop-color="#666666"/>
<stop offset="0.75" stop-color="#B3B3B3"/>
<stop offset="1" stop-color="#666666"/>
</linearGradient>
<linearGradient id="paint26_linear_962_17713" x1="66.7361" y1="77.6949" x2="66.7361" y2="74.1713" gradientUnits="userSpaceOnUse">
<stop offset="0.1" stop-color="#D9D9D9"/>
<stop offset="0.1768" stop-color="#A6A6A6"/>
<stop offset="0.2688" stop-color="#6F6F6F"/>
<stop offset="0.3484" stop-color="#484848"/>
<stop offset="0.4114" stop-color="#2F2F2F"/>
<stop offset="0.45" stop-color="#262626"/>
<stop offset="0.9"/>
</linearGradient>
<linearGradient id="paint27_linear_962_17713" x1="98.9448" y1="79.9589" x2="98.9448" y2="67.2524" gradientUnits="userSpaceOnUse">
<stop offset="0.15" stop-color="#1A1A1A"/>
<stop offset="0.45" stop-color="#666666"/>
<stop offset="0.75" stop-color="#B3B3B3"/>
<stop offset="1" stop-color="#666666"/>
</linearGradient>
<linearGradient id="paint28_linear_962_17713" x1="98.9448" y1="77.398" x2="98.9448" y2="70.0883" gradientUnits="userSpaceOnUse">
<stop offset="0.1" stop-color="#D9D9D9"/>
<stop offset="0.1768" stop-color="#A6A6A6"/>
<stop offset="0.2688" stop-color="#6F6F6F"/>
<stop offset="0.3484" stop-color="#484848"/>
<stop offset="0.4114" stop-color="#2F2F2F"/>
<stop offset="0.45" stop-color="#262626"/>
<stop offset="0.9047" stop-color="#1A1A1A"/>
</linearGradient>
<linearGradient id="paint29_linear_962_17713" x1="94.4343" y1="79.9541" x2="94.4343" y2="67.2713" gradientUnits="userSpaceOnUse">
<stop offset="0.15" stop-color="#1A1A1A"/>
<stop offset="0.45" stop-color="#666666"/>
<stop offset="0.75" stop-color="#B3B3B3"/>
<stop offset="1" stop-color="#666666"/>
</linearGradient>
<linearGradient id="paint30_linear_962_17713" x1="94.4343" y1="77.398" x2="94.4343" y2="70.102" gradientUnits="userSpaceOnUse">
<stop offset="0.1" stop-color="#4D4D4D"/>
<stop offset="0.9"/>
</linearGradient>
<linearGradient id="paint31_linear_962_17713" x1="81.1807" y1="80.5047" x2="81.1807" y2="67.2859" gradientUnits="userSpaceOnUse">
<stop offset="0.15" stop-color="#1A1A1A"/>
<stop offset="0.45" stop-color="#666666"/>
<stop offset="0.75" stop-color="#B3B3B3"/>
<stop offset="1" stop-color="#666666"/>
</linearGradient>
<linearGradient id="paint32_linear_962_17713" x1="76.3122" y1="79.9555" x2="76.3122" y2="67.3341" gradientUnits="userSpaceOnUse">
<stop offset="0.15" stop-color="#1A1A1A"/>
<stop offset="0.45" stop-color="#666666"/>
<stop offset="0.75" stop-color="#B3B3B3"/>
<stop offset="1" stop-color="#666666"/>
</linearGradient>
<linearGradient id="paint33_linear_962_17713" x1="81.6307" y1="79.955" x2="81.6307" y2="67.3053" gradientUnits="userSpaceOnUse">
<stop offset="0.15" stop-color="#1A1A1A"/>
<stop offset="0.45" stop-color="#666666"/>
<stop offset="0.75" stop-color="#B3B3B3"/>
<stop offset="1" stop-color="#666666"/>
</linearGradient>
<linearGradient id="paint34_linear_962_17713" x1="81.6307" y1="79.955" x2="81.6307" y2="76.7095" gradientUnits="userSpaceOnUse">
<stop offset="0.2264" stop-color="#999999"/>
<stop offset="0.7753" stop-color="#C5C5C5"/>
<stop offset="1" stop-color="#D9D9D9"/>
</linearGradient>
<linearGradient id="paint35_linear_962_17713" x1="86.7268" y1="79.9705" x2="86.7268" y2="67.2418" gradientUnits="userSpaceOnUse">
<stop offset="0.15" stop-color="#1A1A1A"/>
<stop offset="0.45" stop-color="#666666"/>
<stop offset="0.75" stop-color="#B3B3B3"/>
<stop offset="1" stop-color="#666666"/>
</linearGradient>
<linearGradient id="paint36_linear_962_17713" x1="86.7268" y1="79.9701" x2="86.7268" y2="76.7043" gradientUnits="userSpaceOnUse">
<stop offset="0.2264" stop-color="#999999"/>
<stop offset="0.7753" stop-color="#C5C5C5"/>
<stop offset="1" stop-color="#D9D9D9"/>
</linearGradient>
<linearGradient id="paint37_linear_962_17713" x1="84.3786" y1="79.9549" x2="84.3786" y2="67.2839" gradientUnits="userSpaceOnUse">
<stop offset="0.15" stop-color="#1A1A1A"/>
<stop offset="0.45" stop-color="#666666"/>
<stop offset="0.75" stop-color="#B3B3B3"/>
<stop offset="1" stop-color="#666666"/>
</linearGradient>
<linearGradient id="paint38_linear_962_17713" x1="84.3786" y1="79.9549" x2="84.3786" y2="76.7043" gradientUnits="userSpaceOnUse">
<stop offset="0.1"/>
<stop offset="0.9" stop-color="#666666"/>
</linearGradient>
<linearGradient id="paint39_linear_962_17713" x1="81.3154" y1="80.7173" x2="81.3154" y2="67.314" gradientUnits="userSpaceOnUse">
<stop offset="0.15" stop-color="#1A1A1A"/>
<stop offset="0.45" stop-color="#666666"/>
<stop offset="0.75" stop-color="#B3B3B3"/>
<stop offset="1" stop-color="#666666"/>
</linearGradient>
<linearGradient id="paint40_linear_962_17713" x1="81.3154" y1="79.8088" x2="81.3154" y2="67.6045" gradientUnits="userSpaceOnUse">
<stop offset="0.2264" stop-color="#B3B3B3"/>
<stop offset="0.9039" stop-color="#DFDFDF"/>
<stop offset="1" stop-color="#E6E6E6"/>
</linearGradient>
<linearGradient id="paint41_linear_962_17713" x1="84.1751" y1="79.955" x2="84.1751" y2="67.7011" gradientUnits="userSpaceOnUse">
<stop offset="0.1"/>
<stop offset="0.5" stop-color="#666666"/>
<stop offset="0.9" stop-color="#1A1A1A"/>
</linearGradient>
<linearGradient id="paint42_linear_962_17713" x1="97.8106" y1="79.9543" x2="97.8106" y2="67.5274" gradientUnits="userSpaceOnUse">
<stop offset="0.1"/>
<stop offset="0.9" stop-color="#666666"/>
</linearGradient>
<linearGradient id="paint43_linear_962_17713" x1="98.9509" y1="79.1172" x2="98.9509" y2="68.1092" gradientUnits="userSpaceOnUse">
<stop stop-color="#B5B5B5"/>
<stop offset="0.1138" stop-color="#A2A2A2"/>
<stop offset="0.2" stop-color="#999999"/>
<stop offset="0.3141" stop-color="#909090"/>
<stop offset="0.39" stop-color="#878787"/>
<stop offset="0.4" stop-color="#B3B3B3"/>
<stop offset="0.527" stop-color="#CFCFCF"/>
<stop offset="0.7" stop-color="#F2F2F2"/>
<stop offset="0.8212" stop-color="#E9E9E9"/>
<stop offset="1" stop-color="#D4D4D4"/>
</linearGradient>
<linearGradient id="paint44_linear_962_17713" x1="66.7417" y1="79.1255" x2="66.7417" y2="68.2071" gradientUnits="userSpaceOnUse">
<stop stop-color="#B5B5B5"/>
<stop offset="0.1138" stop-color="#A2A2A2"/>
<stop offset="0.2" stop-color="#999999"/>
<stop offset="0.3141" stop-color="#909090"/>
<stop offset="0.39" stop-color="#878787"/>
<stop offset="0.4" stop-color="#B3B3B3"/>
<stop offset="0.527" stop-color="#CFCFCF"/>
<stop offset="0.7" stop-color="#F2F2F2"/>
<stop offset="0.8212" stop-color="#E9E9E9"/>
<stop offset="1" stop-color="#D4D4D4"/>
</linearGradient>
<linearGradient id="paint45_linear_962_17713" x1="80.2055" y1="79.2456" x2="80.2055" y2="68.1573" gradientUnits="userSpaceOnUse">
<stop stop-color="#B5B5B5"/>
<stop offset="0.1138" stop-color="#A2A2A2"/>
<stop offset="0.2" stop-color="#999999"/>
<stop offset="0.3141" stop-color="#909090"/>
<stop offset="0.39" stop-color="#878787"/>
<stop offset="0.4" stop-color="#B3B3B3"/>
<stop offset="0.527" stop-color="#CFCFCF"/>
<stop offset="0.7" stop-color="#F2F2F2"/>
<stop offset="0.8212" stop-color="#E9E9E9"/>
<stop offset="1" stop-color="#D4D4D4"/>
</linearGradient>
<linearGradient id="paint46_linear_962_17713" x1="85.2986" y1="79.1197" x2="85.2986" y2="68.1333" gradientUnits="userSpaceOnUse">
<stop stop-color="#B5B5B5"/>
<stop offset="0.1138" stop-color="#A2A2A2"/>
<stop offset="0.2" stop-color="#999999"/>
<stop offset="0.3141" stop-color="#909090"/>
<stop offset="0.39" stop-color="#878787"/>
<stop offset="0.4" stop-color="#B3B3B3"/>
<stop offset="0.527" stop-color="#CFCFCF"/>
<stop offset="0.7" stop-color="#F2F2F2"/>
<stop offset="0.8212" stop-color="#E9E9E9"/>
<stop offset="1" stop-color="#D4D4D4"/>
</linearGradient>
<linearGradient id="paint47_linear_962_17713" x1="48.0364" y1="79.1331" x2="48.0364" y2="68.3092" gradientUnits="userSpaceOnUse">
<stop stop-color="#B5B5B5"/>
<stop offset="0.1138" stop-color="#A2A2A2"/>
<stop offset="0.2" stop-color="#999999"/>
<stop offset="0.3141" stop-color="#909090"/>
<stop offset="0.39" stop-color="#878787"/>
<stop offset="0.4" stop-color="#B3B3B3"/>
<stop offset="0.527" stop-color="#CFCFCF"/>
<stop offset="0.7" stop-color="#F2F2F2"/>
<stop offset="0.8212" stop-color="#E9E9E9"/>
<stop offset="1" stop-color="#D4D4D4"/>
</linearGradient>
<linearGradient id="paint48_linear_962_17713" x1="114.79" y1="79.1334" x2="114.79" y2="68.3096" gradientUnits="userSpaceOnUse">
<stop stop-color="#B5B5B5"/>
<stop offset="0.1138" stop-color="#A2A2A2"/>
<stop offset="0.2" stop-color="#999999"/>
<stop offset="0.3141" stop-color="#909090"/>
<stop offset="0.39" stop-color="#878787"/>
<stop offset="0.4" stop-color="#B3B3B3"/>
<stop offset="0.527" stop-color="#CFCFCF"/>
<stop offset="0.7" stop-color="#F2F2F2"/>
<stop offset="0.8212" stop-color="#E9E9E9"/>
<stop offset="1" stop-color="#D4D4D4"/>
</linearGradient>
<linearGradient id="paint49_linear_962_17713" x1="82.7568" y1="79.1255" x2="82.7568" y2="68.1354" gradientUnits="userSpaceOnUse">
<stop stop-color="#B5B5B5"/>
<stop offset="0.1138" stop-color="#A2A2A2"/>
<stop offset="0.2" stop-color="#999999"/>
<stop offset="0.3141" stop-color="#909090"/>
<stop offset="0.39" stop-color="#878787"/>
<stop offset="0.4" stop-color="#B3B3B3"/>
<stop offset="0.527" stop-color="#CFCFCF"/>
<stop offset="0.7" stop-color="#F2F2F2"/>
<stop offset="0.8212" stop-color="#E9E9E9"/>
<stop offset="1" stop-color="#D4D4D4"/>
</linearGradient>
<linearGradient id="paint50_linear_962_17713" x1="115.368" y1="79.9583" x2="115.368" y2="67.4569" gradientUnits="userSpaceOnUse">
<stop offset="0.1"/>
<stop offset="0.9" stop-color="#666666"/>
</linearGradient>
<linearGradient id="paint51_linear_962_17713" x1="67.9181" y1="79.9583" x2="67.9181" y2="72.0041" gradientUnits="userSpaceOnUse">
<stop offset="0.1"/>
<stop offset="0.9" stop-color="#8C8C8C"/>
</linearGradient>
<linearGradient id="paint52_linear_962_17713" x1="53.468" y1="67.0063" x2="58.8198" y2="72.3889" gradientUnits="userSpaceOnUse">
<stop offset="0.1" stop-color="white" stop-opacity="0"/>
<stop offset="0.4" stop-color="white"/>
<stop offset="0.6" stop-color="white"/>
<stop offset="0.9" stop-color="white" stop-opacity="0"/>
</linearGradient>
<linearGradient id="paint53_linear_962_17713" x1="117.774" y1="66.8137" x2="122.529" y2="71.5957" gradientUnits="userSpaceOnUse">
<stop offset="0.1" stop-color="white" stop-opacity="0"/>
<stop offset="0.4" stop-color="white"/>
<stop offset="0.6" stop-color="white"/>
<stop offset="0.9" stop-color="white" stop-opacity="0"/>
</linearGradient>
<linearGradient id="paint54_linear_962_17713" x1="107.189" y1="75.7931" x2="111.507" y2="71.4509" gradientUnits="userSpaceOnUse">
<stop offset="0.1" stop-color="white" stop-opacity="0"/>
<stop offset="0.4" stop-color="white"/>
<stop offset="0.6" stop-color="white"/>
<stop offset="0.9" stop-color="white" stop-opacity="0"/>
</linearGradient>
<linearGradient id="paint55_linear_962_17713" x1="69.7562" y1="66.9715" x2="74.4801" y2="71.7227" gradientUnits="userSpaceOnUse">
<stop offset="0.1" stop-color="white" stop-opacity="0"/>
<stop offset="0.4" stop-color="white"/>
<stop offset="0.6" stop-color="white"/>
<stop offset="0.9" stop-color="white" stop-opacity="0"/>
</linearGradient>
<linearGradient id="paint56_linear_962_17713" x1="59.1645" y1="75.873" x2="63.4619" y2="71.5508" gradientUnits="userSpaceOnUse">
<stop offset="0.1" stop-color="white" stop-opacity="0"/>
<stop offset="0.4" stop-color="white"/>
<stop offset="0.6" stop-color="white"/>
<stop offset="0.9" stop-color="white" stop-opacity="0"/>
</linearGradient>
<linearGradient id="paint57_linear_962_17713" x1="100.364" y1="66.5872" x2="107.027" y2="73.2878" gradientUnits="userSpaceOnUse">
<stop offset="0.1" stop-color="white" stop-opacity="0"/>
<stop offset="0.4" stop-color="white"/>
<stop offset="0.6" stop-color="white"/>
<stop offset="0.9" stop-color="white" stop-opacity="0"/>
</linearGradient>
<linearGradient id="paint58_linear_962_17713" x1="72.9751" y1="4.22034" x2="87.1652" y2="57.4835" gradientUnits="userSpaceOnUse">
<stop offset="0.2121" stop-color="#231F20"/>
<stop offset="0.3158" stop-color="#2D2A2B"/>
<stop offset="0.5001" stop-color="#49484A"/>
<stop offset="0.5939" stop-color="#59595C"/>
<stop offset="0.8059" stop-color="#B2B2B3"/>
<stop offset="1" stop-color="white"/>
</linearGradient>
<linearGradient id="paint59_linear_962_17713" x1="72.9751" y1="4.22034" x2="87.1652" y2="57.4835" gradientUnits="userSpaceOnUse">
<stop stop-color="#231F20"/>
<stop offset="0.5648" stop-color="#48484A"/>
<stop offset="0.5946" stop-color="#525254"/>
<stop offset="0.6607" stop-color="#636466"/>
<stop offset="0.7091" stop-color="#696A6C"/>
<stop offset="0.8364" stop-color="white"/>
<stop offset="0.8909" stop-color="white"/>
<stop offset="1" stop-color="#929497"/>
</linearGradient>
<linearGradient id="paint60_linear_962_17713" x1="72.6009" y1="2.71986" x2="58.8139" y2="54.4701" gradientUnits="userSpaceOnUse">
<stop stop-color="#404041" stop-opacity="0"/>
<stop offset="0.6061" stop-color="#4D4D4F"/>
<stop offset="0.6515" stop-color="#505052"/>
<stop offset="0.6879" stop-color="#595A5C"/>
<stop offset="0.7091" stop-color="#626366"/>
<stop offset="0.8667" stop-color="#E6E7E8"/>
<stop offset="1" stop-color="#DBDCDD" stop-opacity="0"/>
</linearGradient>
<linearGradient id="paint61_linear_962_17713" x1="90.3058" y1="59.6632" x2="69.6225" y2="2.50875" gradientUnits="userSpaceOnUse">
<stop offset="0.0363636" stop-color="#48484A"/>
<stop offset="0.1947" stop-color="#4D4D4F"/>
<stop offset="0.3537" stop-color="#8B8B8C"/>
<stop offset="0.5303" stop-color="#C9C9CA"/>
<stop offset="0.6598" stop-color="#F0F0F0"/>
<stop offset="0.7273" stop-color="white"/>
<stop offset="1" stop-color="#808184"/>
</linearGradient>
<linearGradient id="paint62_linear_962_17713" x1="54.6687" y1="28.5577" x2="62.3693" y2="1.54783" gradientUnits="userSpaceOnUse">
<stop stop-color="white" stop-opacity="0"/>
<stop offset="0.4606" stop-color="white"/>
<stop offset="0.5717" stop-color="#E8E8E9" stop-opacity="0.7939"/>
<stop offset="1" stop-color="#929497" stop-opacity="0"/>
</linearGradient>
<linearGradient id="paint63_linear_962_17713" x1="58.622" y1="9.79679" x2="101.449" y2="9.79679" gradientUnits="userSpaceOnUse">
<stop stop-color="#323031"/>
<stop offset="0.0626317" stop-color="#454445" stop-opacity="0.9377"/>
<stop offset="0.1567" stop-color="#5B5B5D" stop-opacity="0.8442"/>
<stop offset="0.257" stop-color="#6B6B6E" stop-opacity="0.7446"/>
<stop offset="0.3666" stop-color="#747578" stop-opacity="0.6356"/>
<stop offset="0.503" stop-color="#77787B" stop-opacity="0.5"/>
<stop offset="1" stop-color="#2C292A"/>
</linearGradient>
<linearGradient id="paint64_linear_962_17713" x1="100.478" y1="52.5376" x2="60.1577" y2="52.5376" gradientUnits="userSpaceOnUse">
<stop stop-color="#231F20"/>
<stop offset="0.2504" stop-color="#464446"/>
<stop offset="0.503" stop-color="#6E6E71"/>
<stop offset="1" stop-color="#231F20"/>
</linearGradient>
<linearGradient id="paint65_linear_962_17713" x1="107.341" y1="44.2052" x2="109.364" y2="49.796" gradientUnits="userSpaceOnUse">
<stop offset="0.2364" stop-color="#323031" stop-opacity="0"/>
<stop offset="0.4424" stop-color="#323031"/>
<stop offset="0.6909" stop-color="#323031" stop-opacity="0.74"/>
<stop offset="1" stop-color="#323031" stop-opacity="0"/>
</linearGradient>
<linearGradient id="paint66_linear_962_17713" x1="65.4154" y1="0.944711" x2="48.1954" y2="32.1894" gradientUnits="userSpaceOnUse">
<stop stop-color="white" stop-opacity="0"/>
<stop offset="0.3697" stop-color="white"/>
<stop offset="1" stop-color="#9C9EA1" stop-opacity="0"/>
</linearGradient>
<linearGradient id="paint67_linear_962_17713" x1="98.3787" y1="10.3189" x2="108.634" y2="10.3189" gradientUnits="userSpaceOnUse">
<stop stop-color="#231F20"/>
<stop offset="0.0896271" stop-color="#231F20" stop-opacity="0.9104"/>
<stop offset="1" stop-color="#231F20" stop-opacity="0"/>
</linearGradient>
<linearGradient id="paint68_linear_962_17713" x1="55.6429" y1="7.61429" x2="55.6429" y2="14.2151" gradientUnits="userSpaceOnUse">
<stop stop-color="#323031"/>
<stop offset="1" stop-color="#323031" stop-opacity="0"/>
</linearGradient>
<linearGradient id="paint69_linear_962_17713" x1="58.8167" y1="46.6645" x2="55.9508" y2="54.5839" gradientUnits="userSpaceOnUse">
<stop offset="0.0484848" stop-color="#231F20" stop-opacity="0"/>
<stop offset="0.1766" stop-color="#3F3E3F" stop-opacity="0.6042"/>
<stop offset="0.2606" stop-color="#4D4D4F"/>
<stop offset="0.3587" stop-color="#484749" stop-opacity="0.9461"/>
<stop offset="0.4875" stop-color="#393739" stop-opacity="0.8752"/>
<stop offset="0.5333" stop-color="#323031" stop-opacity="0.85"/>
<stop offset="0.5927" stop-color="#363435" stop-opacity="0.8183"/>
<stop offset="0.6524" stop-color="#414041" stop-opacity="0.7864"/>
<stop offset="0.7122" stop-color="#535355" stop-opacity="0.7545"/>
<stop offset="0.7394" stop-color="#5E5F61" stop-opacity="0.74"/>
<stop offset="0.7591" stop-color="#4E4E4F" stop-opacity="0.6842"/>
<stop offset="0.7863" stop-color="#3F3D3E" stop-opacity="0.6068"/>
<stop offset="0.8202" stop-color="#343233" stop-opacity="0.5105"/>
<stop offset="0.8678" stop-color="#2E2B2C" stop-opacity="0.3753"/>
<stop offset="1" stop-color="#2C292A" stop-opacity="0"/>
</linearGradient>
<linearGradient id="paint70_linear_962_17713" x1="104.608" y1="26.5879" x2="97.5017" y2="1.66272" gradientUnits="userSpaceOnUse">
<stop stop-color="white" stop-opacity="0"/>
<stop offset="0.1034" stop-color="#E3E3E4" stop-opacity="0.2233"/>
<stop offset="0.3251" stop-color="#9C9D9E" stop-opacity="0.7024"/>
<stop offset="0.4629" stop-color="#6D6E70"/>
<stop offset="0.4727" stop-color="#77787B"/>
<stop offset="0.7142" stop-color="#7B7C7F" stop-opacity="0.542"/>
<stop offset="0.9657" stop-color="#87898B" stop-opacity="0.0649856"/>
<stop offset="1" stop-color="#898B8D" stop-opacity="0"/>
</linearGradient>
<linearGradient id="paint71_linear_962_17713" x1="52.2785" y1="33.0099" x2="108.305" y2="33.0099" gradientUnits="userSpaceOnUse">
<stop stop-color="#323031"/>
<stop offset="0.0601378" stop-color="#454445"/>
<stop offset="0.1505" stop-color="#5B5B5D"/>
<stop offset="0.2468" stop-color="#6B6B6E"/>
<stop offset="0.352" stop-color="#747578"/>
<stop offset="0.483" stop-color="#77787B"/>
<stop offset="0.5515" stop-color="#58595B"/>
<stop offset="0.5591" stop-color="#5C5D5F"/>
<stop offset="0.5879" stop-color="#5E5F61"/>
<stop offset="0.7061" stop-color="#323031" stop-opacity="0.9"/>
<stop offset="0.7129" stop-color="#3B393A" stop-opacity="0.8871"/>
<stop offset="0.7239" stop-color="#535152" stop-opacity="0.8661"/>
<stop offset="0.7378" stop-color="#7A797A" stop-opacity="0.8396"/>
<stop offset="0.7541" stop-color="#B1B0B1" stop-opacity="0.8086"/>
<stop offset="0.7721" stop-color="#F6F6F6" stop-opacity="0.7742"/>
<stop offset="0.7744" stop-color="white" stop-opacity="0.77"/>
<stop offset="1" stop-color="#353435"/>
</linearGradient>
<linearGradient id="paint72_linear_962_17713" x1="52.8919" y1="31.736" x2="77.4435" y2="26.9361" gradientUnits="userSpaceOnUse">
<stop offset="0.000754177" stop-color="#231F20"/>
<stop offset="0.0999527" stop-color="#292627"/>
<stop offset="0.689" stop-color="#4B4B4D"/>
<stop offset="0.9996" stop-color="#58595B"/>
</linearGradient>
<linearGradient id="paint73_linear_962_17713" x1="80.0244" y1="26.1926" x2="110.067" y2="26.1926" gradientUnits="userSpaceOnUse">
<stop stop-color="#231F20"/>
<stop offset="0.0343356" stop-color="#444143"/>
<stop offset="0.0748825" stop-color="#646264"/>
<stop offset="0.1202" stop-color="#7F7F80"/>
<stop offset="0.1706" stop-color="#959697"/>
<stop offset="0.2282" stop-color="#A6A7A9"/>
<stop offset="0.2977" stop-color="#B2B4B6"/>
<stop offset="0.3907" stop-color="#B9BBBD"/>
<stop offset="0.6072" stop-color="#BBBDBF"/>
<stop offset="0.8242" stop-color="white"/>
</linearGradient>
<linearGradient id="paint74_linear_962_17713" x1="92.6181" y1="24.4859" x2="96.9811" y2="38.8389" gradientUnits="userSpaceOnUse">
<stop stop-color="#3B3A3C"/>
<stop offset="0.0304189" stop-color="#3B3A3C"/>
<stop offset="0.3394" stop-color="#3B3A3C"/>
<stop offset="0.4778" stop-color="#555658"/>
<stop offset="0.5697" stop-color="#626366"/>
<stop offset="0.8061" stop-color="#4D4D4F"/>
</linearGradient>
<linearGradient id="paint75_linear_962_17713" x1="80.0484" y1="26.0897" x2="50.0796" y2="26.0897" gradientUnits="userSpaceOnUse">
<stop stop-color="#231F20"/>
<stop offset="0.00820688" stop-color="#2B2728"/>
<stop offset="0.0518095" stop-color="#504E50"/>
<stop offset="0.0947938" stop-color="#6D6D6F"/>
<stop offset="0.1365" stop-color="#818285"/>
<stop offset="0.1763" stop-color="#8E9092"/>
<stop offset="0.2121" stop-color="#929497"/>
<stop offset="0.2494" stop-color="#9EA0A2"/>
<stop offset="0.3738" stop-color="#C1C2C4"/>
<stop offset="0.5002" stop-color="#DCDDDE"/>
<stop offset="0.6277" stop-color="#F0F0F0"/>
<stop offset="0.757" stop-color="#FBFBFB"/>
<stop offset="0.8909" stop-color="white"/>
<stop offset="1" stop-color="#A6A8AB"/>
</linearGradient>
<linearGradient id="paint76_linear_962_17713" x1="48.2369" y1="38.3078" x2="111.753" y2="38.3078" gradientUnits="userSpaceOnUse">
<stop stop-color="#626366"/>
<stop offset="0.1088" stop-color="#7B7C7E"/>
<stop offset="0.3393" stop-color="#BABABC"/>
<stop offset="0.5697" stop-color="white"/>
<stop offset="0.7099" stop-color="#FDFDFD" stop-opacity="0.6742"/>
<stop offset="0.7708" stop-color="#F6F6F6" stop-opacity="0.5327"/>
<stop offset="0.8163" stop-color="#EAE9E9" stop-opacity="0.427"/>
<stop offset="0.8542" stop-color="#D8D7D7" stop-opacity="0.3389"/>
<stop offset="0.8873" stop-color="#C1C0C0" stop-opacity="0.2619"/>
<stop offset="0.9171" stop-color="#A5A3A4" stop-opacity="0.1926"/>
<stop offset="0.9445" stop-color="#848182" stop-opacity="0.129"/>
<stop offset="0.9699" stop-color="#5D5A5A" stop-opacity="0.069995"/>
<stop offset="0.9928" stop-color="#322E2F" stop-opacity="0.0166728"/>
<stop offset="1" stop-color="#231F20" stop-opacity="0"/>
</linearGradient>
<linearGradient id="paint77_linear_962_17713" x1="50.2221" y1="19.0093" x2="50.2221" y2="12.8185" gradientUnits="userSpaceOnUse">
<stop stop-color="#F1F1F1"/>
<stop offset="0.9385" stop-color="#F1F1F1"/>
<stop offset="1" stop-color="#F1F1F1"/>
</linearGradient>
<linearGradient id="paint78_linear_962_17713" x1="103.226" y1="14.604" x2="109.558" y2="14.604" gradientUnits="userSpaceOnUse">
<stop stop-color="#231F20"/>
<stop offset="0.2342" stop-color="#282426"/>
<stop offset="0.5344" stop-color="#363436"/>
<stop offset="0.8691" stop-color="#4E4D50"/>
<stop offset="1" stop-color="#59595C"/>
</linearGradient>
<linearGradient id="paint79_linear_962_17713" x1="56.844" y1="14.3835" x2="50.5138" y2="14.3835" gradientUnits="userSpaceOnUse">
<stop stop-color="#231F20"/>
<stop offset="0.2342" stop-color="#282426"/>
<stop offset="0.5344" stop-color="#363436"/>
<stop offset="0.8691" stop-color="#4E4D50"/>
<stop offset="1" stop-color="#59595C"/>
</linearGradient>
<linearGradient id="paint80_linear_962_17713" x1="50.4199" y1="14.4974" x2="56.914" y2="14.4974" gradientUnits="userSpaceOnUse">
<stop offset="0.00036742" stop-color="#929497"/>
<stop offset="0.2592" stop-color="#7E7F82"/>
<stop offset="0.5273" stop-color="#6D6E70"/>
</linearGradient>
<linearGradient id="paint81_linear_962_17713" x1="109.651" y1="14.6269" x2="103.217" y2="14.6269" gradientUnits="userSpaceOnUse">
<stop stop-color="#929497"/>
<stop offset="0.0406189" stop-color="#8D8F92"/>
<stop offset="0.3541" stop-color="#6E6F72"/>
<stop offset="0.5273" stop-color="#626366"/>
</linearGradient>
</defs>
</svg>
