<svg width="160" height="83" viewBox="0 0 160 83" fill="none" xmlns="http://www.w3.org/2000/svg">
<path d="M115.27 5.77535C115.305 7.02035 115.374 8.23077 115.374 9.44118C115.409 12.7266 115.478 16.012 115.444 19.2974C115.409 23.3437 115.165 27.3899 114.644 31.4016C114.018 36.3816 113.009 41.2578 111.374 45.9958C108.07 55.6791 102.574 63.8753 94.8872 70.6191C90.5045 74.4924 85.635 77.6395 80.3132 80.0949C80.0698 80.1987 79.8959 80.1987 79.6872 80.0949C71.235 76.187 64.0698 70.6191 58.1915 63.4258C53.7741 57.9962 50.5393 51.9095 48.3828 45.2695C47.1306 41.4999 46.2611 37.6266 45.6698 33.7187C44.6611 27.2516 44.4524 20.7499 44.5219 14.2483C44.5567 11.4816 44.6611 8.68035 44.7306 5.91368C44.7306 5.8791 44.7306 5.80993 44.7306 5.74077C56.4176 3.8041 68.1741 2.7666 80.0002 2.7666C91.8611 2.7666 103.583 3.8041 115.27 5.77535ZM46.0872 6.9166C46.0872 7.02035 46.0872 7.1241 46.0524 7.19327C45.9828 9.30285 45.9132 11.3779 45.8785 13.4874C45.7741 20.0237 45.948 26.5254 46.9219 32.9924C47.4785 36.7274 48.2437 40.4278 49.3915 44.0245C51.3045 50.1803 54.1219 55.8866 58.0176 61.0395C63.7915 68.717 71.0611 74.5616 79.7915 78.677C79.9306 78.7462 80.1393 78.7462 80.2437 78.677C88.6263 74.7345 95.6872 69.132 101.392 61.8349C105.878 56.0941 109.009 49.6962 110.992 42.7449C112.87 36.2087 113.705 29.5341 114.018 22.7903C114.226 18.0179 114.157 13.2453 114.018 8.43827C114.018 7.91952 114.018 7.43535 114.018 6.9166C91.3045 3.1816 68.6959 3.1816 46.0872 6.9166Z" fill="black"/>
<path d="M90.8174 33.2346C91.0956 33.4075 91.4087 33.5459 91.6522 33.788C93.6348 35.863 95.4783 38.0417 97.1478 40.3588C97.5652 40.9467 97.8087 41.5346 97.8435 42.2609C98.0869 45.3734 98.0174 48.5205 97.4956 51.5984C97.2869 52.8088 97.0087 54.0192 96.7304 55.2296C96.6609 55.6446 96.4174 55.9559 96.1043 56.198C92.7304 58.7917 89.4261 61.4892 86.1913 64.2905C85.6348 64.7746 85.1826 65.328 84.8348 65.9505C84.4869 66.6075 84.1043 67.2646 83.7217 67.9563C83.6522 67.8525 83.6174 67.7488 83.5826 67.6796C83.1304 66.573 82.6783 65.4317 82.1913 64.325C82.0174 63.9446 82.0174 63.5642 82.1565 63.1838C82.713 61.8005 83.2348 60.3825 83.7913 58.9992C84.2087 57.9271 84.7304 56.8896 85.1826 55.8521C85.2174 55.7484 85.287 55.6792 85.3217 55.5755C85.3565 55.5755 85.3913 55.5755 85.3913 55.61C85.3565 55.8175 85.3217 55.9905 85.2869 56.198C84.7652 58.1 84.2435 60.0367 83.7565 61.9388C83.5826 62.5959 83.5826 63.2184 83.7565 63.8755C83.8956 64.4288 84.0696 65.0167 84.2435 65.6392C84.313 65.57 84.3478 65.5355 84.3826 65.4663C84.7304 64.7055 85.2522 64.1175 85.8783 63.5642C88.8696 60.7975 91.9652 58.2038 95.0956 55.6446C95.4783 55.3334 95.6869 54.953 95.7565 54.4688C96.1043 51.633 96.1043 48.7625 96 45.8921C96 45.6155 95.9652 45.3734 95.9652 45.0967C95.9304 44.4396 95.7217 43.8517 95.3391 43.333C94.5043 42.1225 93.5304 41.0505 92.487 40.013C92.2087 39.7363 92.0348 39.425 91.9652 39.0792C91.5826 37.2117 91.1652 35.3442 90.7478 33.5113C90.7478 33.4421 90.7478 33.4075 90.713 33.3384C90.7826 33.2692 90.8174 33.2346 90.8174 33.2346Z" fill="black"/>
<path d="M74.7134 34.9637C74.9221 35.6208 75.1307 36.3124 75.3047 36.9695C75.896 39.3212 75.896 38.7333 74.9916 40.8083C73.9829 43.0908 72.9047 45.3733 71.8264 47.6212C71.6177 48.0708 71.3047 48.4858 70.9221 48.8662C69.8786 49.9383 68.8003 50.9758 67.6873 52.0133C67.3047 52.3591 67.096 52.7741 67.0264 53.2929C66.9568 54.0537 66.8177 54.8145 66.7829 55.5754C66.7829 55.9212 66.8525 56.3016 67.0264 56.5783C67.8612 57.8924 68.696 59.2066 69.6351 60.4516C71.5481 63.0454 73.5655 65.5354 75.7916 67.8524C76.2786 68.3712 76.9047 68.717 77.4612 69.1666C77.7047 69.3395 77.8786 69.5816 78.0873 69.7545C78.0525 69.7891 78.0525 69.8237 78.0177 69.8583C77.9481 69.8237 77.8786 69.8237 77.8438 69.7891C77.1134 69.4433 76.3829 69.0974 75.6873 68.6824C75.3394 68.5095 75.0264 68.2674 74.7481 67.9908C71.5134 64.7745 68.5916 61.3162 65.9134 57.5812C65.3221 56.7512 65.0438 55.8866 65.2177 54.8491C65.3916 53.9499 65.4264 53.0162 65.5655 52.117C65.6351 51.5983 65.8438 51.1833 66.1916 50.7683C68.9742 47.5174 71.5481 44.1629 73.9134 40.6008C74.0873 40.3241 74.2264 40.0474 74.4003 39.8054C74.9568 39.0791 74.8873 38.2837 74.7829 37.4537C74.6786 36.6929 74.6438 35.932 74.5742 35.1712C74.5742 35.0674 74.609 34.9637 74.609 34.8945C74.6786 34.9637 74.6786 34.9637 74.7134 34.9637Z" fill="black"/>
<path d="M100.418 27.459C100.07 27.3207 99.722 27.2515 99.409 27.0786C97.9134 26.214 96.4177 25.3494 94.9568 24.4503C94.3307 24.0699 93.6351 23.8969 92.9047 23.8624C92.2438 23.8278 91.6177 23.7932 90.9568 23.724C90.609 23.6894 90.2264 23.5857 89.9134 23.4474C88.9047 23.0324 87.9307 22.5482 86.8873 22.1332C86.5047 21.9949 86.0525 21.8911 85.6351 21.8911C83.8264 21.9257 82.0177 21.9949 80.209 22.064C79.6873 22.064 79.2003 22.064 78.6786 22.064C78.6786 22.0294 78.6786 21.9603 78.6786 21.9257C79.4786 21.8219 80.2786 21.7182 81.1134 21.6144C81.9134 21.5107 82.7481 21.4415 83.5481 21.3724C84.3829 21.3032 85.1829 21.1994 86.0177 21.1649C86.8177 21.0957 87.6525 21.0611 88.4525 20.9919C88.4525 20.9574 88.4525 20.9228 88.4525 20.8882C88.0003 20.7844 87.5829 20.6115 87.1307 20.5769C83.896 20.4732 80.6612 20.5078 77.4264 20.6807C77.1134 20.6807 76.7655 20.7499 76.4525 20.7499C75.7568 20.7499 75.1307 20.9919 74.5047 21.3032C72.0003 22.6519 69.496 24.0007 66.9568 25.3494C66.8525 25.4186 66.7481 25.4532 66.6438 25.5224C66.609 25.4878 66.609 25.4878 66.5742 25.4532C66.7481 25.2803 66.922 25.0382 67.1307 24.8999C68.6612 23.9661 70.0525 22.8594 71.3742 21.649C71.7916 21.2686 72.1047 20.7499 72.4177 20.3003C72.6612 19.8853 73.009 19.7469 73.4612 19.6778C77.1134 19.4011 80.7307 19.3319 84.3829 19.4357C85.5655 19.4703 86.7481 19.5394 87.9307 19.6432C88.4177 19.6778 88.9047 19.8507 89.322 20.0928C91.8612 21.4069 94.4351 22.7557 96.9742 24.0699C97.2177 24.2082 97.4264 24.3811 97.6003 24.5886C98.5047 25.4532 99.409 26.3524 100.279 27.2169C100.313 27.2515 100.348 27.3207 100.383 27.3553C100.452 27.4244 100.418 27.459 100.418 27.459Z" fill="black"/>
<path d="M57.7391 40.9119C57.4956 40.739 57.2869 40.6352 57.113 40.4277C56.6261 39.8398 56.1391 39.2519 55.6522 38.664C55.4087 38.3527 55.4087 38.2144 55.6869 37.9377C56.0348 37.5573 56.3478 37.1077 56.7304 36.7619C57.3217 36.2432 57.5304 35.5515 57.6695 34.8252C57.6348 34.7907 57.6348 34.7907 57.6 34.7561C57.3913 34.9636 57.1826 35.1711 57.0087 35.3786C56.8 35.6207 56.6261 35.8973 56.3826 36.1048C55.9652 36.4507 55.513 36.7619 55.0956 37.0732C54.5391 36.6236 54.4695 36.1048 54.9565 35.6207C56.1391 34.4102 57.5304 33.4419 58.8869 32.4044C58.9217 32.3698 58.9913 32.3352 59.0261 32.3007C60.2782 31.5052 61.3217 30.5369 62.1565 29.2919C62.3304 29.0498 62.6087 28.8423 62.8522 28.6694C63.9304 28.0123 65.0435 27.3552 66.1217 26.6982C66.1565 26.6636 66.1913 26.6636 66.2261 26.6636C66.2608 26.6982 66.2956 26.7327 66.3304 26.7673C66.1913 26.8711 66.0174 27.0094 65.8782 27.1132C65.3565 27.5282 64.8 27.9086 64.2782 28.3236C64.1391 28.4273 64.0348 28.6002 64 28.7386C63.8956 29.1882 63.8608 29.6377 63.7913 30.0873C63.7565 30.3294 63.6522 30.4677 63.4435 30.5369C62.9913 30.7098 62.5391 30.9173 62.0869 31.0557C61.6 31.194 61.2869 31.5744 60.8348 31.9548C61.5304 31.7819 62.1217 31.6436 62.713 31.5052C62.9565 31.4707 63.2 31.4707 63.4435 31.5398C63.7565 31.6436 64.0348 31.6782 64.313 31.609C64.9391 31.4361 65.5652 31.3323 66.1913 31.1594C66.5739 31.0557 66.9217 30.8482 67.3043 30.6407C67.5826 30.5023 67.7913 30.2948 68.0695 30.0873C68.0695 30.1911 68.0695 30.2602 68.0348 30.2948C67.6522 30.779 67.2348 31.2632 66.6087 31.4707C64.5217 32.2315 62.4348 33.0269 60.313 33.8223C60.0695 33.9261 59.8261 34.099 59.6174 34.2373C59.6174 34.2719 59.6522 34.3065 59.6522 34.3411C59.7565 34.3411 59.8261 34.3757 59.9304 34.3757C60.4174 34.4102 60.9043 34.4794 61.3913 34.4794C61.8435 34.4794 62.2261 34.6523 62.5391 34.9636C63.1652 35.6207 63.8261 36.2777 64.5565 37.004C63.8609 37.1423 63.2348 37.2115 62.6435 37.3498C61.3565 37.5919 60.0348 37.8686 58.7478 38.1107C58.4348 38.1798 58.2609 38.3527 58.1913 38.664C58.0869 39.4248 57.913 40.1511 57.7391 40.9119Z" fill="black"/>
<path d="M88.6265 27.874C89.0439 27.6665 89.4612 27.459 89.9134 27.2861C91.0265 26.8019 92.1395 26.3523 93.2873 25.9028C93.7047 25.7298 94.1221 25.7298 94.5743 25.9373C97.6004 27.3207 100.418 28.9807 103.131 30.8828C103.409 31.0903 103.513 31.3669 103.583 31.6782C103.896 33.269 104.07 34.8598 104.07 36.4853C104.07 37.7994 104 39.1136 103.931 40.4278C103.931 40.6698 103.861 40.9465 103.757 41.154C102.47 43.8169 101.009 46.3761 99.2004 48.7278C99.1656 48.7969 99.096 48.8315 98.9917 48.9353C99.0265 48.1744 99.096 47.4828 99.1308 46.7911C99.1308 46.6873 99.2352 46.5836 99.3047 46.5144C100.174 45.9611 100.731 45.1657 101.183 44.2665C101.67 43.2982 102.122 42.3298 102.609 41.3961C102.922 40.7044 103.096 40.0128 102.992 39.2519C102.713 37.4536 102.47 35.6553 102.226 33.8569C102.192 33.7186 102.157 33.5457 102.122 33.4073C102.053 32.9923 101.809 32.7157 101.426 32.5428C100.522 32.1623 99.6178 31.7819 98.7134 31.3669C98.4004 31.2286 98.0873 31.0557 97.8439 30.8482C96.5917 29.8798 95.3395 28.8769 94.0873 27.874C93.5656 27.459 93.0439 27.3553 92.4178 27.5282C91.7221 27.7357 91.0265 27.9432 90.3308 28.0469C89.7743 28.1161 89.2178 28.0469 88.6612 28.0469C88.6265 27.9432 88.6265 27.9086 88.6265 27.874Z" fill="black"/>
<path d="M79.9308 44.8892C80.0351 45.4771 80.1395 45.9612 80.209 46.4454C80.2438 46.6875 80.2438 46.9296 80.1743 47.1371C79.3395 50.7683 78.5743 54.4342 78.0525 58.1346C77.9482 58.8608 77.8438 59.5525 77.809 60.2787C77.809 60.6937 77.8786 61.1433 78.0177 61.5237C78.9221 63.8408 79.8264 66.1925 80.7656 68.475C81.009 69.0975 81.1482 69.72 81.2177 70.4117C81.1482 70.2733 81.0786 70.2042 81.0438 70.135C79.0612 66.7112 77.2525 63.2183 75.6873 59.5871C75.4438 58.9992 75.409 58.4112 75.5482 57.7887C76.2438 54.9529 77.183 52.1517 78.1917 49.385C78.7134 47.9671 79.2351 46.5837 79.7916 45.1658C79.7916 45.1658 79.8264 45.0967 79.9308 44.8892Z" fill="black"/>
<path d="M64.8003 28.9116C64.9046 28.8425 65.009 28.7387 65.1133 28.7041C65.9133 28.4621 66.5394 27.9779 66.9916 27.2862C67.1307 27.0787 67.3394 26.9058 67.4786 26.6637C67.9307 25.9721 68.5568 25.5225 69.322 25.2112C70.4699 24.7616 71.6177 24.2775 72.7655 23.7933C73.3916 23.5166 74.0177 23.5858 74.6438 23.5858C74.8525 23.5858 75.0959 23.6204 75.3046 23.655C75.2003 23.8625 75.1307 24.07 75.0264 24.2429C74.5046 25.1766 73.9481 26.0758 73.4264 26.975C73.322 27.1825 73.1133 27.39 72.9046 27.4591C71.4786 27.9087 70.0525 28.3929 68.5916 28.7387C67.7916 28.9462 66.922 28.8771 66.0872 28.9462C65.6699 28.9808 65.2525 28.9462 64.8003 28.9462C64.8003 28.9462 64.8003 28.9462 64.8003 28.9116Z" fill="black"/>
<path d="M61.3567 44.6123C61.8089 44.9927 62.1915 45.3386 62.6089 45.6844C62.8176 45.8919 63.0263 45.9265 63.3394 45.8227C64.2089 45.5115 65.0785 45.2694 65.948 44.9582C66.1915 44.8544 66.435 44.7161 66.6089 44.5086C67.5133 43.4019 68.3133 42.2261 69.0089 40.9465C69.3567 40.324 69.0785 39.6669 68.4524 39.4248C67.3741 39.0444 66.2959 38.664 65.2176 38.249C65.1133 38.2144 65.0089 38.1798 64.9393 38.1452C64.9393 38.1107 64.9393 38.0761 64.9393 38.0415C65.148 38.0415 65.3567 38.0069 65.5307 38.0415C66.8872 38.3527 68.2437 38.6986 69.6002 39.0444C70.1915 39.1827 70.3654 39.7015 70.5741 40.1857C70.6089 40.2894 70.5393 40.4623 70.5046 40.6007C69.635 42.1569 68.7654 43.6786 67.8959 45.2348C67.722 45.5461 67.4785 45.719 67.1654 45.8227C65.8785 46.2377 64.6263 46.6873 63.3741 47.1023C62.9567 47.2407 62.922 47.3098 62.9915 47.6902C63.0959 48.3473 63.235 49.0044 63.3394 49.6615C63.4089 50.0073 63.5133 50.0765 63.8611 50.0073C64.4176 49.9036 64.9741 49.7652 65.5307 49.6269C65.635 49.5923 65.7046 49.5923 65.8089 49.5923C65.4959 49.9036 65.2176 50.284 64.7307 50.3877C64.2437 50.4915 63.7915 50.6644 63.3046 50.7682C62.922 50.8719 62.7828 50.7682 62.6785 50.4223C62.5393 49.869 62.435 49.3157 62.2959 48.7969C62.0872 48.1052 61.9133 47.4136 61.6698 46.7565C61.4959 46.2723 61.3915 45.8227 61.4263 45.3386C61.322 45.1311 61.322 44.889 61.3567 44.6123Z" fill="black"/>
<path d="M84.8352 35.6554C84.4526 35.3787 84.2091 35.1367 84.1048 34.7217C83.7569 33.5112 83.3743 32.3354 82.9917 31.1596C82.8874 30.8829 82.9569 30.6408 83.1308 30.3987C83.6178 29.7762 84.1048 29.1192 84.5917 28.4967C84.8004 28.22 84.8352 27.9779 84.6613 27.6667C84.4526 27.2517 84.2439 26.8712 83.7222 26.8367C83.5482 26.8021 83.3048 26.8021 83.1656 26.8712C81.983 27.3208 80.8004 27.7704 79.583 28.22C79.3395 28.2892 79.0613 28.3237 78.8178 28.3237C78.3309 28.2546 77.8439 28.1508 77.3569 28.0817C77.4613 27.4246 77.9482 26.9058 78.5395 26.7675C80.2787 26.4217 82.0178 26.0758 83.7569 25.73C84.3135 25.6262 84.7308 26.0067 85.183 26.2142C85.2178 26.2487 85.2526 26.2833 85.2526 26.3525C85.3569 26.9404 85.5309 27.4937 85.6004 28.0817C85.6352 28.2892 85.5309 28.5312 85.4265 28.7387C85.0091 29.4304 84.5917 30.0875 84.1395 30.7446C84.0004 30.9521 83.9308 31.1942 84.0004 31.4362C84.2439 32.785 84.5222 34.2029 84.8352 35.6554Z" fill="black"/>
<path d="M86.435 12.1732C86.435 12.6228 86.435 13.0378 86.435 13.4874C88.2437 13.5566 90.0176 13.6257 91.8263 13.6949C91.8263 13.9716 91.8263 14.2137 91.8263 14.4903C89.7393 14.4212 87.6872 14.352 85.5654 14.2482C85.5654 12.6228 85.5654 10.9974 85.5654 9.3374C87.6524 9.40657 89.7393 9.51032 91.8263 9.57949C91.8263 9.85615 91.8263 10.0982 91.8263 10.3749C90.0176 10.3057 88.2437 10.2366 86.435 10.1674C86.435 10.5824 86.435 10.9628 86.435 11.3778C88.0002 11.447 89.6002 11.4816 91.2002 11.5507C91.2002 11.8274 91.2002 12.0695 91.2002 12.3462C89.6002 12.277 88.035 12.2078 86.435 12.1732Z" fill="black"/>
<path d="M60.4174 12.8995C60.4174 13.3491 60.4174 13.7641 60.4174 14.2137C62.2261 14.0754 64 13.9716 65.8087 13.8333C65.8087 14.1099 65.8087 14.352 65.8087 14.6287C63.7218 14.767 61.6696 14.9399 59.5826 15.0783C59.5826 14.9745 59.5479 14.8708 59.5479 14.8016C59.5479 13.3491 59.5479 11.9312 59.5479 10.4787C59.5479 10.2712 59.5826 10.1674 59.7913 10.1674C61.6696 10.0291 63.5826 9.89077 65.4609 9.75244C65.5652 9.75244 65.6348 9.75244 65.8087 9.75244C65.8087 9.95994 65.8435 10.1674 65.8087 10.3749C65.8087 10.4441 65.6696 10.5133 65.5652 10.5133C64.5913 10.5824 63.6174 10.6516 62.6435 10.7208C61.9131 10.7899 61.1479 10.8245 60.4174 10.8937C60.4174 11.2741 60.4174 11.6545 60.4174 12.1041C62.0174 12.0004 63.6174 11.862 65.2174 11.7583C65.2174 12.0349 65.2174 12.277 65.2174 12.5537C63.6174 12.6574 62.0174 12.7958 60.4174 12.8995Z" fill="black"/>
<path d="M83.0958 9.30275C83.0958 9.614 83.0958 9.85608 83.0958 10.0982C82.6437 10.0982 82.1915 10.0982 81.7741 10.0982C80.5915 10.0982 79.4437 10.0982 78.261 10.0982C77.8089 10.0982 77.6697 10.2365 77.6697 10.6861C77.6697 11.4123 77.6697 12.1386 77.6697 12.8302C77.6697 13.2107 77.8437 13.3836 78.1915 13.3836C79.6176 13.3836 81.0437 13.3836 82.5045 13.3836C82.5393 13.3836 82.5741 13.3836 82.6089 13.349C82.6089 12.934 82.6089 12.519 82.6089 12.0694C82.4002 12.0694 82.1915 12.0694 81.9828 12.0694C81.4263 12.0694 80.8697 12.0348 80.3132 12.0694C80.035 12.0694 79.9654 11.9657 80.0002 11.7236C80.0002 11.5853 80.0002 11.4469 80.0002 11.274C81.148 11.274 82.2958 11.274 83.4437 11.274C83.4437 12.2423 83.4437 13.1761 83.4437 14.1444C83.3741 14.1444 83.2697 14.179 83.2002 14.179C81.6002 14.179 80.035 14.1444 78.435 14.1444C78.3654 14.1444 78.2958 14.1444 78.2263 14.1444C77.1828 14.1098 76.835 13.764 76.835 12.7265C76.835 12.0348 76.835 11.3432 76.835 10.6169C76.835 9.75233 77.1828 9.33733 78.0524 9.30275C79.1654 9.23358 80.3132 9.26817 81.4263 9.26817C81.948 9.30275 82.5045 9.30275 83.0958 9.30275Z" fill="black"/>
<path d="M100.8 12.6921C100.8 13.1071 100.835 13.5221 100.8 13.9371C100.766 14.6288 100.418 14.9746 99.722 14.9746C98.922 14.9746 98.1568 14.9054 97.3568 14.8363C96.6612 14.8017 95.9655 14.7325 95.2699 14.6634C94.3655 14.5596 93.9829 14.1446 93.9829 13.2454C93.9829 12.5192 93.9829 11.7929 93.9829 11.0667C93.9829 10.2021 94.296 9.85628 95.1655 9.8217C95.8612 9.78712 96.5568 9.85628 97.2177 9.92545C98.0177 9.99462 98.8177 10.0292 99.5829 10.1675C100.418 10.3059 100.766 10.7209 100.8 11.5854C100.8 11.9659 100.8 12.3117 100.8 12.6921ZM94.8177 12.2079C94.8177 12.5884 94.8177 12.9688 94.8177 13.3492C94.8177 13.695 94.9916 13.8679 95.3742 13.9025C96.7307 14.0063 98.0525 14.11 99.409 14.2138C99.7568 14.2484 99.9307 14.0754 99.9655 13.7296C99.9655 12.9688 99.9655 12.2079 99.9655 11.4471C99.9655 11.1359 99.7916 10.9284 99.4786 10.8938C98.0873 10.79 96.6959 10.6863 95.3046 10.5825C94.9916 10.5479 94.8525 10.7209 94.8177 11.0321C94.8177 11.4125 94.8177 11.8275 94.8177 12.2079Z" fill="black"/>
<path d="M51.9305 14.3867C51.9305 14.8363 51.9305 15.2167 51.9305 15.6317C51.9305 15.8046 51.8957 15.9083 51.687 15.9429C51.5131 15.9429 51.3044 15.9775 51.0957 16.0121C51.0957 14.3867 51.0957 12.7613 51.0957 11.1358C51.687 11.0667 52.2783 10.9975 52.8696 10.9283C53.9479 10.79 55.0261 10.6863 56.0696 10.5825C56.2435 10.5479 56.4522 10.5825 56.6261 10.5825C57.1131 10.6517 57.4609 10.9283 57.5305 11.4125C57.6001 11.8967 57.6001 12.45 57.5305 12.9342C57.4261 13.5567 56.9392 13.8333 56.3827 13.9025C55.3044 14.0408 54.2261 14.1446 53.1827 14.2829C52.7653 14.2829 52.3827 14.3175 51.9305 14.3867ZM51.9305 13.5913C53.4261 13.4183 54.887 13.28 56.3131 13.1071C56.5914 13.0725 56.7653 12.8996 56.7305 12.5883C56.7305 12.3463 56.7305 12.1388 56.7305 11.8967C56.7305 11.3779 56.5914 11.2742 56.0696 11.3433C55.3392 11.4125 54.6435 11.4817 53.9131 11.5854C53.2522 11.6546 52.5566 11.7583 51.8957 11.8275C51.9305 12.3808 51.9305 12.9688 51.9305 13.5913Z" fill="black"/>
<path d="M67.9653 9.61415C68.2436 9.61415 68.5219 9.57957 68.8001 9.57957C68.8001 9.7179 68.8001 9.82165 68.8001 9.9254C68.8001 10.9975 68.8001 12.035 68.8001 13.1071C68.8001 13.5221 68.9392 13.6604 69.3566 13.6258C70.6436 13.5912 71.9306 13.5221 73.2175 13.4875C73.6349 13.4529 73.774 13.3492 73.774 12.8996C73.774 11.7237 73.774 10.5825 73.774 9.37207C74.0523 9.37207 74.3306 9.37207 74.6436 9.37207C74.6436 9.44124 74.6436 9.54499 74.6436 9.64874C74.6436 10.6862 74.6436 11.7237 74.6436 12.7612C74.6436 13.7642 74.3305 14.1446 73.3566 14.2137C71.9653 14.3175 70.5392 14.3521 69.1132 14.3521C68.3827 14.3521 67.9653 14.0062 67.9653 13.3492C67.9653 12.1387 67.9653 10.8937 67.9653 9.61415Z" fill="black"/>
<path d="M105.253 11.447C104.313 11.3432 103.374 11.2395 102.4 11.1357C102.4 10.8937 102.4 10.6516 102.4 10.3403C104.592 10.5824 106.748 10.8245 108.94 11.0666C108.94 11.3432 108.94 11.5853 108.94 11.862C108 11.7582 107.096 11.6545 106.122 11.5507C106.122 12.9341 106.122 14.2828 106.122 15.597C106.053 15.6316 106.053 15.6316 106.053 15.6316C105.253 15.597 105.253 15.597 105.253 14.767C105.253 13.7641 105.253 12.7957 105.253 11.7928C105.253 11.7237 105.253 11.5853 105.253 11.447Z" fill="black"/>
<path d="M67.7565 41.8111C67.1652 42.6065 66.5739 43.4365 65.9826 44.2319C65.9479 44.3011 65.8435 44.3703 65.7392 44.4049C65.0087 44.6469 64.3131 44.889 63.5479 45.0965C64.9044 43.9899 66.2609 42.8832 67.6174 41.7419C67.687 41.7419 67.7218 41.7765 67.7565 41.8111Z" fill="black"/>
<path d="M59.9656 40.2549C59.8613 41.0503 59.7221 41.8111 59.6178 42.6411C59.4091 42.4336 59.27 42.2607 59.1308 42.0878C58.9917 41.9149 58.8178 41.742 58.6787 41.569C58.4004 41.2232 58.4004 41.1886 58.7134 40.8774C59.0265 40.5315 59.4439 40.324 59.9656 40.2549Z" fill="black"/>
<path d="M65.1479 30.8137C65.1827 30.4679 65.1827 30.1566 65.2175 29.8454C65.2175 29.8108 65.2175 29.7762 65.2175 29.7762C65.461 29.707 65.7045 29.6379 65.948 29.6033C66.0523 29.6033 66.2262 29.6379 66.2958 29.707C66.5045 30.0183 66.2958 30.537 65.9132 30.6062C65.6697 30.7099 65.4262 30.7445 65.1479 30.8137Z" fill="black"/>
</svg>
