<svg width="160" height="83" viewBox="0 0 160 83" fill="none" xmlns="http://www.w3.org/2000/svg">
<path fill-rule="evenodd" clip-rule="evenodd" d="M109.913 80.1294V74.0428H109.496L106.226 80.1294H101.287L97.9825 74.0428H97.6694V80.1294H90.2607V69.2703H101.878L103.896 72.6248L106.087 69.2703H117.217V80.1294H109.913Z" fill="black"/>
<path fill-rule="evenodd" clip-rule="evenodd" d="M59.2001 76.3944C59.2001 76.3944 62.3305 75.7373 62.3305 73.2819C62.3305 69.2703 57.4262 69.2703 57.4262 69.2703H42.7827V80.2332H50.7827V76.6365H52.0001L54.7479 80.164H63.2349L59.2001 76.3944ZM52.5566 74.0773H50.6784V71.5182H52.7305C53.4958 71.5528 54.0871 72.2098 54.0871 72.9707C54.1218 74.0428 52.5914 74.0773 52.5566 74.0773Z" fill="black"/>
<path fill-rule="evenodd" clip-rule="evenodd" d="M82.574 69.2703H70.6088L64.8696 80.1294H72.9392L74.0522 77.5011H78.9914L80.0696 80.0948H88.2783L82.574 69.2703ZM74.8175 75.0457L76.5566 71.6565L78.2609 75.0457H74.8175Z" fill="black"/>
<path d="M80.0347 2.7666C81.913 2.7666 83.7565 2.7666 85.6347 2.7666C88.2434 2.80118 90.8521 2.90493 93.426 3.00868C95.7912 3.11243 98.1217 3.21618 100.487 3.3891C101.983 3.45827 103.513 3.63118 104.974 3.90785C105.287 3.97702 105.6 4.08077 105.913 4.14993C106.678 4.39202 107.27 5.01452 107.478 5.80993C107.652 6.5016 107.756 7.22785 107.756 7.91952C107.756 11.7583 107.756 15.597 107.756 19.4012C107.756 21.8912 107.687 24.3812 107.617 26.8712C107.548 29.1883 107.443 31.5054 107.304 33.857C107.165 36.1741 107.061 38.422 106.713 40.7045C106.435 43.4366 105.356 46.0303 103.617 48.2091C102.122 49.9037 100.383 51.3216 98.3999 52.4283C93.6347 55.2295 88.7652 57.8233 83.7565 60.1749C82.8869 60.5553 82.0173 60.9703 81.1825 61.4199C80.4521 61.8003 79.5825 61.8003 78.8521 61.4199C76.6956 60.417 74.6086 59.3449 72.4869 58.2728C68.7304 56.3362 64.9391 54.3995 61.3217 52.2208C59.1304 51.0103 57.2869 49.3158 55.7912 47.3445C54.5739 45.5116 53.7391 43.4366 53.4608 41.2579C53.1825 39.5287 53.0782 37.7995 52.9391 36.0704C52.7999 33.8916 52.6956 31.7474 52.5912 29.5687C52.5217 28.3928 52.5217 27.217 52.4869 26.0412C52.313 20.162 52.313 14.2483 52.3478 8.3691C52.313 7.60827 52.3826 6.84743 52.5565 6.0866C52.7304 5.08368 53.4956 4.28827 54.4695 4.04618C55.3391 3.8041 56.2434 3.66577 57.1825 3.5966C60.1391 3.28535 63.1304 3.1816 66.1217 3.07785C68.4173 2.9741 70.6782 2.90493 72.9739 2.83577C75.2347 2.7666 77.6695 2.7666 80.0347 2.7666ZM80.0347 4.25368C77.426 4.25368 74.8173 4.25368 72.1739 4.32285C70.2956 4.35743 68.4173 4.4266 66.5391 4.53035C63.5825 4.6341 60.7304 4.77243 57.8086 5.01452C56.9391 5.0491 56.1043 5.18743 55.2695 5.39493C54.5739 5.53327 54.0173 6.0866 53.913 6.77827C53.8086 7.19327 53.7739 7.64285 53.7739 8.05785C53.7739 9.75243 53.7739 11.447 53.7043 13.1762C53.6695 17.257 53.6347 21.3724 53.7739 25.4533C53.7739 26.1795 53.7739 26.9058 53.8434 27.7012C54.0173 30.5024 54.1217 33.3037 54.3652 36.0704C54.5043 37.8341 54.6086 39.5633 54.8869 41.2924C55.1652 43.1945 55.8956 45.0274 57.0086 46.6183C58.4695 48.5549 60.3478 50.1458 62.4695 51.3216C66.1565 53.5003 69.9825 55.4716 73.8086 57.4083C75.6869 58.3766 77.5652 59.3449 79.4782 60.2095C79.7912 60.3824 80.2086 60.3824 80.5217 60.2095C81.6695 59.6562 82.8521 59.1374 83.9999 58.5841C87.8608 56.7166 91.6521 54.7453 95.3739 52.6012C97.1478 51.6674 98.8521 50.5608 100.452 49.3503C102.748 47.5866 104.348 45.062 104.974 42.2262C105.356 40.2549 105.6 38.2491 105.704 36.2433C105.843 34.4795 105.913 32.6812 106.017 30.8829C106.226 27.8049 106.33 24.727 106.365 21.6491C106.365 18.917 106.4 16.1849 106.365 13.4874C106.33 11.7237 106.365 9.95993 106.33 8.23077C106.33 7.85035 106.296 7.50452 106.261 7.1241C106.191 6.22493 105.53 5.49868 104.626 5.36035C103.896 5.15285 103.13 5.0491 102.365 4.97993C99.8608 4.80702 97.3912 4.66868 94.9217 4.53035C91.8956 4.39202 88.8695 4.28827 85.8434 4.2191C83.8608 4.18452 81.9478 4.25368 80.0347 4.25368Z" fill="black"/>
<path d="M72.7652 36.1049C73.0782 36.9349 73.3565 37.6612 73.6 38.3529C73.6695 38.4912 73.8087 38.5949 73.9478 38.6641C74.6782 39.0791 75.4087 39.4941 76.1391 39.9091C76.3826 40.0129 76.5565 40.2549 76.5913 40.5316C76.9043 42.572 77.2174 44.6124 77.5304 46.6529C77.5652 46.9641 77.4956 47.3099 77.4261 47.6558C77.3565 48.1399 77.2869 48.6241 77.1826 49.1083C77.1478 49.2812 77.2174 49.4195 77.3913 49.4887C78.1217 49.7999 78.8522 50.1112 79.6522 50.4224C79.7913 50.4916 79.9652 50.4916 80.1043 50.4224C80.9043 50.1112 81.7043 49.7999 82.5043 49.4887C82.6782 49.4541 82.7826 49.3158 82.7478 49.1429C82.7478 49.1083 82.7478 49.1083 82.713 49.0737C82.6087 48.4166 82.4695 47.7249 82.4 47.0679C82.4 46.6183 82.4348 46.2033 82.5739 45.7883C82.8174 44.0245 83.0956 42.2954 83.3739 40.5316C83.4087 40.2549 83.5478 40.0129 83.8261 39.9091C84.5565 39.5287 85.2869 39.0791 86.0174 38.6987C86.2261 38.5949 86.3652 38.422 86.4348 38.2145C86.6782 37.5574 86.9217 36.8658 87.2 36.1395C86.6782 36.2433 86.1913 36.347 85.7391 36.4162C85.3913 36.4508 85.0782 36.6583 84.9043 36.9349C84.5913 37.3499 84.2782 37.7649 83.9652 38.1454C83.9304 38.2145 83.8608 38.3183 83.7913 38.2837C83.6869 38.2491 83.7217 38.1454 83.7565 38.0416C83.9304 36.8658 84.1043 35.6899 84.2782 34.5141C84.313 34.272 84.4522 34.0645 84.6956 34.0299C85.4956 33.7533 86.2956 33.442 87.0956 33.1999C87.2695 33.1654 87.4435 32.9924 87.4782 32.8195C87.6174 31.9549 87.7913 31.0904 87.9304 30.2258C87.9652 30.0529 87.8956 29.9145 87.7565 29.8454C87.4435 29.6724 87.1652 29.4649 86.8869 29.292C86.713 29.2229 86.6435 29.0499 86.713 28.9116C87.4782 26.1795 88.8 23.6204 90.5391 21.3724C91.6174 20.0237 93.0782 19.0554 94.713 18.5712C97.6695 17.7758 99.9652 18.8133 101.391 21.5799C102.087 22.9287 102.435 24.4504 102.4 25.9374C102.4 26.2487 102.296 26.3524 101.983 26.387L99.8956 26.6291C99.6174 26.6291 99.4782 26.7674 99.4087 27.0787C98.9217 29.8799 98.5043 32.6812 97.8087 35.4479C97.5652 36.5199 97.1826 37.5574 96.6956 38.5258C96.4869 38.9408 96.1739 39.2866 95.7913 39.5287C95.2695 39.8054 94.8521 39.6324 94.713 39.0791C94.5391 38.2491 94.5391 37.3845 94.713 36.5545C94.9565 35.102 95.4087 33.7187 95.5826 32.2662C95.8261 30.9174 95.8261 29.5687 95.6869 28.2545C95.6174 27.7012 95.4087 27.1824 95.0608 26.7329C94.4348 26.0758 93.3565 26.0066 92.6608 26.6291C92.5565 26.7329 92.4174 26.8712 92.3478 27.0095C92.313 27.1479 92.313 27.2862 92.3478 27.3899C92.4869 28.3237 92.5217 29.292 92.4521 30.2604C92.3478 31.5399 91.7217 32.6812 90.6782 33.3729C90.2261 33.6841 89.8087 34.0991 89.3565 34.4449C89.2174 34.5487 89.113 34.7562 89.0782 34.8945C88.5217 37.1424 87.9304 39.3558 87.3739 41.6037C87.0261 42.6758 86.5043 43.6441 85.913 44.5779C85.7043 45.0274 85.4608 45.4424 85.1826 45.8574C84.5565 46.722 84.5217 47.7249 84.3478 48.6933C84.1739 49.6616 84.0348 50.457 83.8956 51.3562C83.7913 52.2899 83.0956 53.0508 82.1217 53.1891C80.7304 53.5349 79.2695 53.5349 77.8782 53.1891C76.9739 53.0162 76.2782 52.2554 76.1739 51.3562C75.9304 49.9037 75.6869 48.4858 75.4435 47.0679C75.4087 46.8949 75.3391 46.6874 75.2348 46.5145C74.5739 45.4079 73.9478 44.3358 73.3217 43.1945C73.0087 42.6758 72.8 42.1224 72.6608 41.5691C72.1391 39.3904 71.5478 37.2116 71.0261 34.9983C70.9565 34.7562 70.8174 34.4795 70.6087 34.3412C70.1565 33.9608 69.7391 33.6149 69.2522 33.2345C68.313 32.5083 67.7217 31.4016 67.6174 30.2258C67.513 29.3612 67.5478 28.462 67.6869 27.5629C67.7913 26.9749 67.4435 26.3524 66.8521 26.1795C65.9826 25.7991 65.0087 26.2141 64.6608 27.0441C64.6608 27.0441 64.6608 27.0787 64.6261 27.0787C64.3826 27.5974 64.2435 28.2199 64.2435 28.7733C64.2087 30.8829 64.4869 32.9924 65.0435 35.0329C65.3565 36.0358 65.4608 37.1079 65.4261 38.1454C65.4261 38.422 65.3913 38.6641 65.2869 38.9408C65.2521 39.2866 64.9043 39.5287 64.5565 39.4941C64.4522 39.4595 64.3478 39.4595 64.2435 39.3904C63.8261 39.1483 63.513 38.8024 63.3043 38.3874C62.713 37.2462 62.2956 36.0012 62.0521 34.7216C61.4261 32.1279 61.0435 29.5341 60.5913 26.9058C60.5913 26.6637 60.3826 26.4562 60.1391 26.4562L58.0174 26.2141C57.7739 26.2141 57.6348 26.1104 57.6348 25.8337C57.5304 23.6895 58.2261 21.6145 59.5826 19.9545C60.8348 18.3983 62.8869 17.7412 64.8 18.2599C66.8174 18.7441 68.5913 19.9199 69.7739 21.6145C71.2348 23.5858 72.3478 25.7645 73.0435 28.1162C73.3565 28.9808 73.3565 28.9808 72.5217 29.4995C71.9652 29.8454 71.9652 29.8454 72.0695 30.5024C72.1739 31.1595 72.313 31.9549 72.4522 32.6812C72.4869 32.9233 72.6261 33.1308 72.8695 33.1654C73.6695 33.4074 74.4695 33.7187 75.2695 33.9954C75.4782 34.0299 75.6174 34.2029 75.6522 34.3758C75.8261 35.5862 76.0348 36.7966 76.1739 38.0416C76.1739 38.1108 76.2087 38.2145 76.1391 38.2145C76.0348 38.2491 76.0348 38.1454 75.9652 38.1108C75.5826 37.6612 75.2348 37.177 74.8869 36.7274C74.7478 36.5545 74.5739 36.4162 74.3304 36.3816C73.8782 36.3816 73.3565 36.2433 72.7652 36.1049ZM70.5043 32.3354C70.4348 31.7474 70.3652 31.0558 70.2608 30.3641C70.2608 30.2258 70.1913 30.122 70.1217 29.9837L68.8 28.2545C68.7652 28.1854 68.6956 28.1162 68.6261 28.1508C68.5565 28.1854 68.5565 28.2545 68.5565 28.3237C68.3826 29.0154 68.313 29.7416 68.313 30.4333C68.2782 31.367 68.9043 32.197 69.7739 32.4737C69.913 32.5429 70.0869 32.5774 70.2261 32.6466C70.4695 32.7849 70.5391 32.6812 70.5043 32.3354ZM91.3391 28.047C90.8869 28.6349 90.4695 29.1883 90.0521 29.707C89.8087 29.9491 89.6695 30.2949 89.6695 30.6408C89.6348 31.1249 89.5652 31.5745 89.4956 32.0933C89.4261 32.8195 89.4261 32.8195 90.1565 32.5429C90.9565 32.3008 91.513 31.6437 91.6174 30.8137C91.6869 29.8799 91.5826 28.9462 91.3391 28.047Z" fill="black"/>
<path d="M56.1393 26.9058C56.2784 27.1133 56.3828 27.3208 56.5219 27.5628C56.6263 27.8395 56.9045 28.0124 57.1828 27.9778C57.4958 27.9778 57.8436 28.047 58.1915 28.047C58.5045 28.0816 58.5741 28.1508 58.6436 28.462C59.0958 32.0241 60.035 35.517 61.4958 38.8024C62.0176 40.082 62.8176 41.2578 63.8263 42.2608C64.2784 42.7103 64.8697 43.0216 65.5306 43.0562C65.948 43.1599 66.3654 42.8833 66.4697 42.4337C66.6436 41.8458 66.748 41.2233 66.7132 40.5662C66.7828 39.5978 66.7132 38.5949 66.5393 37.6266C66.5393 37.5574 66.5393 37.5228 66.5393 37.4537C66.7132 37.4537 66.7132 37.6266 66.748 37.7303C67.2697 39.252 67.5132 40.8428 67.4784 42.4337C67.4089 44.9928 65.7045 46.0303 63.5132 45.892C61.9132 45.7883 60.4176 45.0966 59.4089 43.9208L59.3045 43.817H59.1306C59.5132 44.5433 59.9306 45.2003 60.4871 45.7883C61.7741 47.137 63.2697 48.2437 64.8697 49.1083C69.6697 51.8403 74.5741 54.3649 79.5132 56.7858C79.7567 56.8895 80.0349 56.8895 80.2436 56.7858C83.3741 55.437 86.4002 53.9153 89.3915 52.3245C91.5828 51.1833 93.7741 49.9383 95.8958 48.6587C97.7393 47.6558 99.3393 46.2033 100.557 44.4741C100.8 44.1283 100.974 43.7478 101.113 43.3674C100.452 44.232 99.6176 44.8891 98.6436 45.3387C97.4263 45.9266 96.0697 46.0649 94.7828 45.7191C93.4958 45.4078 92.5567 44.3012 92.4871 42.987C92.3828 41.1541 92.5915 39.3558 93.2176 37.6266C93.2176 37.5228 93.2523 37.3845 93.461 37.3499C93.4263 37.592 93.3915 37.7995 93.3567 38.007C93.1828 39.2866 93.1828 40.5316 93.3567 41.7766C93.4958 42.9524 94.0523 43.3328 95.2697 42.7795C95.9306 42.4337 96.4871 41.9149 96.9045 41.327C98.0523 39.7016 98.9567 37.9033 99.548 36.0012C100.383 33.5458 100.974 31.0558 101.287 28.5312C101.287 28.2199 101.426 28.0816 101.739 28.0816C102.052 28.0816 102.47 27.9778 102.818 27.9778C103.131 28.0124 103.478 27.7703 103.548 27.4591C103.583 27.3553 103.652 27.217 103.791 27.1478C103.896 27.2516 103.826 27.3208 103.826 27.4245C103.826 28.5658 103.826 29.6724 103.826 30.8137C103.826 33.857 103.444 36.9003 102.678 39.8399C102.505 40.8428 102.226 41.8803 101.948 42.8487C101.183 44.8199 99.8263 46.5491 98.1219 47.7941C96.5915 48.9008 94.9915 49.9037 93.3219 50.7683C90.2262 52.532 87.061 54.1574 83.8958 55.6791C82.7132 56.267 81.4958 56.7512 80.2784 57.3045C80.0697 57.4083 79.8263 57.4083 79.6176 57.3045C76.2784 55.7137 73.0089 54.0191 69.7393 52.2899C67.8263 51.287 65.9828 50.2841 64.1393 49.1774C62.4349 48.2437 60.9741 46.9987 59.7567 45.5116C58.8871 44.4049 58.261 43.1253 57.9132 41.7766C57.5306 40.3587 57.0436 39.0099 56.7654 37.592C56.4176 35.7591 56.1741 33.9262 56.1393 32.0587C56.0697 30.5024 56.1393 28.9462 56.1393 27.3553C56.0349 27.217 56.0349 27.0441 56.1393 26.9058Z" fill="black"/>
<path d="M101.391 19.1937L100.73 18.0525C99.8608 16.4962 98.8173 15.0437 97.5303 13.7987C96.313 12.5192 94.6434 11.7929 92.8695 11.6892C91.4434 11.6546 90.0173 12.035 88.7999 12.7612C86.9564 13.8679 85.3912 15.355 84.139 17.1187C82.9912 18.7442 81.9477 20.4387 81.0782 22.2371C81.0434 22.41 80.9043 22.5483 80.7651 22.6521C80.626 22.2025 80.5217 21.7183 80.4521 21.2342C80.3825 20.8883 80.3477 20.5079 80.2434 20.1621C80.1043 19.6779 80.1738 19.1592 80.4521 18.7442C81.3912 16.7729 82.6434 14.94 84.139 13.3492C85.8086 11.5854 88.0347 10.4787 90.3999 10.2021C92.4173 9.95999 94.4695 10.5479 96.0347 11.8275C98.3651 13.7296 100.139 16.1158 101.287 18.8825C101.322 18.9171 101.322 18.9862 101.322 19.0208C101.391 19.09 101.426 19.1246 101.391 19.1937Z" fill="black"/>
<path d="M58.1567 19.1937C58.5393 18.2599 58.9567 17.3607 59.5133 16.5307C60.522 14.8362 61.7741 13.3491 63.2698 12.1041C65.322 10.3403 68.1393 9.75241 70.7133 10.5478C72.835 11.1703 74.6785 12.3807 76.0698 14.0753C77.4263 15.6316 78.5393 17.3953 79.3393 19.2628C79.4437 19.4357 79.4437 19.6087 79.4089 19.7816C79.235 20.6462 79.0959 21.5107 78.9567 22.3753C78.9567 22.4791 78.9567 22.6174 78.8524 22.6174C78.748 22.652 78.6785 22.4791 78.6437 22.3753C77.7046 20.4387 76.5915 18.6057 75.3741 16.8766C74.122 15.0437 72.4176 13.5566 70.435 12.5191C67.6524 11.1703 65.0089 11.3778 62.5741 13.3837C61.8437 14.0062 61.1828 14.7324 60.5915 15.4932C59.8263 16.5307 59.1307 17.6028 58.5046 18.7441C58.435 18.9516 58.2959 19.0899 58.1567 19.1937Z" fill="black"/>
<path d="M57.2177 19.5049V25.7299C57.2177 25.8337 57.2177 25.972 57.2177 26.1104C57.1829 26.2833 57.0437 26.4216 56.835 26.4216C56.6611 26.4216 56.7307 26.2141 56.7307 26.1104C56.6264 24.3466 56.6959 22.5483 56.6611 20.7845C56.6611 18.8133 56.6611 16.9112 56.6611 14.9399C56.6611 13.3491 56.6611 11.7583 56.7307 10.1674C56.7307 9.89078 56.7655 9.6487 56.835 9.37203C56.9046 8.50745 57.635 7.85036 58.5394 7.91953C59.6177 7.81578 60.7307 7.74661 61.7742 7.67745L68.3133 7.33161C69.6698 7.26245 70.9916 7.22786 72.3133 7.1587C75.722 7.05495 79.0959 7.05495 82.5046 7.08953C85.1133 7.12411 87.7568 7.22786 90.3655 7.33161C92.5568 7.40078 94.6785 7.50453 96.8698 7.60828C98.4698 7.64286 100.035 7.7812 101.635 7.95411C102.574 7.9887 103.339 8.74953 103.339 9.68328C103.339 9.75245 103.339 9.82161 103.305 9.8562C103.479 14.9745 103.479 20.0583 103.409 25.2458C103.409 25.557 103.409 25.9029 103.374 26.1795C103.374 26.2833 103.444 26.4908 103.27 26.4908C103.096 26.4908 102.922 26.387 102.887 26.2141C102.852 26.0758 102.852 25.9374 102.887 25.8337C102.887 21.822 102.887 17.8104 102.887 13.7987C102.887 12.4154 102.887 11.0666 102.783 9.68328C102.713 8.95703 102.505 8.68036 101.774 8.54203C100.765 8.36911 99.7916 8.26536 98.7481 8.26536C95.5829 8.09245 92.3829 7.9887 89.1829 7.88495C87.8611 7.85036 86.5046 7.7812 85.1829 7.74661C81.8437 7.64286 78.5046 7.64286 75.1655 7.67745C71.6872 7.71203 68.209 7.85036 64.7307 8.09245C62.8524 8.1962 60.9742 8.29995 59.0959 8.4037C58.8177 8.4037 58.5742 8.43828 58.2959 8.50745C57.8437 8.54203 57.4611 8.88786 57.3916 9.37203C57.322 9.6487 57.2872 9.92536 57.2872 10.202V19.5741L57.2177 19.5049Z" fill="black"/>
</svg>
