<?xml version="1.0" encoding="UTF-8"?>
<svg xmlns="http://www.w3.org/2000/svg" viewBox="0 0 2000 1125" preserveAspectRatio="xMidYMid slice">
  <defs>
    <linearGradient id="sky" x1="0" y1="0" x2="0" y2="1">
      <stop offset="0%" stop-color="#0F1A2E"/>
      <stop offset="35%" stop-color="#1E2740"/>
      <stop offset="62%" stop-color="#2D3748"/>
      <stop offset="82%" stop-color="#8B6914"/>
      <stop offset="100%" stop-color="#ECC94B"/>
    </linearGradient>
    <linearGradient id="sun" cx="0.78" cy="0.72" r="0.45">
      <stop offset="0%" stop-color="#F0D053" stop-opacity="0.95"/>
      <stop offset="35%" stop-color="#ECC94B" stop-opacity="0.55"/>
      <stop offset="100%" stop-color="#1E2740" stop-opacity="0"/>
    </linearGradient>
    <radialGradient id="sunglow" cx="0.78" cy="0.72" r="0.45">
      <stop offset="0%" stop-color="#F0D053" stop-opacity="0.9"/>
      <stop offset="40%" stop-color="#ECC94B" stop-opacity="0.4"/>
      <stop offset="100%" stop-color="#1E2740" stop-opacity="0"/>
    </radialGradient>
    <linearGradient id="ground" x1="0" y1="0" x2="0" y2="1">
      <stop offset="0%" stop-color="#1A1A1A" stop-opacity="0.8"/>
      <stop offset="30%" stop-color="#0F1A2E" stop-opacity="0.95"/>
      <stop offset="100%" stop-color="#070C18"/>
    </linearGradient>
    <linearGradient id="mountains" x1="0" y1="0" x2="0" y2="1">
      <stop offset="0%" stop-color="#1A2540" stop-opacity="0.9"/>
      <stop offset="100%" stop-color="#0F1A2E"/>
    </linearGradient>
    <linearGradient id="vehicle-light" x1="0" y1="0" x2="1" y2="0.3">
      <stop offset="0%" stop-color="#D4A60C" stop-opacity="0.45"/>
      <stop offset="50%" stop-color="#ECC94B" stop-opacity="0.25"/>
      <stop offset="100%" stop-color="#ECC94B" stop-opacity="0"/>
    </linearGradient>
    <linearGradient id="vehicle-dark" x1="0" y1="0" x2="0" y2="1">
      <stop offset="0%" stop-color="#2D3748"/>
      <stop offset="100%" stop-color="#0F1A2E"/>
    </linearGradient>
    <linearGradient id="vehicle-mid" x1="0" y1="0" x2="0" y2="1">
      <stop offset="0%" stop-color="#3D4A60"/>
      <stop offset="100%" stop-color="#1E2740"/>
    </linearGradient>
    <filter id="grain" x="0" y="0" width="100%" height="100%">
      <feTurbulence type="fractalNoise" baseFrequency="0.9" numOctaves="2" stitchTiles="stitch"/>
      <feColorMatrix type="matrix" values="0 0 0 0 1  0 0 0 0 1  0 0 0 0 1  0 0 0 0.04 0"/>
    </filter>
  </defs>

  <!-- Cielo amanecer -->
  <rect width="2000" height="780" fill="url(#sky)"/>

  <!-- Sol/halo dorado -->
  <circle cx="1560" cy="650" r="280" fill="url(#sunglow)"/>
  <circle cx="1560" cy="650" r="80" fill="#F0D053" opacity="0.85"/>

  <!-- Líneas atmosféricas sutiles -->
  <path d="M0 720 Q 1000 700 2000 720" stroke="#ECC94B" stroke-opacity="0.08" stroke-width="1" fill="none"/>
  <path d="M0 740 Q 1000 720 2000 740" stroke="#ECC94B" stroke-opacity="0.06" stroke-width="1" fill="none"/>
  <path d="M0 760 Q 1000 745 2000 760" stroke="#ECC94B" stroke-opacity="0.04" stroke-width="1" fill="none"/>

  <!-- Cordillera distante -->
  <path d="M0 740 L120 700 L200 720 L320 670 L440 710 L560 680 L700 720 L820 700 L960 730 L1080 705 L1200 725 L1340 700 L1460 730 L1580 715 L1720 735 L1860 720 L2000 740 L2000 780 L0 780 Z" fill="url(#mountains)" opacity="0.75"/>

  <!-- Cordillera media -->
  <path d="M0 770 L150 745 L280 770 L420 740 L560 765 L720 745 L880 770 L1040 750 L1200 770 L1380 745 L1540 770 L1720 755 L1900 770 L2000 765 L2000 800 L0 800 Z" fill="#0F1A2E" opacity="0.85"/>

  <!-- Suelo / patio -->
  <rect y="780" width="2000" height="345" fill="url(#ground)"/>

  <!-- Líneas de pavimento sutiles (perspectiva convergente al horizonte) -->
  <g opacity="0.18" stroke="#ECC94B" stroke-width="1.5" fill="none">
    <path d="M-200 1125 Q 600 900 1560 800"/>
    <path d="M0 1125 Q 700 900 1580 800"/>
    <path d="M400 1125 Q 900 920 1620 815"/>
    <path d="M900 1125 Q 1200 950 1640 825"/>
    <path d="M1500 1125 Q 1500 970 1660 835"/>
  </g>

  <!-- Reflejo dorado en suelo cerca del horizonte -->
  <ellipse cx="1560" cy="800" rx="600" ry="35" fill="#ECC94B" opacity="0.25"/>
  <ellipse cx="1560" cy="800" rx="320" ry="18" fill="#F0D053" opacity="0.4"/>

  <!-- VEHÍCULO 1 — pickup (lejano, atrás) -->
  <g transform="translate(720 760)" opacity="0.7">
    <!-- chasis -->
    <path d="M0 40 L20 28 L80 28 L100 32 L160 32 L180 36 L240 36 L240 60 L0 60 Z" fill="url(#vehicle-dark)"/>
    <!-- cabina -->
    <path d="M40 28 L60 12 L130 12 L150 28 Z" fill="url(#vehicle-mid)"/>
    <!-- caja -->
    <rect x="150" y="20" width="90" height="16" fill="#2D3748"/>
    <!-- ruedas -->
    <circle cx="50" cy="60" r="11" fill="#0A0E18"/>
    <circle cx="200" cy="60" r="11" fill="#0A0E18"/>
    <!-- highlight golden hour lateral -->
    <path d="M0 40 L20 28 L80 28 L100 32 L160 32 L180 36 L240 36 L240 50 L0 50 Z" fill="url(#vehicle-light)" opacity="0.6"/>
  </g>

  <!-- VEHÍCULO 2 — van comercial (medio) -->
  <g transform="translate(940 800)" opacity="0.8">
    <path d="M0 50 L0 18 L40 8 L240 8 L260 22 L290 26 L290 75 L0 75 Z" fill="url(#vehicle-dark)"/>
    <!-- ventanal lateral -->
    <rect x="20" y="20" width="220" height="22" fill="#1A2540" opacity="0.85"/>
    <!-- highlight -->
    <path d="M0 50 L0 18 L40 8 L240 8 L260 22 L290 26 L290 55 L0 55 Z" fill="url(#vehicle-light)" opacity="0.55"/>
    <!-- ruedas -->
    <circle cx="55" cy="75" r="13" fill="#0A0E18"/>
    <circle cx="240" cy="75" r="13" fill="#0A0E18"/>
  </g>

  <!-- VEHÍCULO 3 — SUV ejecutiva (medio, casi blanco mate) -->
  <g transform="translate(1240 825)" opacity="0.9">
    <path d="M0 50 L15 30 L60 22 L75 8 L185 8 L210 24 L260 30 L275 50 L275 75 L0 75 Z" fill="#3D4A60"/>
    <!-- cabina vidrios -->
    <path d="M70 26 L82 12 L182 12 L200 26 Z" fill="#1A2540" opacity="0.85"/>
    <!-- highlight cuerpo casi-blanco -->
    <path d="M0 50 L15 30 L60 22 L75 18 L185 18 L210 28 L260 32 L275 50 L275 60 L0 60 Z" fill="#A0AEC0" opacity="0.35"/>
    <!-- highlight golden -->
    <path d="M0 50 L15 30 L60 22 L75 8 L185 8 L210 24 L260 30 L275 50 L275 58 L0 58 Z" fill="url(#vehicle-light)" opacity="0.5"/>
    <!-- ruedas -->
    <circle cx="62" cy="75" r="13" fill="#0A0E18"/>
    <circle cx="225" cy="75" r="13" fill="#0A0E18"/>
  </g>

  <!-- VEHÍCULO 4 — pickup grande (frente, dominante) -->
  <g transform="translate(1480 870)">
    <!-- sombra largo golden hour -->
    <ellipse cx="180" cy="115" rx="220" ry="10" fill="#000" opacity="0.4"/>
    <!-- chasis -->
    <path d="M0 60 L30 40 L100 36 L130 42 L210 42 L240 48 L350 48 L360 75 L0 75 Z" fill="#2D3748"/>
    <!-- cabina -->
    <path d="M60 40 L85 18 L195 18 L215 40 Z" fill="url(#vehicle-mid)"/>
    <!-- vidrios cabina -->
    <path d="M70 36 L90 22 L190 22 L210 36 Z" fill="#1A2540" opacity="0.85"/>
    <!-- caja -->
    <rect x="215" y="28" width="135" height="22" fill="#1E2740"/>
    <rect x="220" y="32" width="125" height="16" fill="#2D3748" opacity="0.6"/>
    <!-- highlight golden hour MUY presente en este vehículo (más cercano al sol) -->
    <path d="M0 60 L30 40 L100 36 L130 42 L210 42 L240 48 L350 48 L360 72 L0 72 Z" fill="url(#vehicle-light)" opacity="0.75"/>
    <!-- ruedas -->
    <circle cx="65" cy="80" r="17" fill="#0A0E18"/>
    <circle cx="295" cy="80" r="17" fill="#0A0E18"/>
    <circle cx="65" cy="80" r="8" fill="#1A2540"/>
    <circle cx="295" cy="80" r="8" fill="#1A2540"/>
  </g>

  <!-- VEHÍCULO 5 — sedán/SUV chico, primer plano izquierda -->
  <g transform="translate(120 890)" opacity="0.95">
    <!-- sombra -->
    <ellipse cx="140" cy="98" rx="150" ry="6" fill="#000" opacity="0.35"/>
    <!-- chasis sedan -->
    <path d="M0 50 L20 30 L60 22 L80 14 L180 14 L200 22 L240 30 L260 50 L260 70 L0 70 Z" fill="#1E2740"/>
    <!-- vidrios -->
    <path d="M60 28 L82 18 L182 18 L202 28 Z" fill="#1A2540"/>
    <!-- highlight golden lateral (desde sol al otro lado) -->
    <path d="M0 50 L20 30 L60 22 L80 14 L180 14 L200 22 L240 30 L260 50 L260 60 L0 60 Z" fill="url(#vehicle-light)" opacity="0.4"/>
    <!-- ruedas -->
    <circle cx="55" cy="70" r="12" fill="#0A0E18"/>
    <circle cx="205" cy="70" r="12" fill="#0A0E18"/>
  </g>

  <!-- Niebla atmosférica baja para profundidad -->
  <rect y="770" width="2000" height="60" fill="url(#sunglow)" opacity="0.18"/>

  <!-- Vignette derecha (negative space para el texto) -->
  <rect x="1100" y="0" width="900" height="1125" fill="url(#vignette-right)"/>
  <defs>
    <linearGradient id="vignette-right" x1="0" y1="0" x2="1" y2="0">
      <stop offset="0%" stop-color="#0F1A2E" stop-opacity="0"/>
      <stop offset="100%" stop-color="#0F1A2E" stop-opacity="0.35"/>
    </linearGradient>
  </defs>

  <!-- Grain editorial sutil -->
  <rect width="2000" height="1125" filter="url(#grain)" opacity="0.5"/>
</svg>
